G04*
G04 #@! TF.GenerationSoftware,Altium Limited,Altium Designer,20.2.8 (258)*
G04*
G04 Layer_Color=8388736*
%FSLAX25Y25*%
%MOIN*%
G70*
G04*
G04 #@! TF.SameCoordinates,8B033AF5-0F56-4633-A6EA-0BBE3F1FE994*
G04*
G04*
G04 #@! TF.FilePolarity,Negative*
G04*
G01*
G75*
%ADD45R,0.10154X0.07129*%
%ADD46R,0.02375X0.06115*%
%ADD47R,0.01975X0.05715*%
%ADD48R,0.09068X0.07099*%
%ADD49R,0.03943X0.08274*%
%ADD50R,0.05600X0.06400*%
%ADD51R,0.03950X0.04343*%
%ADD52O,0.02063X0.06906*%
%ADD53O,0.06906X0.02063*%
%ADD54R,0.04540X0.05328*%
%ADD55R,0.06351X0.06115*%
%ADD56R,0.05721X0.03556*%
%ADD57R,0.04202X0.03975*%
%ADD58R,0.06221X0.05259*%
%ADD59R,0.04737X0.06706*%
%ADD60O,0.08478X0.03038*%
%ADD61R,0.04343X0.03950*%
%ADD62R,0.06115X0.06351*%
%ADD63R,0.04343X0.04737*%
%ADD64R,0.03975X0.04202*%
%ADD65R,0.08674X0.08674*%
%ADD66R,0.04934X0.10505*%
%ADD67R,0.14737X0.10505*%
%ADD68O,0.06312X0.09068*%
%ADD69C,0.05124*%
%ADD70C,0.07493*%
%ADD71R,0.07493X0.07000*%
%ADD72C,0.07887*%
%ADD73R,0.07887X0.07887*%
%ADD74C,0.06800*%
%ADD75O,0.18910X0.08674*%
%ADD76O,0.08674X0.18910*%
%ADD77C,0.07000*%
%ADD78R,0.07000X0.07000*%
%ADD79R,0.07000X0.07000*%
%ADD80O,0.07690X0.06312*%
%ADD81C,0.10642*%
%ADD82C,0.13005*%
D45*
X297244Y225182D02*
D03*
Y239385D02*
D03*
D46*
X331890Y289715D02*
D03*
X324213D02*
D03*
X321654D02*
D03*
D47*
X329331D02*
D03*
X326772D02*
D03*
D48*
X314567Y290207D02*
D03*
X338976D02*
D03*
D49*
X164029Y74814D02*
D03*
X159029Y74814D02*
D03*
X154029Y74814D02*
D03*
X149029Y74814D02*
D03*
X144029Y74814D02*
D03*
X139029Y74814D02*
D03*
X134029Y74814D02*
D03*
X129029Y74814D02*
D03*
D50*
X108039Y120780D02*
D03*
X115039D02*
D03*
Y129780D02*
D03*
X108039D02*
D03*
D51*
X158810Y82932D02*
D03*
X164321Y82932D02*
D03*
X142784Y160780D02*
D03*
X148295D02*
D03*
X125506Y141480D02*
D03*
X119995D02*
D03*
Y163279D02*
D03*
X125506D02*
D03*
X115095Y111779D02*
D03*
X109584D02*
D03*
X207791Y67479D02*
D03*
X213302D02*
D03*
D52*
X149213Y149511D02*
D03*
X151182Y149512D02*
D03*
X153150Y149511D02*
D03*
X155119Y149512D02*
D03*
X157087Y149511D02*
D03*
X159056Y149512D02*
D03*
X161024Y149511D02*
D03*
X162993Y149512D02*
D03*
X164961Y149511D02*
D03*
X166930Y149512D02*
D03*
X168898Y149511D02*
D03*
X170867Y149512D02*
D03*
X170866Y116048D02*
D03*
X168897Y116047D02*
D03*
X166929Y116048D02*
D03*
X164960Y116047D02*
D03*
X162992Y116048D02*
D03*
X161023Y116047D02*
D03*
X159055Y116048D02*
D03*
X157086Y116047D02*
D03*
X155118Y116048D02*
D03*
X153149Y116047D02*
D03*
X151181Y116048D02*
D03*
X149212Y116047D02*
D03*
D53*
X176771Y143607D02*
D03*
Y141637D02*
D03*
Y139670D02*
D03*
Y137700D02*
D03*
Y135733D02*
D03*
Y133763D02*
D03*
Y131796D02*
D03*
Y129826D02*
D03*
Y127859D02*
D03*
Y125889D02*
D03*
Y123922D02*
D03*
Y121952D02*
D03*
X143308D02*
D03*
Y123922D02*
D03*
Y125889D02*
D03*
Y127859D02*
D03*
Y129826D02*
D03*
Y131796D02*
D03*
Y133763D02*
D03*
Y135733D02*
D03*
Y137700D02*
D03*
Y139670D02*
D03*
Y141637D02*
D03*
Y143607D02*
D03*
D54*
X69450Y228169D02*
D03*
X82777Y228169D02*
D03*
D55*
X80168Y238769D02*
D03*
X72058Y238769D02*
D03*
X110794Y283828D02*
D03*
X102684D02*
D03*
X80084D02*
D03*
X88194Y283828D02*
D03*
X57529Y283828D02*
D03*
X65639Y283828D02*
D03*
X34984Y283728D02*
D03*
X43095Y283728D02*
D03*
D56*
X92077Y233469D02*
D03*
X99950Y237209D02*
D03*
Y229728D02*
D03*
D57*
X106913Y216603D02*
D03*
X106913Y222534D02*
D03*
Y236734D02*
D03*
Y230803D02*
D03*
X74939Y155756D02*
D03*
X74939Y149825D02*
D03*
X271639Y173183D02*
D03*
Y179114D02*
D03*
X301139Y179145D02*
D03*
Y173214D02*
D03*
X203802Y101845D02*
D03*
X203802Y95914D02*
D03*
X209902Y101845D02*
D03*
Y95914D02*
D03*
X74939Y121919D02*
D03*
Y115988D02*
D03*
X74939Y88082D02*
D03*
Y82151D02*
D03*
X74939Y189593D02*
D03*
Y183662D02*
D03*
X119239Y254480D02*
D03*
Y248549D02*
D03*
D58*
X59713Y226873D02*
D03*
Y219264D02*
D03*
X110839Y292123D02*
D03*
Y299732D02*
D03*
X88239Y292123D02*
D03*
X88239Y299732D02*
D03*
X65739Y292123D02*
D03*
X65739Y299732D02*
D03*
X43139Y292123D02*
D03*
Y299732D02*
D03*
D59*
X88178Y274170D02*
D03*
X76368D02*
D03*
X76368Y254485D02*
D03*
X88178Y254485D02*
D03*
X65611Y274170D02*
D03*
X53801Y274170D02*
D03*
X53801Y254485D02*
D03*
X65611D02*
D03*
X43044Y274170D02*
D03*
X31234D02*
D03*
Y254485D02*
D03*
X43044Y254485D02*
D03*
X110744Y274170D02*
D03*
X98934Y274170D02*
D03*
X98934Y254485D02*
D03*
X110744Y254485D02*
D03*
D60*
X196952Y89679D02*
D03*
Y84680D02*
D03*
Y79680D02*
D03*
Y74679D02*
D03*
X218252Y89679D02*
D03*
Y84680D02*
D03*
Y79680D02*
D03*
Y74679D02*
D03*
D61*
X186239Y150035D02*
D03*
Y144524D02*
D03*
X179539Y108024D02*
D03*
Y113535D02*
D03*
X128839Y122124D02*
D03*
Y127635D02*
D03*
X100039Y129735D02*
D03*
X100039Y124224D02*
D03*
X82639Y48335D02*
D03*
Y42824D02*
D03*
X67839Y155346D02*
D03*
Y149835D02*
D03*
X67839Y121509D02*
D03*
Y115998D02*
D03*
X67839Y87672D02*
D03*
Y82161D02*
D03*
X67839Y189183D02*
D03*
Y183672D02*
D03*
D62*
X311024Y263661D02*
D03*
Y271772D02*
D03*
X320866Y263661D02*
D03*
Y271772D02*
D03*
X224410Y234134D02*
D03*
Y242244D02*
D03*
X311024Y228228D02*
D03*
Y236339D02*
D03*
D63*
X359055Y267717D02*
D03*
X352362D02*
D03*
D64*
X343517D02*
D03*
X337586D02*
D03*
D65*
X58639Y149857D02*
D03*
X30286Y149857D02*
D03*
X58639Y115987D02*
D03*
X30286Y115987D02*
D03*
X58639Y82117D02*
D03*
X30286D02*
D03*
X58639Y183728D02*
D03*
X30286D02*
D03*
D66*
X339764Y250000D02*
D03*
X330709D02*
D03*
X321654D02*
D03*
D67*
X330709Y227500D02*
D03*
D68*
X314173Y300836D02*
D03*
X339370D02*
D03*
D69*
X125550Y149230D02*
D03*
Y155529D02*
D03*
D70*
X81113Y217469D02*
D03*
X238189Y262382D02*
D03*
X228346D02*
D03*
X220472D02*
D03*
X210630D02*
D03*
D71*
X71113Y217469D02*
D03*
D72*
X328110Y130295D02*
D03*
X318110D02*
D03*
X308110D02*
D03*
X298110D02*
D03*
X288110D02*
D03*
X278110D02*
D03*
D73*
X268110D02*
D03*
D74*
X131102Y194843D02*
D03*
Y204842D02*
D03*
X131102Y214843D02*
D03*
X131102Y224843D02*
D03*
Y234842D02*
D03*
X131102Y244843D02*
D03*
X131102Y254842D02*
D03*
Y264843D02*
D03*
D75*
X283464Y259056D02*
D03*
X283465Y283465D02*
D03*
D76*
X264960Y270866D02*
D03*
D77*
X291496Y169134D02*
D03*
X281496D02*
D03*
X291496Y179134D02*
D03*
X281496D02*
D03*
X291496Y189134D02*
D03*
X179291Y283465D02*
D03*
X169291D02*
D03*
X159291D02*
D03*
X149291D02*
D03*
X346457Y201102D02*
D03*
Y191102D02*
D03*
Y181102D02*
D03*
Y171102D02*
D03*
X61929Y48307D02*
D03*
X71929Y38307D02*
D03*
Y48307D02*
D03*
X232283Y168976D02*
D03*
Y178976D02*
D03*
Y188976D02*
D03*
D78*
X281496Y189134D02*
D03*
X346457Y161102D02*
D03*
D79*
X139291Y283465D02*
D03*
X61929Y38307D02*
D03*
D80*
X39371Y45276D02*
D03*
X39371Y35434D02*
D03*
Y25591D02*
D03*
D81*
X276378Y234252D02*
D03*
X257874D02*
D03*
X239370D02*
D03*
D82*
X196851Y273051D02*
D03*
X251968D02*
D03*
M02*
