G04*
G04 #@! TF.GenerationSoftware,Altium Limited,Altium Designer,20.2.8 (258)*
G04*
G04 Layer_Color=128*
%FSLAX25Y25*%
%MOIN*%
G70*
G04*
G04 #@! TF.SameCoordinates,8B033AF5-0F56-4633-A6EA-0BBE3F1FE994*
G04*
G04*
G04 #@! TF.FilePolarity,Positive*
G04*
G01*
G75*
%ADD103C,0.00200*%
D103*
X8858Y15748D02*
X22638D01*
X15748Y8858D02*
Y22638D01*
X8858Y299213D02*
X22638D01*
X15748Y292323D02*
Y306102D01*
X351378Y299213D02*
X365158D01*
X358268Y292323D02*
Y306102D01*
X312598Y300836D02*
X315748D01*
X314173Y299261D02*
Y302411D01*
X337795Y300836D02*
X340945D01*
X339370Y299261D02*
Y302411D01*
X124537Y29448D02*
X128867D01*
X126702Y27283D02*
Y31614D01*
X123976Y149230D02*
X127125D01*
X125550Y147655D02*
Y150805D01*
X123976Y155529D02*
X127125D01*
X125550Y153954D02*
Y157104D01*
X78948Y217469D02*
X83279D01*
X81113Y215303D02*
Y219634D01*
X68948Y217469D02*
X73279D01*
X71113Y215303D02*
Y219634D01*
X325747Y130295D02*
X330472D01*
X328110Y127933D02*
Y132657D01*
X315747Y130295D02*
X320472D01*
X318110Y127933D02*
Y132657D01*
X305748Y130295D02*
X310472D01*
X308110Y127933D02*
Y132657D01*
X295747Y130295D02*
X300472D01*
X298110Y127933D02*
Y132657D01*
X285748Y130295D02*
X290472D01*
X288110Y127933D02*
Y132657D01*
X275747Y130295D02*
X280472D01*
X278110Y127933D02*
Y132657D01*
X265747Y130295D02*
X270472D01*
X268110Y127933D02*
Y132657D01*
X231063Y128326D02*
X244843D01*
X237953Y121436D02*
Y135216D01*
X351378Y128326D02*
X365158D01*
X358268Y121436D02*
Y135216D01*
X231063Y15748D02*
X244843D01*
X237953Y8858D02*
Y22638D01*
X351378Y15748D02*
X365158D01*
X358268Y8858D02*
Y22638D01*
X129302Y194843D02*
X132902D01*
X131102Y193043D02*
Y196642D01*
X129302Y204842D02*
X132902D01*
X131102Y203043D02*
Y206643D01*
X129302Y214843D02*
X132902D01*
X131102Y213042D02*
Y216642D01*
X129302Y224843D02*
X132902D01*
X131102Y223042D02*
Y226642D01*
X129302Y234842D02*
X132902D01*
X131102Y233043D02*
Y236643D01*
X129302Y244843D02*
X132902D01*
X131102Y243042D02*
Y246642D01*
X129302Y254842D02*
X132902D01*
X131102Y253043D02*
Y256643D01*
X129302Y264843D02*
X132902D01*
X131102Y263042D02*
Y266642D01*
X176102Y199843D02*
X186102D01*
X181102Y194843D02*
Y204842D01*
X176102Y259842D02*
X186102D01*
X181102Y254842D02*
Y264843D01*
X281102Y259056D02*
X285826D01*
X283464Y256694D02*
Y261418D01*
X281102Y283465D02*
X285827D01*
X283465Y281102D02*
Y285827D01*
X262597Y270866D02*
X267322D01*
X264960Y268504D02*
Y273228D01*
X289746Y169134D02*
X293246D01*
X291496Y167384D02*
Y170884D01*
X279746Y169134D02*
X283246D01*
X281496Y167384D02*
Y170884D01*
X289746Y179134D02*
X293246D01*
X291496Y177384D02*
Y180884D01*
X279746Y179134D02*
X283246D01*
X281496Y177384D02*
Y180884D01*
X289746Y189134D02*
X293246D01*
X291496Y187384D02*
Y190884D01*
X279746Y189134D02*
X283246D01*
X281496Y187384D02*
Y190884D01*
X177541Y283465D02*
X181041D01*
X179291Y281715D02*
Y285215D01*
X167541Y283465D02*
X171041D01*
X169291Y281715D02*
Y285215D01*
X157541Y283465D02*
X161041D01*
X159291Y281715D02*
Y285215D01*
X147541Y283465D02*
X151041D01*
X149291Y281715D02*
Y285215D01*
X137541Y283465D02*
X141041D01*
X139291Y281715D02*
Y285215D01*
X344707Y201102D02*
X348207D01*
X346457Y199352D02*
Y202852D01*
X344707Y191102D02*
X348207D01*
X346457Y189352D02*
Y192852D01*
X344707Y181102D02*
X348207D01*
X346457Y179352D02*
Y182852D01*
X344707Y171102D02*
X348207D01*
X346457Y169352D02*
Y172852D01*
X344707Y161102D02*
X348207D01*
X346457Y159352D02*
Y162852D01*
X60179Y38307D02*
X63679D01*
X61929Y36557D02*
Y40057D01*
X60179Y48307D02*
X63679D01*
X61929Y46557D02*
Y50057D01*
X70179Y38307D02*
X73679D01*
X71929Y36557D02*
Y40057D01*
X70179Y48307D02*
X73679D01*
X71929Y46557D02*
Y50057D01*
X37796Y45276D02*
X40945D01*
X39371Y43701D02*
Y46851D01*
X37796Y35434D02*
X40945D01*
X39371Y33859D02*
Y37008D01*
X37796Y25591D02*
X40945D01*
X39371Y24016D02*
Y27166D01*
X272835Y234252D02*
X279921D01*
X276378Y230709D02*
Y237795D01*
X254331Y234252D02*
X261417D01*
X257874Y230709D02*
Y237795D01*
X235827Y234252D02*
X242913D01*
X239370Y230709D02*
Y237795D01*
X230484Y168976D02*
X234084D01*
X232283Y167176D02*
Y170776D01*
X230484Y178976D02*
X234084D01*
X232283Y177176D02*
Y180776D01*
X230484Y188976D02*
X234084D01*
X232283Y187176D02*
Y190776D01*
X192717Y273051D02*
X200985D01*
X196851Y268917D02*
Y277185D01*
X247834Y273051D02*
X256102D01*
X251968Y268917D02*
Y277185D01*
X236023Y262382D02*
X240354D01*
X238189Y260217D02*
Y264548D01*
X226181Y262382D02*
X230512D01*
X228346Y260217D02*
Y264548D01*
X218307Y262382D02*
X222638D01*
X220472Y260217D02*
Y264548D01*
X208465Y262382D02*
X212795D01*
X210630Y260217D02*
Y264548D01*
X211400Y197000D02*
X212600D01*
X212000Y196400D02*
Y197600D01*
X199400Y197000D02*
X200600D01*
X200000Y196400D02*
Y197600D01*
X211400Y211000D02*
X212600D01*
X212000Y210400D02*
Y211600D01*
X199400Y211000D02*
X200600D01*
X200000Y210400D02*
Y211600D01*
X211400Y224000D02*
X212600D01*
X212000Y223400D02*
Y224600D01*
X199400Y224000D02*
X200600D01*
X200000Y223400D02*
Y224600D01*
X189439Y98779D02*
X190639D01*
X190039Y98180D02*
Y99379D01*
X59439Y69779D02*
X60639D01*
X60039Y69179D02*
Y70380D01*
X59439Y139779D02*
X60639D01*
X60039Y139180D02*
Y140380D01*
X59439Y170780D02*
X60639D01*
X60039Y170179D02*
Y171379D01*
X103439Y192780D02*
X104639D01*
X104039Y192180D02*
Y193379D01*
X90439Y192780D02*
X91639D01*
X91039Y192180D02*
Y193379D01*
X90439Y205780D02*
X91639D01*
X91039Y205180D02*
Y206380D01*
X76439Y205780D02*
X77639D01*
X77039Y205180D02*
Y206380D01*
X62439Y205780D02*
X63639D01*
X63039Y205180D02*
Y206380D01*
X299339Y156879D02*
X300539D01*
X299939Y156280D02*
Y157480D01*
X95535Y4769D02*
X96735D01*
X96135Y4169D02*
Y5369D01*
X97168Y13534D02*
X98368D01*
X97768Y12934D02*
Y14134D01*
X100299Y21882D02*
X101499D01*
X100899Y21283D02*
Y22482D01*
X104832Y29560D02*
X106032D01*
X105432Y28960D02*
Y30160D01*
X110629Y36334D02*
X111829D01*
X111229Y35734D02*
Y36934D01*
X117514Y41999D02*
X118714D01*
X118114Y41399D02*
Y42599D01*
X125278Y46381D02*
X126479D01*
X125879Y45781D02*
Y46981D01*
X133686Y49349D02*
X134886D01*
X134286Y48749D02*
Y49949D01*
X142481Y50812D02*
X143681D01*
X143081Y50212D02*
Y51412D01*
X151397Y50726D02*
X152596D01*
X151997Y50126D02*
Y51326D01*
X160161Y49092D02*
X161362D01*
X160761Y48492D02*
Y49692D01*
X168510Y45961D02*
X169710D01*
X169110Y45362D02*
Y46562D01*
X176187Y41429D02*
X177387D01*
X176787Y40829D02*
Y42029D01*
X182961Y35632D02*
X184161D01*
X183561Y35032D02*
Y36232D01*
X188626Y28746D02*
X189826D01*
X189226Y28146D02*
Y29346D01*
X193009Y20982D02*
X194209D01*
X193609Y20382D02*
Y21582D01*
X195976Y12575D02*
X197177D01*
X196576Y11975D02*
Y13175D01*
X197439Y3779D02*
X198639D01*
X198039Y3179D02*
Y4380D01*
X149939Y93779D02*
X151139D01*
X150539Y93180D02*
Y94380D01*
X239939Y199279D02*
X241139D01*
X240539Y198679D02*
Y199880D01*
X292439Y199279D02*
X293639D01*
X293039Y198679D02*
Y199880D01*
X279439Y199279D02*
X280639D01*
X280039Y198679D02*
Y199880D01*
X264439Y199279D02*
X265639D01*
X265039Y198679D02*
Y199880D01*
X252439Y199279D02*
X253639D01*
X253039Y198679D02*
Y199880D01*
X146939Y182280D02*
X148139D01*
X147539Y181679D02*
Y182879D01*
X139939Y187779D02*
X141139D01*
X140539Y187180D02*
Y188380D01*
X76939Y107280D02*
X78139D01*
X77539Y106679D02*
Y107879D01*
X66439Y107280D02*
X67639D01*
X67039Y106679D02*
Y107879D01*
X217939Y67779D02*
X219139D01*
X218539Y67180D02*
Y68379D01*
X217439Y94279D02*
X218639D01*
X218039Y93679D02*
Y94880D01*
X218439Y242779D02*
X219639D01*
X219039Y242179D02*
Y243379D01*
X229439Y242779D02*
X230639D01*
X230039Y242179D02*
Y243379D01*
X10439Y279779D02*
X11639D01*
X11039Y279179D02*
Y280379D01*
X10439Y269171D02*
X11639D01*
X11039Y268571D02*
Y269771D01*
X10439Y258562D02*
X11639D01*
X11039Y257962D02*
Y259162D01*
X10439Y247953D02*
X11639D01*
X11039Y247353D02*
Y248553D01*
X10439Y237345D02*
X11639D01*
X11039Y236745D02*
Y237945D01*
X10439Y226736D02*
X11639D01*
X11039Y226136D02*
Y227336D01*
X10439Y216127D02*
X11639D01*
X11039Y215527D02*
Y216727D01*
X10439Y205519D02*
X11639D01*
X11039Y204919D02*
Y206119D01*
X10439Y194910D02*
X11639D01*
X11039Y194310D02*
Y195510D01*
X10439Y184301D02*
X11639D01*
X11039Y183701D02*
Y184901D01*
X10439Y173693D02*
X11639D01*
X11039Y173092D02*
Y174293D01*
X10439Y163084D02*
X11639D01*
X11039Y162484D02*
Y163684D01*
X10439Y152475D02*
X11639D01*
X11039Y151875D02*
Y153075D01*
X10439Y141866D02*
X11639D01*
X11039Y141266D02*
Y142466D01*
X10439Y131258D02*
X11639D01*
X11039Y130658D02*
Y131858D01*
X10439Y120649D02*
X11639D01*
X11039Y120049D02*
Y121249D01*
X10439Y110040D02*
X11639D01*
X11039Y109440D02*
Y110640D01*
X10439Y99432D02*
X11639D01*
X11039Y98832D02*
Y100032D01*
X10439Y88823D02*
X11639D01*
X11039Y88223D02*
Y89423D01*
X10439Y78214D02*
X11639D01*
X11039Y77614D02*
Y78814D01*
X10439Y67606D02*
X11639D01*
X11039Y67006D02*
Y68206D01*
X10439Y56997D02*
X11639D01*
X11039Y56397D02*
Y57597D01*
X10439Y46388D02*
X11639D01*
X11039Y45788D02*
Y46988D01*
X10439Y35780D02*
X11639D01*
X11039Y35179D02*
Y36380D01*
X59439Y89280D02*
X60639D01*
X60039Y88679D02*
Y89880D01*
X59439Y123779D02*
X60639D01*
X60039Y123179D02*
Y124380D01*
X59439Y157780D02*
X60639D01*
X60039Y157179D02*
Y158379D01*
X59439Y191779D02*
X60639D01*
X60039Y191180D02*
Y192379D01*
X108939Y241280D02*
X110139D01*
X109539Y240680D02*
Y241880D01*
X105439Y241280D02*
X106639D01*
X106039Y240680D02*
Y241880D01*
X101939Y241280D02*
X103139D01*
X102539Y240680D02*
Y241880D01*
X98439Y241280D02*
X99639D01*
X99039Y240680D02*
Y241880D01*
X324539Y276379D02*
X325739D01*
X325139Y275780D02*
Y276979D01*
X153439Y135780D02*
X154639D01*
X154039Y135179D02*
Y136380D01*
X153439Y130780D02*
X154639D01*
X154039Y130180D02*
Y131379D01*
X153439Y125779D02*
X154639D01*
X154039Y125180D02*
Y126380D01*
X168439Y125779D02*
X169639D01*
X169039Y125180D02*
Y126380D01*
X168439Y130780D02*
X169639D01*
X169039Y130180D02*
Y131379D01*
X168439Y135780D02*
X169639D01*
X169039Y135179D02*
Y136380D01*
X168439Y142780D02*
X169639D01*
X169039Y142180D02*
Y143379D01*
X162439Y142780D02*
X163639D01*
X163039Y142180D02*
Y143379D01*
X140739Y151779D02*
X141939D01*
X141339Y151180D02*
Y152380D01*
X177439Y154780D02*
X178639D01*
X178039Y154180D02*
Y155379D01*
X174839Y165380D02*
X176039D01*
X175439Y164779D02*
Y165980D01*
X184139Y107980D02*
X185339D01*
X184739Y107379D02*
Y108580D01*
X151539Y102480D02*
X152739D01*
X152139Y101880D02*
Y103079D01*
X159539Y102480D02*
X160739D01*
X160139Y101880D02*
Y103079D01*
X142939Y111179D02*
X144139D01*
X143539Y110580D02*
Y111779D01*
X128239Y117379D02*
X129439D01*
X128839Y116779D02*
Y117980D01*
X142239Y165380D02*
X143439D01*
X142839Y164779D02*
Y165980D01*
X139439Y168879D02*
X140639D01*
X140039Y168280D02*
Y169480D01*
X277339Y101779D02*
X278539D01*
X277939Y101180D02*
Y102380D01*
X87285Y42734D02*
X89685D01*
X88485Y41534D02*
Y43934D01*
X177439Y150279D02*
X178639D01*
X178039Y149680D02*
Y150880D01*
X200639Y138779D02*
X201839D01*
X201239Y138180D02*
Y139380D01*
X196189Y139180D02*
X197389D01*
X196789Y138579D02*
Y139779D01*
X189239Y144379D02*
X190439D01*
X189839Y143780D02*
Y144980D01*
X163239Y172580D02*
X164439D01*
X163839Y171979D02*
Y173179D01*
X166439Y156780D02*
X167639D01*
X167039Y156179D02*
Y157379D01*
X156470Y142780D02*
X157670D01*
X157070Y142180D02*
Y143380D01*
X92939Y99480D02*
X94139D01*
X93539Y98879D02*
Y100080D01*
X109639Y89579D02*
X110839D01*
X110239Y88980D02*
Y90180D01*
X101839Y266079D02*
X104239D01*
X103039Y264879D02*
Y267280D01*
X105439Y266079D02*
X107839D01*
X106639Y264879D02*
Y267280D01*
X101839Y262479D02*
X104239D01*
X103039Y261280D02*
Y263680D01*
X105439Y262479D02*
X107839D01*
X106639Y261280D02*
Y263680D01*
X79339Y266079D02*
X81739D01*
X80539Y264879D02*
Y267280D01*
X82939Y266079D02*
X85339D01*
X84139Y264879D02*
Y267280D01*
X79339Y262479D02*
X81739D01*
X80539Y261280D02*
Y263680D01*
X82939Y262479D02*
X85339D01*
X84139Y261280D02*
Y263680D01*
X56739Y266079D02*
X59139D01*
X57939Y264879D02*
Y267280D01*
X60339Y266079D02*
X62739D01*
X61539Y264879D02*
Y267280D01*
X56739Y262479D02*
X59139D01*
X57939Y261280D02*
Y263680D01*
X60339Y262479D02*
X62739D01*
X61539Y261280D02*
Y263680D01*
X37839Y262479D02*
X40239D01*
X39039Y261280D02*
Y263680D01*
X34239Y262479D02*
X36639D01*
X35439Y261280D02*
Y263680D01*
X37839Y266079D02*
X40239D01*
X39039Y264879D02*
Y267280D01*
X34239Y266079D02*
X36639D01*
X35439Y264879D02*
Y267280D01*
X182539Y116680D02*
X183739D01*
X183139Y116079D02*
Y117280D01*
X175439Y116680D02*
X176639D01*
X176039Y116079D02*
Y117280D01*
X143739Y168879D02*
X144939D01*
X144339Y168280D02*
Y169480D01*
X162392Y122780D02*
X163592D01*
X162992Y122179D02*
Y123380D01*
X154639Y172580D02*
X155839D01*
X155239Y171979D02*
Y173179D01*
X150139Y172679D02*
X151339D01*
X150739Y172080D02*
Y173280D01*
X136939Y172679D02*
X138139D01*
X137539Y172080D02*
Y173280D01*
X149439Y131780D02*
X150639D01*
X150039Y131179D02*
Y132379D01*
X113439Y149779D02*
X114639D01*
X114039Y149179D02*
Y150380D01*
X107439Y149779D02*
X108639D01*
X108039Y149179D02*
Y150380D01*
X113439Y154780D02*
X114639D01*
X114039Y154180D02*
Y155379D01*
X101439Y149779D02*
X102639D01*
X102039Y149179D02*
Y150380D01*
X107539Y154780D02*
X108739D01*
X108139Y154180D02*
Y155379D01*
X101439Y154780D02*
X102639D01*
X102039Y154180D02*
Y155379D01*
X96739Y155780D02*
X97939D01*
X97339Y155180D02*
Y156379D01*
X96739Y152279D02*
X97939D01*
X97339Y151680D02*
Y152880D01*
X96739Y148779D02*
X97939D01*
X97339Y148179D02*
Y149380D01*
X88439Y148779D02*
X89639D01*
X89039Y148179D02*
Y149380D01*
X88439Y152279D02*
X89639D01*
X89039Y151680D02*
Y152880D01*
X88439Y155780D02*
X89639D01*
X89039Y155180D02*
Y156379D01*
X114439Y144780D02*
X115639D01*
X115039Y144179D02*
Y145379D01*
X114439Y163279D02*
X115639D01*
X115039Y162680D02*
Y163880D01*
X117939Y168379D02*
X119139D01*
X118539Y167780D02*
Y168980D01*
X124939Y168379D02*
X126139D01*
X125539Y167780D02*
Y168980D01*
X129839Y164579D02*
X131039D01*
X130439Y163979D02*
Y165180D01*
X129839Y158780D02*
X131039D01*
X130439Y158179D02*
Y159379D01*
X133439Y155079D02*
X134639D01*
X134039Y154480D02*
Y155680D01*
X128739Y138680D02*
X129939D01*
X129339Y138080D02*
Y139279D01*
X128239Y145780D02*
X129439D01*
X128839Y145179D02*
Y146379D01*
X113639Y138779D02*
X114839D01*
X114239Y138180D02*
Y139380D01*
X107939Y138279D02*
X109139D01*
X108539Y137680D02*
Y138880D01*
X102939Y135280D02*
X104139D01*
X103539Y134679D02*
Y135880D01*
X96439Y134280D02*
X97639D01*
X97039Y133679D02*
Y134880D01*
X93439Y129780D02*
X94639D01*
X94039Y129180D02*
Y130379D01*
X93439Y124179D02*
X94639D01*
X94039Y123580D02*
Y124779D01*
X100939Y118379D02*
X102139D01*
X101539Y117780D02*
Y118980D01*
X103439Y112779D02*
X104639D01*
X104039Y112180D02*
Y113380D01*
X106039Y106280D02*
X107239D01*
X106639Y105680D02*
Y106879D01*
X111739Y106280D02*
X112939D01*
X112339Y105680D02*
Y106879D01*
X117539Y106280D02*
X118739D01*
X118139Y105680D02*
Y106879D01*
X134539Y130680D02*
X135739D01*
X135139Y130079D02*
Y131280D01*
X129239Y130680D02*
X130439D01*
X129839Y130079D02*
Y131280D01*
X120439Y110280D02*
X121639D01*
X121039Y109679D02*
Y110880D01*
X120439Y114779D02*
X121639D01*
X121039Y114180D02*
Y115380D01*
X123639Y118079D02*
X124839D01*
X124239Y117480D02*
Y118679D01*
X123639Y122280D02*
X124839D01*
X124239Y121679D02*
Y122880D01*
X123639Y126680D02*
X124839D01*
X124239Y126079D02*
Y127279D01*
X123639Y130680D02*
X124839D01*
X124239Y130079D02*
Y131280D01*
X119239Y138680D02*
X120439D01*
X119839Y138080D02*
Y139279D01*
X209439Y77179D02*
X211839D01*
X210639Y75980D02*
Y78379D01*
X209439Y82179D02*
X211839D01*
X210639Y80980D02*
Y83380D01*
X146039Y82880D02*
X148439D01*
X147239Y81679D02*
Y84079D01*
X151439Y82880D02*
X153839D01*
X152639Y81679D02*
Y84079D01*
X338639Y240980D02*
X341039D01*
X339839Y239779D02*
Y242179D01*
X336639Y242980D02*
X337839D01*
X337239Y242379D02*
Y243580D01*
X316139Y236980D02*
X318539D01*
X317339Y235780D02*
Y238179D01*
X320339Y240980D02*
X322739D01*
X321539Y239779D02*
Y242179D01*
X316139Y240980D02*
X318539D01*
X317339Y239779D02*
Y242179D01*
X304139Y236980D02*
X306539D01*
X305339Y235780D02*
Y238179D01*
X304039Y240980D02*
X306439D01*
X305239Y239779D02*
Y242179D01*
X319939Y276880D02*
X321139D01*
X320539Y276279D02*
Y277480D01*
X335539Y248379D02*
X336739D01*
X336139Y247779D02*
Y248979D01*
X335539Y251180D02*
X336739D01*
X336139Y250580D02*
Y251780D01*
X335539Y253979D02*
X336739D01*
X336139Y253380D02*
Y254579D01*
X336639Y256579D02*
X337839D01*
X337239Y255979D02*
Y257179D01*
X315339Y270479D02*
X316539D01*
X315939Y269880D02*
Y271079D01*
X315339Y273180D02*
X316539D01*
X315939Y272580D02*
Y273780D01*
X314739Y276480D02*
X317139D01*
X315939Y275279D02*
Y277679D01*
X338539Y258479D02*
X340939D01*
X339739Y257279D02*
Y259680D01*
M02*
