G04*
G04 #@! TF.GenerationSoftware,Altium Limited,Altium Designer,20.2.8 (258)*
G04*
G04 Layer_Color=16711935*
%FSLAX25Y25*%
%MOIN*%
G70*
G04*
G04 #@! TF.SameCoordinates,8B033AF5-0F56-4633-A6EA-0BBE3F1FE994*
G04*
G04*
G04 #@! TF.FilePolarity,Negative*
G04*
G01*
G75*
%ADD68O,0.06312X0.09068*%
%ADD69C,0.05124*%
%ADD70C,0.07493*%
%ADD71R,0.07493X0.07000*%
%ADD72C,0.07887*%
%ADD73R,0.07887X0.07887*%
%ADD74C,0.06800*%
%ADD75O,0.18910X0.08674*%
%ADD76O,0.08674X0.18910*%
%ADD77C,0.07000*%
%ADD78R,0.07000X0.07000*%
%ADD79R,0.07000X0.07000*%
%ADD80O,0.07690X0.06312*%
%ADD81C,0.10642*%
%ADD82C,0.13005*%
D68*
X314173Y300836D02*
D03*
X339370D02*
D03*
D69*
X125550Y149230D02*
D03*
Y155529D02*
D03*
D70*
X81113Y217469D02*
D03*
X238189Y262382D02*
D03*
X228346D02*
D03*
X220472D02*
D03*
X210630D02*
D03*
D71*
X71113Y217469D02*
D03*
D72*
X328110Y130295D02*
D03*
X318110D02*
D03*
X308110D02*
D03*
X298110D02*
D03*
X288110D02*
D03*
X278110D02*
D03*
D73*
X268110D02*
D03*
D74*
X131102Y194843D02*
D03*
Y204842D02*
D03*
X131102Y214843D02*
D03*
X131102Y224843D02*
D03*
Y234842D02*
D03*
X131102Y244843D02*
D03*
X131102Y254842D02*
D03*
Y264843D02*
D03*
D75*
X283464Y259056D02*
D03*
X283465Y283465D02*
D03*
D76*
X264960Y270866D02*
D03*
D77*
X291496Y169134D02*
D03*
X281496D02*
D03*
X291496Y179134D02*
D03*
X281496D02*
D03*
X291496Y189134D02*
D03*
X179291Y283465D02*
D03*
X169291D02*
D03*
X159291D02*
D03*
X149291D02*
D03*
X346457Y201102D02*
D03*
Y191102D02*
D03*
Y181102D02*
D03*
Y171102D02*
D03*
X61929Y48307D02*
D03*
X71929Y38307D02*
D03*
Y48307D02*
D03*
X232283Y168976D02*
D03*
Y178976D02*
D03*
Y188976D02*
D03*
D78*
X281496Y189134D02*
D03*
X346457Y161102D02*
D03*
D79*
X139291Y283465D02*
D03*
X61929Y38307D02*
D03*
D80*
X39371Y45276D02*
D03*
X39371Y35434D02*
D03*
Y25591D02*
D03*
D81*
X276378Y234252D02*
D03*
X257874D02*
D03*
X239370D02*
D03*
D82*
X196851Y273051D02*
D03*
X251968D02*
D03*
M02*
