G04*
G04 #@! TF.GenerationSoftware,Altium Limited,Altium Designer,20.2.8 (258)*
G04*
G04 Layer_Physical_Order=2*
G04 Layer_Color=16711680*
%FSLAX25Y25*%
%MOIN*%
G70*
G04*
G04 #@! TF.SameCoordinates,8B033AF5-0F56-4633-A6EA-0BBE3F1FE994*
G04*
G04*
G04 #@! TF.FilePolarity,Positive*
G04*
G01*
G75*
%ADD10C,0.02400*%
%ADD12C,0.01000*%
%ADD18C,0.01800*%
%ADD84C,0.19685*%
%ADD85O,0.05512X0.08268*%
%ADD86C,0.04724*%
%ADD87C,0.06693*%
%ADD88R,0.06693X0.06200*%
%ADD89C,0.07087*%
%ADD90R,0.07087X0.07087*%
%ADD91C,0.06000*%
%ADD92C,0.10000*%
%ADD93O,0.18110X0.07874*%
%ADD94O,0.07874X0.18110*%
%ADD95C,0.06200*%
%ADD96R,0.06200X0.06200*%
%ADD97R,0.06200X0.06200*%
%ADD98O,0.06890X0.05512*%
%ADD99C,0.09843*%
%ADD100C,0.12205*%
%ADD101C,0.02400*%
%ADD102C,0.03600*%
G36*
X364197Y313164D02*
X366112Y312583D01*
X367877Y311639D01*
X369424Y310369D01*
X370694Y308822D01*
X371638Y307057D01*
X372219Y305141D01*
X372366Y303642D01*
X372384Y303150D01*
X372384D01*
Y11811D01*
X372405Y11708D01*
X372219Y9819D01*
X371638Y7904D01*
X370694Y6139D01*
X369424Y4591D01*
X367877Y3322D01*
X366112Y2378D01*
X364197Y1797D01*
X362307Y1611D01*
X362205Y1631D01*
X196475D01*
X196365Y4132D01*
X195802Y8414D01*
X194867Y12631D01*
X193568Y16750D01*
X191915Y20741D01*
X189921Y24572D01*
X187600Y28214D01*
X184971Y31641D01*
X182053Y34826D01*
X178868Y37743D01*
X175442Y40373D01*
X171799Y42694D01*
X167968Y44688D01*
X163977Y46341D01*
X159858Y47640D01*
X155641Y48575D01*
X151359Y49138D01*
X147044Y49327D01*
X142729Y49138D01*
X138446Y48575D01*
X134230Y47640D01*
X130110Y46341D01*
X126120Y44688D01*
X122289Y42694D01*
X118646Y40373D01*
X115219Y37743D01*
X112035Y34826D01*
X109117Y31641D01*
X106488Y28214D01*
X104167Y24572D01*
X102173Y20741D01*
X100520Y16750D01*
X99221Y12631D01*
X98286Y8414D01*
X97722Y4132D01*
X97613Y1631D01*
X11811D01*
X11708Y1611D01*
X9819Y1797D01*
X7904Y2378D01*
X6139Y3322D01*
X4591Y4591D01*
X3322Y6139D01*
X2378Y7904D01*
X1797Y9819D01*
X1611Y11708D01*
X1631Y11811D01*
Y303150D01*
X1611Y303252D01*
X1797Y305141D01*
X2378Y307057D01*
X3322Y308822D01*
X4591Y310369D01*
X6139Y311639D01*
X7904Y312583D01*
X9819Y313164D01*
X11708Y313350D01*
X11811Y313329D01*
X362205D01*
X362307Y313350D01*
X364197Y313164D01*
D02*
G37*
%LPC*%
G36*
X179291Y287802D02*
X178169Y287654D01*
X177123Y287221D01*
X176225Y286531D01*
X175535Y285633D01*
X175102Y284587D01*
X174954Y283465D01*
X175102Y282342D01*
X175535Y281296D01*
X176225Y280398D01*
X177123Y279709D01*
X178169Y279275D01*
X179291Y279128D01*
X180414Y279275D01*
X181460Y279709D01*
X182358Y280398D01*
X183047Y281296D01*
X183481Y282342D01*
X183628Y283465D01*
X183481Y284587D01*
X183047Y285633D01*
X182358Y286531D01*
X181460Y287221D01*
X180414Y287654D01*
X179291Y287802D01*
D02*
G37*
G36*
X169291D02*
X168169Y287654D01*
X167123Y287221D01*
X166225Y286531D01*
X165535Y285633D01*
X165102Y284587D01*
X164954Y283465D01*
X165102Y282342D01*
X165535Y281296D01*
X166225Y280398D01*
X167123Y279709D01*
X168169Y279275D01*
X169291Y279128D01*
X170414Y279275D01*
X171460Y279709D01*
X172358Y280398D01*
X173047Y281296D01*
X173481Y282342D01*
X173628Y283465D01*
X173481Y284587D01*
X173047Y285633D01*
X172358Y286531D01*
X171460Y287221D01*
X170414Y287654D01*
X169291Y287802D01*
D02*
G37*
G36*
X159291D02*
X158169Y287654D01*
X157123Y287221D01*
X156225Y286531D01*
X155535Y285633D01*
X155102Y284587D01*
X154954Y283465D01*
X155102Y282342D01*
X155535Y281296D01*
X156225Y280398D01*
X157123Y279709D01*
X158169Y279275D01*
X159291Y279128D01*
X160414Y279275D01*
X161460Y279709D01*
X162358Y280398D01*
X163047Y281296D01*
X163481Y282342D01*
X163628Y283465D01*
X163481Y284587D01*
X163047Y285633D01*
X162358Y286531D01*
X161460Y287221D01*
X160414Y287654D01*
X159291Y287802D01*
D02*
G37*
G36*
X149291D02*
X148169Y287654D01*
X147123Y287221D01*
X146224Y286531D01*
X145535Y285633D01*
X145102Y284587D01*
X144954Y283465D01*
X145102Y282342D01*
X145535Y281296D01*
X146224Y280398D01*
X147123Y279709D01*
X148169Y279275D01*
X149291Y279128D01*
X150414Y279275D01*
X151460Y279709D01*
X152358Y280398D01*
X153047Y281296D01*
X153481Y282342D01*
X153628Y283465D01*
X153481Y284587D01*
X153047Y285633D01*
X152358Y286531D01*
X151460Y287221D01*
X150414Y287654D01*
X149291Y287802D01*
D02*
G37*
G36*
X228346Y266968D02*
X227160Y266812D01*
X226054Y266354D01*
X225104Y265625D01*
X224659Y265046D01*
X224160D01*
X223715Y265625D01*
X222765Y266354D01*
X221659Y266812D01*
X220472Y266968D01*
X219286Y266812D01*
X218180Y266354D01*
X217230Y265625D01*
X216501Y264675D01*
X216043Y263569D01*
X215887Y262382D01*
X216043Y261195D01*
X216501Y260089D01*
X217230Y259140D01*
X218180Y258411D01*
X219286Y257953D01*
X220472Y257797D01*
X221659Y257953D01*
X222765Y258411D01*
X223715Y259140D01*
X224160Y259719D01*
X224659D01*
X225104Y259140D01*
X226054Y258411D01*
X227160Y257953D01*
X228346Y257797D01*
X229533Y257953D01*
X230639Y258411D01*
X231589Y259140D01*
X232318Y260089D01*
X232776Y261195D01*
X232932Y262382D01*
X232776Y263569D01*
X232318Y264675D01*
X231589Y265625D01*
X230639Y266354D01*
X229533Y266812D01*
X228346Y266968D01*
D02*
G37*
G36*
X131102Y269079D02*
X130006Y268934D01*
X128984Y268511D01*
X128107Y267838D01*
X127434Y266961D01*
X127011Y265939D01*
X126866Y264843D01*
X127011Y263746D01*
X127434Y262724D01*
X128107Y261847D01*
X128984Y261174D01*
X130006Y260751D01*
X131102Y260606D01*
X132199Y260751D01*
X133221Y261174D01*
X134098Y261847D01*
X134771Y262724D01*
X135194Y263746D01*
X135339Y264843D01*
X135194Y265939D01*
X134771Y266961D01*
X134098Y267838D01*
X133221Y268511D01*
X132199Y268934D01*
X131102Y269079D01*
D02*
G37*
G36*
X238189Y266968D02*
X237002Y266812D01*
X235896Y266354D01*
X234946Y265625D01*
X234218Y264675D01*
X233759Y263569D01*
X233603Y262382D01*
X233759Y261195D01*
X234218Y260089D01*
X234946Y259140D01*
X235896Y258411D01*
X237002Y257953D01*
X238189Y257797D01*
X239376Y257953D01*
X240482Y258411D01*
X241431Y259140D01*
X242160Y260089D01*
X242618Y261195D01*
X242775Y262382D01*
X242618Y263569D01*
X242160Y264675D01*
X241431Y265625D01*
X240482Y266354D01*
X239376Y266812D01*
X238189Y266968D01*
D02*
G37*
G36*
X288582Y264237D02*
X278346D01*
X277005Y264061D01*
X275755Y263543D01*
X274682Y262720D01*
X273859Y261647D01*
X273341Y260397D01*
X273165Y259056D01*
X273341Y257715D01*
X273859Y256466D01*
X274682Y255392D01*
X275755Y254569D01*
X277005Y254051D01*
X278346Y253875D01*
X288582D01*
X289923Y254051D01*
X291173Y254569D01*
X292246Y255392D01*
X293069Y256466D01*
X293587Y257715D01*
X293763Y259056D01*
X293587Y260397D01*
X293069Y261647D01*
X292246Y262720D01*
X291173Y263543D01*
X289923Y264061D01*
X288582Y264237D01*
D02*
G37*
G36*
X181102Y266073D02*
X179887Y265953D01*
X178718Y265598D01*
X177641Y265023D01*
X176697Y264248D01*
X175922Y263304D01*
X175347Y262227D01*
X174992Y261058D01*
X174872Y259842D01*
X174992Y258627D01*
X175347Y257458D01*
X175922Y256381D01*
X176697Y255437D01*
X177641Y254662D01*
X178718Y254087D01*
X179887Y253732D01*
X181102Y253612D01*
X182318Y253732D01*
X183486Y254087D01*
X184564Y254662D01*
X185508Y255437D01*
X186282Y256381D01*
X186858Y257458D01*
X187213Y258627D01*
X187332Y259842D01*
X187213Y261058D01*
X186858Y262227D01*
X186282Y263304D01*
X185508Y264248D01*
X184564Y265023D01*
X183486Y265598D01*
X182318Y265953D01*
X181102Y266073D01*
D02*
G37*
G36*
X131102Y249079D02*
X130006Y248934D01*
X128984Y248511D01*
X128107Y247838D01*
X127434Y246961D01*
X127011Y245939D01*
X126866Y244843D01*
X127011Y243746D01*
X127434Y242724D01*
X128107Y241847D01*
X128984Y241174D01*
X130006Y240751D01*
X131102Y240606D01*
X132199Y240751D01*
X133221Y241174D01*
X134098Y241847D01*
X134771Y242724D01*
X135194Y243746D01*
X135339Y244843D01*
X135194Y245939D01*
X134771Y246961D01*
X134098Y247838D01*
X133221Y248511D01*
X132199Y248934D01*
X131102Y249079D01*
D02*
G37*
G36*
X131102Y239079D02*
X130006Y238934D01*
X128984Y238511D01*
X128107Y237838D01*
X127434Y236961D01*
X127011Y235939D01*
X126866Y234842D01*
X127011Y233746D01*
X127434Y232724D01*
X128107Y231847D01*
X128984Y231174D01*
X130006Y230751D01*
X131102Y230606D01*
X132199Y230751D01*
X133221Y231174D01*
X134098Y231847D01*
X134771Y232724D01*
X135194Y233746D01*
X135339Y234842D01*
X135194Y235939D01*
X134771Y236961D01*
X134098Y237838D01*
X133221Y238511D01*
X132199Y238934D01*
X131102Y239079D01*
D02*
G37*
G36*
X276378Y240403D02*
X275178Y240285D01*
X274024Y239935D01*
X272961Y239366D01*
X272029Y238601D01*
X271264Y237669D01*
X270695Y236606D01*
X270345Y235452D01*
X270227Y234252D01*
X270345Y233052D01*
X270695Y231898D01*
X271264Y230835D01*
X272029Y229903D01*
X272961Y229138D01*
X274024Y228569D01*
X275178Y228219D01*
X276378Y228101D01*
X277578Y228219D01*
X278732Y228569D01*
X279795Y229138D01*
X280727Y229903D01*
X281492Y230835D01*
X282061Y231898D01*
X282411Y233052D01*
X282529Y234252D01*
X282411Y235452D01*
X282061Y236606D01*
X281492Y237669D01*
X280727Y238601D01*
X279795Y239366D01*
X278732Y239935D01*
X277578Y240285D01*
X276378Y240403D01*
D02*
G37*
G36*
X257874D02*
X256674Y240285D01*
X255520Y239935D01*
X254457Y239366D01*
X253525Y238601D01*
X252760Y237669D01*
X252191Y236606D01*
X251841Y235452D01*
X251723Y234252D01*
X251841Y233052D01*
X252191Y231898D01*
X252760Y230835D01*
X253525Y229903D01*
X254457Y229138D01*
X255520Y228569D01*
X256674Y228219D01*
X257874Y228101D01*
X259074Y228219D01*
X260228Y228569D01*
X261291Y229138D01*
X262223Y229903D01*
X262988Y230835D01*
X263557Y231898D01*
X263907Y233052D01*
X264025Y234252D01*
X263907Y235452D01*
X263557Y236606D01*
X262988Y237669D01*
X262223Y238601D01*
X261291Y239366D01*
X260228Y239935D01*
X259074Y240285D01*
X257874Y240403D01*
D02*
G37*
G36*
X239370D02*
X238170Y240285D01*
X237016Y239935D01*
X235953Y239366D01*
X235021Y238601D01*
X234256Y237669D01*
X233687Y236606D01*
X233337Y235452D01*
X233219Y234252D01*
X233337Y233052D01*
X233687Y231898D01*
X234256Y230835D01*
X235021Y229903D01*
X235953Y229138D01*
X237016Y228569D01*
X238170Y228219D01*
X239370Y228101D01*
X240570Y228219D01*
X241724Y228569D01*
X242787Y229138D01*
X243719Y229903D01*
X244484Y230835D01*
X245053Y231898D01*
X245403Y233052D01*
X245521Y234252D01*
X245403Y235452D01*
X245053Y236606D01*
X244484Y237669D01*
X243719Y238601D01*
X242787Y239366D01*
X241724Y239935D01*
X240570Y240285D01*
X239370Y240403D01*
D02*
G37*
G36*
X131102Y229079D02*
X130006Y228934D01*
X128984Y228511D01*
X128107Y227838D01*
X127434Y226961D01*
X127011Y225939D01*
X126866Y224843D01*
X127011Y223746D01*
X127434Y222724D01*
X128107Y221847D01*
X128984Y221174D01*
X130006Y220751D01*
X131102Y220606D01*
X132199Y220751D01*
X133221Y221174D01*
X134098Y221847D01*
X134771Y222724D01*
X135194Y223746D01*
X135339Y224843D01*
X135194Y225939D01*
X134771Y226961D01*
X134098Y227838D01*
X133221Y228511D01*
X132199Y228934D01*
X131102Y229079D01*
D02*
G37*
G36*
X75660Y221768D02*
X66567D01*
Y213169D01*
X75660D01*
Y221768D01*
D02*
G37*
G36*
X81113Y222054D02*
X79927Y221898D01*
X78821Y221440D01*
X77871Y220711D01*
X77142Y219761D01*
X76684Y218655D01*
X76528Y217469D01*
X76684Y216282D01*
X77142Y215176D01*
X77871Y214226D01*
X78821Y213497D01*
X79927Y213039D01*
X81113Y212883D01*
X82300Y213039D01*
X83406Y213497D01*
X84356Y214226D01*
X85085Y215176D01*
X85543Y216282D01*
X85699Y217469D01*
X85543Y218655D01*
X85085Y219761D01*
X84356Y220711D01*
X83406Y221440D01*
X82300Y221898D01*
X81113Y222054D01*
D02*
G37*
G36*
X131102Y219079D02*
X130006Y218934D01*
X128984Y218511D01*
X128107Y217838D01*
X127434Y216961D01*
X127011Y215939D01*
X126866Y214843D01*
X127011Y213746D01*
X127434Y212724D01*
X128107Y211847D01*
X128984Y211174D01*
X130006Y210751D01*
X131102Y210606D01*
X132199Y210751D01*
X133221Y211174D01*
X134098Y211847D01*
X134771Y212724D01*
X135194Y213746D01*
X135339Y214843D01*
X135194Y215939D01*
X134771Y216961D01*
X134098Y217838D01*
X133221Y218511D01*
X132199Y218934D01*
X131102Y219079D01*
D02*
G37*
G36*
X131102Y209079D02*
X130006Y208934D01*
X128984Y208511D01*
X128107Y207838D01*
X127434Y206961D01*
X127011Y205939D01*
X126866Y204842D01*
X127011Y203746D01*
X127434Y202724D01*
X128107Y201847D01*
X128984Y201174D01*
X130006Y200751D01*
X131102Y200606D01*
X132199Y200751D01*
X133221Y201174D01*
X134098Y201847D01*
X134771Y202724D01*
X135194Y203746D01*
X135339Y204842D01*
X135194Y205939D01*
X134771Y206961D01*
X134098Y207838D01*
X133221Y208511D01*
X132199Y208934D01*
X131102Y209079D01*
D02*
G37*
G36*
X346457Y205439D02*
X345334Y205292D01*
X344288Y204858D01*
X343390Y204169D01*
X342701Y203271D01*
X342267Y202225D01*
X342120Y201102D01*
X342267Y199980D01*
X342701Y198934D01*
X343390Y198036D01*
X344288Y197346D01*
X345334Y196913D01*
X346457Y196765D01*
X347579Y196913D01*
X348625Y197346D01*
X349523Y198036D01*
X350213Y198934D01*
X350646Y199980D01*
X350794Y201102D01*
X350646Y202225D01*
X350213Y203271D01*
X349523Y204169D01*
X348625Y204858D01*
X347579Y205292D01*
X346457Y205439D01*
D02*
G37*
G36*
X181102Y206072D02*
X179887Y205953D01*
X178718Y205598D01*
X177641Y205023D01*
X176697Y204248D01*
X175922Y203304D01*
X175347Y202227D01*
X174992Y201058D01*
X174872Y199843D01*
X174992Y198627D01*
X175347Y197458D01*
X175922Y196381D01*
X176697Y195437D01*
X177641Y194662D01*
X178718Y194087D01*
X179887Y193732D01*
X181102Y193613D01*
X182318Y193732D01*
X183486Y194087D01*
X184564Y194662D01*
X185508Y195437D01*
X186282Y196381D01*
X186858Y197458D01*
X187213Y198627D01*
X187332Y199843D01*
X187213Y201058D01*
X186858Y202227D01*
X186282Y203304D01*
X185508Y204248D01*
X184564Y205023D01*
X183486Y205598D01*
X182318Y205953D01*
X181102Y206072D01*
D02*
G37*
G36*
X131102Y199079D02*
X130006Y198934D01*
X128984Y198511D01*
X128107Y197838D01*
X127434Y196961D01*
X127011Y195939D01*
X126866Y194843D01*
X127011Y193746D01*
X127434Y192724D01*
X128107Y191847D01*
X128984Y191174D01*
X130006Y190751D01*
X131102Y190606D01*
X132199Y190751D01*
X133221Y191174D01*
X134098Y191847D01*
X134771Y192724D01*
X135194Y193746D01*
X135339Y194843D01*
X135194Y195939D01*
X134771Y196961D01*
X134098Y197838D01*
X133221Y198511D01*
X132199Y198934D01*
X131102Y199079D01*
D02*
G37*
G36*
X346457Y195440D02*
X345334Y195292D01*
X344288Y194858D01*
X343390Y194169D01*
X342701Y193271D01*
X342267Y192225D01*
X342120Y191102D01*
X342267Y189980D01*
X342701Y188934D01*
X343390Y188036D01*
X344288Y187346D01*
X345334Y186913D01*
X346457Y186765D01*
X347579Y186913D01*
X348625Y187346D01*
X349523Y188036D01*
X350213Y188934D01*
X350646Y189980D01*
X350794Y191102D01*
X350646Y192225D01*
X350213Y193271D01*
X349523Y194169D01*
X348625Y194858D01*
X347579Y195292D01*
X346457Y195440D01*
D02*
G37*
G36*
X285796Y193434D02*
X277196D01*
Y184834D01*
X285796D01*
Y193434D01*
D02*
G37*
G36*
X291496Y193471D02*
X290373Y193323D01*
X289328Y192890D01*
X288429Y192201D01*
X287740Y191302D01*
X287307Y190256D01*
X287159Y189134D01*
X287307Y188011D01*
X287740Y186965D01*
X288429Y186067D01*
X289328Y185378D01*
X290373Y184944D01*
X291496Y184797D01*
X292619Y184944D01*
X293665Y185378D01*
X294563Y186067D01*
X295252Y186965D01*
X295685Y188011D01*
X295833Y189134D01*
X295685Y190256D01*
X295252Y191302D01*
X294563Y192201D01*
X293665Y192890D01*
X292619Y193323D01*
X291496Y193471D01*
D02*
G37*
G36*
X232283Y193314D02*
X231161Y193166D01*
X230115Y192732D01*
X229794Y192487D01*
X229697Y192441D01*
X229307Y192154D01*
X228616Y191684D01*
X228044Y191347D01*
X227832Y191240D01*
X227650Y191163D01*
X227521Y191119D01*
X227454Y191104D01*
X227353Y191095D01*
X227173Y191043D01*
X226989Y191007D01*
X226945Y190978D01*
X226894Y190963D01*
X226833Y190914D01*
X199036D01*
X198295Y190766D01*
X197666Y190346D01*
X175572Y168252D01*
X175428Y168226D01*
X175417Y168219D01*
X175405Y168217D01*
X175217Y168091D01*
X175026Y167969D01*
X174711Y167667D01*
X174643Y167608D01*
X174635Y167603D01*
X174631Y167599D01*
X174618Y167588D01*
X174600Y167567D01*
X174546Y167537D01*
X174542Y167536D01*
X174021Y167503D01*
X173920Y167503D01*
X173689Y167456D01*
X173457Y167410D01*
X173455Y167408D01*
X173452Y167408D01*
X173317Y167317D01*
X144964D01*
X144844Y167400D01*
X144832Y167403D01*
X144821Y167410D01*
X144599Y167454D01*
X144378Y167503D01*
X143942Y167512D01*
X143852Y167518D01*
X143843Y167520D01*
X143837Y167520D01*
X143821Y167522D01*
X143792Y167520D01*
X143656Y167559D01*
X143608Y167553D01*
X143560Y167563D01*
X143460Y167543D01*
X143448Y167544D01*
X143417Y167534D01*
X143372Y167525D01*
X143345Y167522D01*
X142839Y167623D01*
X141981Y167452D01*
X141253Y166966D01*
X140767Y166238D01*
X140596Y165380D01*
X140767Y164521D01*
X141253Y163793D01*
X141981Y163307D01*
X142839Y163136D01*
X143345Y163237D01*
X143372Y163234D01*
X143417Y163225D01*
X143448Y163215D01*
X143460Y163216D01*
X143560Y163197D01*
X143608Y163206D01*
X143656Y163200D01*
X143737Y163223D01*
X144257Y163256D01*
X144359Y163256D01*
X144590Y163303D01*
X144821Y163349D01*
X144824Y163351D01*
X144826Y163351D01*
X144961Y163442D01*
X173315D01*
X173435Y163359D01*
X173447Y163356D01*
X173457Y163349D01*
X173679Y163305D01*
X173901Y163256D01*
X174337Y163247D01*
X174426Y163241D01*
X174436Y163239D01*
X174442Y163239D01*
X174458Y163237D01*
X174486Y163239D01*
X174623Y163200D01*
X174671Y163206D01*
X174719Y163197D01*
X174819Y163216D01*
X174831Y163215D01*
X174862Y163225D01*
X174907Y163234D01*
X174934Y163237D01*
X175439Y163136D01*
X176298Y163307D01*
X177025Y163793D01*
X177312Y164222D01*
X177333Y164239D01*
X177371Y164264D01*
X177400Y164279D01*
X177408Y164289D01*
X177493Y164345D01*
X177520Y164386D01*
X177558Y164416D01*
X177599Y164489D01*
X177944Y164880D01*
X178015Y164952D01*
X178145Y165148D01*
X178277Y165345D01*
X178277Y165348D01*
X178279Y165350D01*
X178310Y165510D01*
X199839Y187039D01*
X226833D01*
X226894Y186990D01*
X226945Y186975D01*
X226989Y186946D01*
X227173Y186909D01*
X227353Y186857D01*
X227454Y186849D01*
X227521Y186834D01*
X227650Y186790D01*
X227832Y186713D01*
X228025Y186616D01*
X229322Y185788D01*
X229697Y185512D01*
X229794Y185466D01*
X230115Y185220D01*
X231161Y184787D01*
X232283Y184639D01*
X233406Y184787D01*
X234452Y185220D01*
X235350Y185910D01*
X236039Y186808D01*
X236473Y187854D01*
X236621Y188976D01*
X236473Y190099D01*
X236039Y191145D01*
X235350Y192043D01*
X234452Y192732D01*
X233406Y193166D01*
X232283Y193314D01*
D02*
G37*
G36*
X346457Y185440D02*
X345334Y185292D01*
X344288Y184858D01*
X343390Y184169D01*
X342701Y183271D01*
X342267Y182225D01*
X342120Y181102D01*
X342267Y179980D01*
X342701Y178934D01*
X343390Y178036D01*
X344288Y177346D01*
X345334Y176913D01*
X346457Y176765D01*
X347579Y176913D01*
X348625Y177346D01*
X349523Y178036D01*
X350213Y178934D01*
X350646Y179980D01*
X350794Y181102D01*
X350646Y182225D01*
X350213Y183271D01*
X349523Y184169D01*
X348625Y184858D01*
X347579Y185292D01*
X346457Y185440D01*
D02*
G37*
G36*
X291496Y183471D02*
X290373Y183323D01*
X289328Y182890D01*
X288429Y182201D01*
X287740Y181302D01*
X287307Y180256D01*
X287159Y179134D01*
X287307Y178011D01*
X287740Y176965D01*
X288429Y176067D01*
X289328Y175378D01*
X290373Y174944D01*
X291496Y174797D01*
X292619Y174944D01*
X293665Y175378D01*
X294563Y176067D01*
X295252Y176965D01*
X295685Y178011D01*
X295833Y179134D01*
X295685Y180256D01*
X295252Y181302D01*
X294563Y182201D01*
X293665Y182890D01*
X292619Y183323D01*
X291496Y183471D01*
D02*
G37*
G36*
X281496D02*
X280374Y183323D01*
X279328Y182890D01*
X278429Y182201D01*
X277740Y181302D01*
X277307Y180256D01*
X277159Y179134D01*
X277307Y178011D01*
X277740Y176965D01*
X278429Y176067D01*
X279328Y175378D01*
X280374Y174944D01*
X281496Y174797D01*
X282619Y174944D01*
X283665Y175378D01*
X284563Y176067D01*
X285252Y176965D01*
X285685Y178011D01*
X285833Y179134D01*
X285685Y180256D01*
X285252Y181302D01*
X284563Y182201D01*
X283665Y182890D01*
X282619Y183323D01*
X281496Y183471D01*
D02*
G37*
G36*
X232283Y183314D02*
X231161Y183166D01*
X230115Y182732D01*
X229217Y182043D01*
X228527Y181145D01*
X228094Y180099D01*
X227946Y178976D01*
X228094Y177854D01*
X228527Y176808D01*
X229217Y175910D01*
X230115Y175220D01*
X231161Y174787D01*
X232283Y174639D01*
X233406Y174787D01*
X234452Y175220D01*
X235350Y175910D01*
X236039Y176808D01*
X236473Y177854D01*
X236621Y178976D01*
X236473Y180099D01*
X236039Y181145D01*
X235350Y182043D01*
X234452Y182732D01*
X233406Y183166D01*
X232283Y183314D01*
D02*
G37*
G36*
X150739Y174923D02*
X137539D01*
X136681Y174752D01*
X135953Y174266D01*
X135467Y173538D01*
X135296Y172679D01*
X135467Y171821D01*
X135953Y171093D01*
X136681Y170607D01*
X137539Y170436D01*
X150739D01*
X151598Y170607D01*
X152325Y171093D01*
X152678Y171621D01*
X152830Y171652D01*
X153241Y171611D01*
X153653Y170993D01*
X154381Y170507D01*
X155239Y170336D01*
X163839D01*
X164698Y170507D01*
X165426Y170993D01*
X165912Y171721D01*
X166083Y172580D01*
X165912Y173438D01*
X165426Y174166D01*
X164698Y174652D01*
X163839Y174823D01*
X155239D01*
X154381Y174652D01*
X153653Y174166D01*
X153301Y173638D01*
X153149Y173607D01*
X152738Y173648D01*
X152325Y174266D01*
X151598Y174752D01*
X150739Y174923D01*
D02*
G37*
G36*
X346457Y175440D02*
X345334Y175292D01*
X344288Y174858D01*
X343390Y174169D01*
X342701Y173271D01*
X342267Y172225D01*
X342120Y171102D01*
X342267Y169980D01*
X342701Y168934D01*
X343390Y168036D01*
X344288Y167346D01*
X345334Y166913D01*
X346457Y166765D01*
X347579Y166913D01*
X348625Y167346D01*
X349523Y168036D01*
X350213Y168934D01*
X350646Y169980D01*
X350794Y171102D01*
X350646Y172225D01*
X350213Y173271D01*
X349523Y174169D01*
X348625Y174858D01*
X347579Y175292D01*
X346457Y175440D01*
D02*
G37*
G36*
X125550Y159122D02*
X124620Y159000D01*
X123754Y158641D01*
X123010Y158070D01*
X122439Y157326D01*
X122080Y156459D01*
X121957Y155529D01*
X122080Y154599D01*
X122439Y153733D01*
X123010Y152989D01*
X123393Y152695D01*
Y152064D01*
X123010Y151770D01*
X122439Y151026D01*
X122080Y150160D01*
X121957Y149230D01*
X122080Y148300D01*
X122439Y147433D01*
X123010Y146689D01*
X123754Y146118D01*
X124620Y145759D01*
X125550Y145637D01*
X126480Y145759D01*
X127347Y146118D01*
X128091Y146689D01*
X128662Y147433D01*
X129021Y148300D01*
X129143Y149230D01*
X129021Y150160D01*
X128662Y151026D01*
X128091Y151770D01*
X127708Y152064D01*
Y152695D01*
X128091Y152989D01*
X128662Y153733D01*
X129021Y154599D01*
X129143Y155529D01*
X129021Y156459D01*
X128662Y157326D01*
X128091Y158070D01*
X127347Y158641D01*
X126480Y159000D01*
X125550Y159122D01*
D02*
G37*
G36*
X299939Y159123D02*
X299081Y158952D01*
X298353Y158466D01*
X297867Y157738D01*
X297696Y156879D01*
X297867Y156021D01*
X298353Y155293D01*
X298756Y155024D01*
X298778Y154976D01*
X298850Y154908D01*
X298905Y154826D01*
X299023Y154747D01*
X299128Y154650D01*
X299220Y154616D01*
X299302Y154561D01*
X299442Y154533D01*
X299575Y154484D01*
X299684Y154466D01*
X299870Y154423D01*
X299916Y154410D01*
X299961Y154393D01*
X299992Y154379D01*
X300010Y154369D01*
X300014Y154367D01*
X300043Y154340D01*
X300223Y154232D01*
X300398Y154115D01*
X300427Y154109D01*
X300452Y154094D01*
X300581Y154075D01*
X316580Y138076D01*
Y136570D01*
X316552Y136507D01*
X316479Y136397D01*
X316471Y136354D01*
X314719Y133722D01*
X314296Y133154D01*
X314248Y133054D01*
X313966Y132687D01*
X313489Y131533D01*
X313362Y130571D01*
X312858D01*
X312731Y131533D01*
X312253Y132687D01*
X311493Y133678D01*
X310502Y134438D01*
X309348Y134916D01*
X308110Y135079D01*
X306872Y134916D01*
X305718Y134438D01*
X304727Y133678D01*
X303966Y132687D01*
X303488Y131533D01*
X303362Y130571D01*
X302858D01*
X302731Y131533D01*
X302253Y132687D01*
X301493Y133678D01*
X300502Y134438D01*
X299348Y134916D01*
X298110Y135079D01*
X296871Y134916D01*
X295718Y134438D01*
X294727Y133678D01*
X293967Y132687D01*
X293489Y131533D01*
X293362Y130571D01*
X292858D01*
X292731Y131533D01*
X292253Y132687D01*
X291493Y133678D01*
X290502Y134438D01*
X289348Y134916D01*
X288110Y135079D01*
X286872Y134916D01*
X285718Y134438D01*
X284727Y133678D01*
X283966Y132687D01*
X283488Y131533D01*
X283362Y130571D01*
X282857D01*
X282731Y131533D01*
X282253Y132687D01*
X281493Y133678D01*
X280502Y134438D01*
X279348Y134916D01*
X278110Y135079D01*
X276871Y134916D01*
X275718Y134438D01*
X274727Y133678D01*
X273966Y132687D01*
X273488Y131533D01*
X273325Y130295D01*
X273488Y129057D01*
X273966Y127903D01*
X274215Y127580D01*
X274253Y127493D01*
X274545Y127084D01*
X274787Y126721D01*
X275195Y126035D01*
X275336Y125757D01*
X275450Y125500D01*
X275531Y125278D01*
X275582Y125095D01*
X275607Y124956D01*
X275618Y124782D01*
X275667Y124601D01*
X275699Y124417D01*
X275728Y124372D01*
X275742Y124321D01*
X275796Y124250D01*
Y102282D01*
X275696Y101779D01*
X275867Y100921D01*
X276353Y100193D01*
X277081Y99707D01*
X277939Y99536D01*
X278798Y99707D01*
X279525Y100193D01*
X279626Y100293D01*
X280112Y101021D01*
X280282Y101880D01*
Y124198D01*
X280335Y124267D01*
X280343Y124295D01*
X280360Y124319D01*
X280405Y124524D01*
X280460Y124728D01*
X280472Y124900D01*
X280497Y125032D01*
X280549Y125208D01*
X280632Y125424D01*
X280749Y125675D01*
X280889Y125936D01*
X281585Y126990D01*
X281876Y127373D01*
X281927Y127478D01*
X282253Y127903D01*
X282731Y129057D01*
X282857Y130019D01*
X283362D01*
X283488Y129057D01*
X283966Y127903D01*
X284727Y126912D01*
X285718Y126152D01*
X286872Y125674D01*
X288110Y125511D01*
X289348Y125674D01*
X290502Y126152D01*
X291493Y126912D01*
X292253Y127903D01*
X292731Y129057D01*
X292858Y130019D01*
X293362D01*
X293489Y129057D01*
X293967Y127903D01*
X294727Y126912D01*
X295718Y126152D01*
X296871Y125674D01*
X298110Y125511D01*
X299348Y125674D01*
X300502Y126152D01*
X301493Y126912D01*
X302253Y127903D01*
X302731Y129057D01*
X302858Y130019D01*
X303362D01*
X303488Y129057D01*
X303966Y127903D01*
X304727Y126912D01*
X305718Y126152D01*
X306872Y125674D01*
X308110Y125511D01*
X309348Y125674D01*
X310502Y126152D01*
X311493Y126912D01*
X312253Y127903D01*
X312731Y129057D01*
X312858Y130019D01*
X313362D01*
X313489Y129057D01*
X313966Y127903D01*
X314727Y126912D01*
X315718Y126152D01*
X316872Y125674D01*
X318110Y125511D01*
X319348Y125674D01*
X320502Y126152D01*
X321493Y126912D01*
X322253Y127903D01*
X322731Y129057D01*
X322858Y130019D01*
X323362D01*
X323488Y129057D01*
X323967Y127903D01*
X324727Y126912D01*
X325718Y126152D01*
X326871Y125674D01*
X328110Y125511D01*
X329348Y125674D01*
X330502Y126152D01*
X331493Y126912D01*
X332253Y127903D01*
X332731Y129057D01*
X332894Y130295D01*
X332731Y131533D01*
X332253Y132687D01*
X331493Y133678D01*
X330502Y134438D01*
X329348Y134916D01*
X328110Y135079D01*
X326871Y134916D01*
X325718Y134438D01*
X324727Y133678D01*
X323967Y132687D01*
X323488Y131533D01*
X323362Y130571D01*
X322858D01*
X322731Y131533D01*
X322253Y132687D01*
X321972Y133054D01*
X321924Y133154D01*
X321489Y133738D01*
X320210Y135534D01*
X319876Y136064D01*
X319804Y136197D01*
X319759Y136300D01*
X319740Y136397D01*
X319667Y136507D01*
X319639Y136570D01*
Y138709D01*
X319523Y139294D01*
X319191Y139791D01*
X302744Y156238D01*
X302725Y156367D01*
X302710Y156392D01*
X302704Y156421D01*
X302587Y156596D01*
X302479Y156776D01*
X302452Y156805D01*
X302450Y156808D01*
X302440Y156826D01*
X302426Y156858D01*
X302409Y156903D01*
X302396Y156948D01*
X302353Y157135D01*
X302335Y157244D01*
X302286Y157377D01*
X302258Y157517D01*
X302203Y157599D01*
X302168Y157691D01*
X302071Y157796D01*
X301993Y157914D01*
X301910Y157968D01*
X301843Y158041D01*
X301795Y158063D01*
X301525Y158466D01*
X300798Y158952D01*
X299939Y159123D01*
D02*
G37*
G36*
X167039Y159023D02*
X166181Y158852D01*
X165453Y158366D01*
X165184Y157963D01*
X165136Y157941D01*
X165068Y157869D01*
X164986Y157814D01*
X164907Y157695D01*
X164810Y157591D01*
X164776Y157499D01*
X164721Y157417D01*
X164693Y157277D01*
X164644Y157144D01*
X164626Y157035D01*
X164583Y156849D01*
X164569Y156803D01*
X164552Y156758D01*
X164539Y156727D01*
X164529Y156708D01*
X164527Y156705D01*
X164500Y156676D01*
X164392Y156496D01*
X164275Y156321D01*
X164269Y156292D01*
X164254Y156267D01*
X164235Y156138D01*
X148958Y140861D01*
X148626Y140365D01*
X148510Y139779D01*
Y134217D01*
X148432Y134112D01*
X148425Y134083D01*
X148409Y134059D01*
X148368Y133852D01*
X148317Y133648D01*
X148315Y133609D01*
X148314Y133605D01*
X148309Y133585D01*
X148296Y133553D01*
X148276Y133509D01*
X148254Y133467D01*
X148152Y133305D01*
X148088Y133216D01*
X148028Y133087D01*
X147949Y132968D01*
X147930Y132871D01*
X147889Y132782D01*
X147884Y132640D01*
X147856Y132500D01*
X147876Y132403D01*
X147872Y132305D01*
X147891Y132254D01*
X147796Y131780D01*
X147967Y130921D01*
X148453Y130193D01*
X149181Y129707D01*
X150039Y129536D01*
X150898Y129707D01*
X151626Y130193D01*
X152112Y130921D01*
X152283Y131780D01*
X152188Y132254D01*
X152207Y132305D01*
X152203Y132403D01*
X152222Y132500D01*
X152195Y132640D01*
X152190Y132782D01*
X152149Y132871D01*
X152129Y132968D01*
X152050Y133087D01*
X151991Y133216D01*
X151927Y133305D01*
X151825Y133467D01*
X151803Y133509D01*
X151783Y133553D01*
X151770Y133585D01*
X151764Y133605D01*
X151763Y133609D01*
X151761Y133648D01*
X151711Y133852D01*
X151670Y134059D01*
X151653Y134083D01*
X151646Y134112D01*
X151569Y134217D01*
Y139146D01*
X154515Y142092D01*
X154932Y141965D01*
X155019Y141889D01*
X155484Y141193D01*
X155865Y140939D01*
X155887Y140890D01*
X155957Y140823D01*
X156010Y140741D01*
X156129Y140659D01*
X156233Y140560D01*
X156323Y140525D01*
X156403Y140470D01*
X156544Y140440D01*
X156678Y140388D01*
X156784Y140370D01*
X156968Y140326D01*
X157012Y140311D01*
X157057Y140294D01*
X157089Y140279D01*
X157109Y140268D01*
X157117Y140263D01*
X157150Y140234D01*
X157320Y140131D01*
X157483Y140017D01*
X157523Y140008D01*
X157558Y139987D01*
X157689Y139967D01*
X159558Y138098D01*
X160054Y137767D01*
X160639Y137650D01*
X194352D01*
X194457Y137573D01*
X194486Y137566D01*
X194510Y137549D01*
X194717Y137508D01*
X194921Y137457D01*
X194960Y137455D01*
X194964Y137455D01*
X194983Y137449D01*
X195016Y137436D01*
X195060Y137416D01*
X195101Y137394D01*
X195264Y137292D01*
X195353Y137228D01*
X195482Y137169D01*
X195600Y137090D01*
X195697Y137070D01*
X195787Y137029D01*
X195929Y137024D01*
X196069Y136996D01*
X196166Y137016D01*
X196264Y137012D01*
X196489Y136848D01*
X196567Y136270D01*
X184606Y124309D01*
X165429D01*
X165324Y124387D01*
X165296Y124394D01*
X165271Y124410D01*
X165065Y124451D01*
X164861Y124502D01*
X164822Y124504D01*
X164818Y124504D01*
X164798Y124510D01*
X164766Y124523D01*
X164722Y124543D01*
X164680Y124565D01*
X164518Y124667D01*
X164428Y124731D01*
X164299Y124791D01*
X164181Y124870D01*
X164084Y124889D01*
X163994Y124930D01*
X163852Y124935D01*
X163713Y124963D01*
X163616Y124943D01*
X163517Y124947D01*
X163467Y124928D01*
X162992Y125023D01*
X162134Y124852D01*
X161406Y124366D01*
X160920Y123638D01*
X160749Y122780D01*
X160920Y121921D01*
X161406Y121193D01*
X162134Y120707D01*
X162992Y120536D01*
X163467Y120631D01*
X163517Y120612D01*
X163616Y120616D01*
X163713Y120597D01*
X163852Y120624D01*
X163994Y120629D01*
X164084Y120670D01*
X164181Y120690D01*
X164299Y120769D01*
X164428Y120828D01*
X164518Y120892D01*
X164680Y120994D01*
X164722Y121016D01*
X164766Y121036D01*
X164798Y121049D01*
X164818Y121055D01*
X164822Y121055D01*
X164861Y121057D01*
X165065Y121108D01*
X165271Y121149D01*
X165296Y121166D01*
X165324Y121173D01*
X165429Y121250D01*
X185239D01*
X185825Y121367D01*
X186321Y121698D01*
X200598Y135975D01*
X200727Y135994D01*
X200752Y136009D01*
X200781Y136015D01*
X200956Y136132D01*
X201136Y136240D01*
X201165Y136267D01*
X201168Y136269D01*
X201186Y136279D01*
X201218Y136293D01*
X201263Y136309D01*
X201308Y136323D01*
X201495Y136366D01*
X201604Y136384D01*
X201737Y136433D01*
X201876Y136461D01*
X201959Y136516D01*
X202051Y136550D01*
X202155Y136647D01*
X202274Y136726D01*
X202328Y136808D01*
X202401Y136876D01*
X202423Y136924D01*
X202825Y137193D01*
X203312Y137921D01*
X203483Y138779D01*
X203312Y139638D01*
X202825Y140366D01*
X202098Y140852D01*
X201239Y141023D01*
X200381Y140852D01*
X199653Y140366D01*
X199386Y139965D01*
X199375Y139963D01*
X199210Y139971D01*
X198894Y140049D01*
X198809Y140117D01*
X198375Y140766D01*
X197648Y141252D01*
X196789Y141423D01*
X196315Y141328D01*
X196264Y141347D01*
X196166Y141343D01*
X196069Y141363D01*
X195929Y141335D01*
X195787Y141330D01*
X195697Y141289D01*
X195600Y141270D01*
X195482Y141191D01*
X195353Y141131D01*
X195264Y141067D01*
X195101Y140965D01*
X195060Y140943D01*
X195016Y140923D01*
X194983Y140910D01*
X194964Y140904D01*
X194960Y140903D01*
X194921Y140902D01*
X194717Y140851D01*
X194510Y140810D01*
X194486Y140794D01*
X194457Y140787D01*
X194352Y140709D01*
X161273D01*
X159866Y142115D01*
X159847Y142244D01*
X159838Y142259D01*
X159835Y142276D01*
X159716Y142463D01*
X159601Y142653D01*
X159576Y142681D01*
X159576Y142682D01*
X159567Y142697D01*
X159555Y142726D01*
X159539Y142769D01*
X159527Y142812D01*
X159488Y142995D01*
X159472Y143102D01*
X159424Y143238D01*
X159398Y143379D01*
X159345Y143461D01*
X159313Y143552D01*
X159217Y143659D01*
X159139Y143780D01*
X159059Y143835D01*
X158994Y143907D01*
X158948Y143929D01*
X158657Y144366D01*
X157961Y144831D01*
X157885Y144918D01*
X157758Y145335D01*
X166398Y153975D01*
X166527Y153994D01*
X166552Y154009D01*
X166581Y154015D01*
X166756Y154132D01*
X166936Y154240D01*
X166965Y154267D01*
X166968Y154269D01*
X166986Y154279D01*
X167018Y154293D01*
X167063Y154309D01*
X167108Y154323D01*
X167295Y154366D01*
X167404Y154384D01*
X167537Y154433D01*
X167677Y154461D01*
X167759Y154516D01*
X167851Y154551D01*
X167955Y154647D01*
X168073Y154726D01*
X168128Y154808D01*
X168201Y154876D01*
X168223Y154924D01*
X168625Y155193D01*
X169112Y155921D01*
X169282Y156780D01*
X169112Y157638D01*
X168625Y158366D01*
X167898Y158852D01*
X167039Y159023D01*
D02*
G37*
G36*
X358268Y139403D02*
X356535Y139266D01*
X354845Y138861D01*
X353239Y138195D01*
X351757Y137287D01*
X350435Y136158D01*
X349307Y134837D01*
X348398Y133355D01*
X347733Y131749D01*
X347327Y130059D01*
X347191Y128326D01*
X347327Y126593D01*
X347733Y124903D01*
X348398Y123297D01*
X349307Y121815D01*
X350435Y120494D01*
X351757Y119365D01*
X353239Y118457D01*
X354845Y117791D01*
X356535Y117386D01*
X358268Y117249D01*
X360000Y117386D01*
X361691Y117791D01*
X363296Y118457D01*
X364778Y119365D01*
X366100Y120494D01*
X367229Y121815D01*
X368137Y123297D01*
X368802Y124903D01*
X369208Y126593D01*
X369344Y128326D01*
X369208Y130059D01*
X368802Y131749D01*
X368137Y133355D01*
X367229Y134837D01*
X366100Y136158D01*
X364778Y137287D01*
X363296Y138195D01*
X361691Y138861D01*
X360000Y139266D01*
X358268Y139403D01*
D02*
G37*
G36*
X237953Y139403D02*
X236220Y139266D01*
X234530Y138860D01*
X232924Y138195D01*
X231442Y137287D01*
X230120Y136158D01*
X228992Y134837D01*
X228083Y133355D01*
X227418Y131749D01*
X227012Y130059D01*
X226876Y128326D01*
X227012Y126593D01*
X227418Y124903D01*
X228083Y123297D01*
X228992Y121815D01*
X230120Y120494D01*
X231442Y119365D01*
X232924Y118457D01*
X234530Y117791D01*
X236220Y117386D01*
X237953Y117249D01*
X239686Y117386D01*
X241376Y117791D01*
X242981Y118457D01*
X244463Y119365D01*
X245785Y120494D01*
X246914Y121815D01*
X247822Y123297D01*
X248487Y124903D01*
X248893Y126593D01*
X249029Y128326D01*
X248893Y130059D01*
X248487Y131749D01*
X247822Y133355D01*
X246914Y134837D01*
X245785Y136158D01*
X244463Y137287D01*
X242981Y138195D01*
X241376Y138860D01*
X239686Y139266D01*
X237953Y139403D01*
D02*
G37*
G36*
X128839Y119623D02*
X127981Y119452D01*
X127253Y118966D01*
X126767Y118238D01*
X126596Y117379D01*
X126767Y116521D01*
X127253Y115793D01*
X127682Y115507D01*
X127699Y115486D01*
X127724Y115448D01*
X127739Y115419D01*
X127749Y115411D01*
X127805Y115326D01*
X127846Y115299D01*
X127876Y115261D01*
X127949Y115220D01*
X128340Y114875D01*
X128412Y114804D01*
X128609Y114673D01*
X128805Y114542D01*
X128808Y114542D01*
X128810Y114540D01*
X128970Y114509D01*
X136870Y106610D01*
X137498Y106190D01*
X138239Y106042D01*
X182615D01*
X182735Y105959D01*
X182747Y105956D01*
X182757Y105949D01*
X182980Y105905D01*
X183201Y105856D01*
X183637Y105847D01*
X183727Y105841D01*
X183736Y105839D01*
X183741Y105839D01*
X183758Y105837D01*
X183786Y105839D01*
X183923Y105800D01*
X183971Y105806D01*
X184019Y105797D01*
X184118Y105816D01*
X184131Y105815D01*
X184162Y105825D01*
X184207Y105834D01*
X184234Y105837D01*
X184739Y105736D01*
X185598Y105907D01*
X186326Y106393D01*
X186812Y107121D01*
X186983Y107980D01*
X186812Y108838D01*
X186326Y109566D01*
X185598Y110052D01*
X184739Y110223D01*
X184234Y110122D01*
X184207Y110125D01*
X184162Y110134D01*
X184131Y110144D01*
X184118Y110143D01*
X184019Y110163D01*
X183971Y110153D01*
X183923Y110159D01*
X183842Y110136D01*
X183321Y110103D01*
X183220Y110103D01*
X182989Y110056D01*
X182757Y110010D01*
X182755Y110008D01*
X182752Y110008D01*
X182617Y109917D01*
X139042D01*
X131711Y117247D01*
X131686Y117391D01*
X131679Y117401D01*
X131676Y117414D01*
X131551Y117602D01*
X131429Y117793D01*
X131127Y118107D01*
X131068Y118176D01*
X131063Y118184D01*
X131059Y118187D01*
X131048Y118201D01*
X131027Y118219D01*
X130958Y118343D01*
X130920Y118373D01*
X130893Y118414D01*
X130808Y118470D01*
X130800Y118480D01*
X130771Y118495D01*
X130733Y118520D01*
X130712Y118537D01*
X130426Y118966D01*
X129698Y119452D01*
X128839Y119623D01*
D02*
G37*
G36*
X160139Y104723D02*
X159664Y104628D01*
X159614Y104647D01*
X159516Y104643D01*
X159419Y104663D01*
X159279Y104635D01*
X159137Y104630D01*
X159047Y104589D01*
X158950Y104569D01*
X158832Y104490D01*
X158703Y104431D01*
X158614Y104367D01*
X158451Y104265D01*
X158410Y104243D01*
X158366Y104223D01*
X158334Y104210D01*
X158314Y104204D01*
X158310Y104203D01*
X158271Y104202D01*
X158066Y104151D01*
X157860Y104110D01*
X157836Y104094D01*
X157807Y104086D01*
X157702Y104009D01*
X154576D01*
X154472Y104086D01*
X154443Y104094D01*
X154419Y104110D01*
X154212Y104151D01*
X154008Y104202D01*
X153969Y104203D01*
X153965Y104204D01*
X153945Y104210D01*
X153913Y104223D01*
X153869Y104243D01*
X153827Y104265D01*
X153665Y104367D01*
X153576Y104431D01*
X153446Y104490D01*
X153328Y104569D01*
X153231Y104589D01*
X153141Y104630D01*
X152999Y104635D01*
X152860Y104663D01*
X152763Y104643D01*
X152664Y104647D01*
X152614Y104628D01*
X152139Y104723D01*
X151281Y104552D01*
X150553Y104066D01*
X150067Y103338D01*
X149896Y102480D01*
X150067Y101621D01*
X150553Y100893D01*
X151281Y100407D01*
X152139Y100236D01*
X152614Y100331D01*
X152664Y100312D01*
X152763Y100316D01*
X152860Y100296D01*
X152999Y100324D01*
X153141Y100329D01*
X153231Y100370D01*
X153328Y100390D01*
X153446Y100469D01*
X153576Y100528D01*
X153665Y100592D01*
X153827Y100694D01*
X153869Y100716D01*
X153913Y100736D01*
X153945Y100749D01*
X153965Y100755D01*
X153969Y100756D01*
X154008Y100757D01*
X154212Y100808D01*
X154419Y100849D01*
X154443Y100865D01*
X154472Y100873D01*
X154576Y100950D01*
X157702D01*
X157807Y100873D01*
X157836Y100865D01*
X157860Y100849D01*
X158066Y100808D01*
X158271Y100757D01*
X158310Y100756D01*
X158314Y100755D01*
X158333Y100749D01*
X158366Y100736D01*
X158410Y100716D01*
X158451Y100694D01*
X158614Y100592D01*
X158703Y100528D01*
X158832Y100469D01*
X158950Y100390D01*
X159047Y100370D01*
X159137Y100329D01*
X159279Y100324D01*
X159419Y100296D01*
X159516Y100316D01*
X159614Y100312D01*
X159664Y100331D01*
X160139Y100236D01*
X160998Y100407D01*
X161725Y100893D01*
X162212Y101621D01*
X162382Y102480D01*
X162212Y103338D01*
X161725Y104066D01*
X160998Y104552D01*
X160139Y104723D01*
D02*
G37*
G36*
X93539Y101723D02*
X92681Y101552D01*
X91953Y101066D01*
X91467Y100338D01*
X91296Y99480D01*
X91467Y98621D01*
X91953Y97893D01*
X101853Y87993D01*
X102581Y87507D01*
X103439Y87336D01*
X110239D01*
X111098Y87507D01*
X111826Y87993D01*
X112312Y88721D01*
X112483Y89579D01*
X112312Y90438D01*
X111826Y91166D01*
X111098Y91652D01*
X110239Y91823D01*
X104368D01*
X95126Y101066D01*
X94398Y101552D01*
X93539Y101723D01*
D02*
G37*
G36*
X71929Y52644D02*
X70807Y52496D01*
X69761Y52063D01*
X68862Y51374D01*
X68173Y50476D01*
X67740Y49430D01*
X67592Y48307D01*
X67740Y47185D01*
X68173Y46139D01*
X68862Y45240D01*
X69761Y44551D01*
X70807Y44118D01*
X71929Y43970D01*
X73052Y44118D01*
X74098Y44551D01*
X74996Y45240D01*
X75685Y46139D01*
X76118Y47185D01*
X76266Y48307D01*
X76118Y49430D01*
X75685Y50476D01*
X74996Y51374D01*
X74098Y52063D01*
X73052Y52496D01*
X71929Y52644D01*
D02*
G37*
G36*
X61929D02*
X60807Y52496D01*
X59761Y52063D01*
X58862Y51374D01*
X58173Y50476D01*
X57740Y49430D01*
X57592Y48307D01*
X57740Y47185D01*
X58173Y46139D01*
X58862Y45240D01*
X59761Y44551D01*
X60807Y44118D01*
X61929Y43970D01*
X63052Y44118D01*
X64098Y44551D01*
X64996Y45240D01*
X65685Y46139D01*
X66118Y47185D01*
X66266Y48307D01*
X66118Y49430D01*
X65685Y50476D01*
X64996Y51374D01*
X64098Y52063D01*
X63052Y52496D01*
X61929Y52644D01*
D02*
G37*
G36*
X66229Y42607D02*
X57629D01*
Y34007D01*
X66229D01*
Y42607D01*
D02*
G37*
G36*
X40060Y39424D02*
X38682D01*
X37649Y39288D01*
X36687Y38889D01*
X35860Y38255D01*
X35226Y37429D01*
X34827Y36466D01*
X34691Y35434D01*
X34827Y34401D01*
X35226Y33439D01*
X35860Y32612D01*
X36687Y31978D01*
X37649Y31580D01*
X38682Y31444D01*
X40060D01*
X41092Y31580D01*
X42055Y31978D01*
X42881Y32612D01*
X43515Y33439D01*
X43914Y34401D01*
X44050Y35434D01*
X43914Y36466D01*
X43515Y37429D01*
X42881Y38255D01*
X42055Y38889D01*
X41092Y39288D01*
X40060Y39424D01*
D02*
G37*
G36*
Y29581D02*
X38682D01*
X37649Y29445D01*
X36687Y29047D01*
X35860Y28413D01*
X35226Y27586D01*
X34827Y26624D01*
X34691Y25591D01*
X34827Y24558D01*
X35226Y23596D01*
X35860Y22770D01*
X36687Y22136D01*
X37649Y21737D01*
X38682Y21601D01*
X40060D01*
X41092Y21737D01*
X42055Y22136D01*
X42881Y22770D01*
X43515Y23596D01*
X43914Y24558D01*
X44050Y25591D01*
X43914Y26624D01*
X43515Y27586D01*
X42881Y28413D01*
X42055Y29047D01*
X41092Y29445D01*
X40060Y29581D01*
D02*
G37*
G36*
X237953Y26825D02*
X236220Y26688D01*
X234530Y26283D01*
X232924Y25617D01*
X231442Y24709D01*
X230120Y23580D01*
X228992Y22259D01*
X228083Y20777D01*
X227418Y19171D01*
X227012Y17481D01*
X226876Y15748D01*
X227012Y14015D01*
X227418Y12325D01*
X228083Y10719D01*
X228992Y9237D01*
X230120Y7916D01*
X231442Y6787D01*
X232924Y5879D01*
X234530Y5213D01*
X236220Y4808D01*
X237953Y4671D01*
X239686Y4808D01*
X241376Y5213D01*
X242981Y5879D01*
X244463Y6787D01*
X245785Y7916D01*
X246914Y9237D01*
X247822Y10719D01*
X248487Y12325D01*
X248893Y14015D01*
X249029Y15748D01*
X248893Y17481D01*
X248487Y19171D01*
X247822Y20777D01*
X246914Y22259D01*
X245785Y23580D01*
X244463Y24709D01*
X242981Y25617D01*
X241376Y26283D01*
X239686Y26688D01*
X237953Y26825D01*
D02*
G37*
%LPD*%
G36*
X230422Y186497D02*
X230014Y186797D01*
X228629Y187682D01*
X228345Y187824D01*
X228086Y187934D01*
X227852Y188013D01*
X227642Y188061D01*
X227457Y188076D01*
Y189876D01*
X227642Y189892D01*
X227852Y189939D01*
X228086Y190018D01*
X228345Y190129D01*
X228629Y190271D01*
X229272Y190650D01*
X230014Y191155D01*
X230422Y191455D01*
Y186497D01*
D02*
G37*
G36*
X177146Y165814D02*
X177050Y165717D01*
X176653Y165266D01*
X176635Y165234D01*
X176627Y165210D01*
X175270Y166568D01*
X175294Y166575D01*
X175326Y166593D01*
X175366Y166620D01*
X175414Y166657D01*
X175535Y166761D01*
X175873Y167086D01*
X177146Y165814D01*
D02*
G37*
G36*
X174719Y164420D02*
X174697Y164431D01*
X174662Y164441D01*
X174614Y164450D01*
X174554Y164458D01*
X174395Y164470D01*
X173926Y164479D01*
Y166279D01*
X174062Y166280D01*
X174662Y166318D01*
X174697Y166328D01*
X174719Y166339D01*
Y164420D01*
D02*
G37*
G36*
X143582Y166328D02*
X143617Y166318D01*
X143665Y166309D01*
X143725Y166301D01*
X143884Y166289D01*
X144353Y166279D01*
Y164479D01*
X144217Y164479D01*
X143617Y164441D01*
X143582Y164431D01*
X143560Y164420D01*
Y166339D01*
X143582Y166328D01*
D02*
G37*
G36*
X301151Y156901D02*
X301213Y156632D01*
X301251Y156509D01*
X301293Y156396D01*
X301340Y156290D01*
X301391Y156193D01*
X301447Y156105D01*
X301508Y156024D01*
X301573Y155953D01*
X300866Y155245D01*
X300795Y155311D01*
X300714Y155372D01*
X300626Y155428D01*
X300529Y155479D01*
X300423Y155526D01*
X300309Y155568D01*
X300187Y155606D01*
X299918Y155668D01*
X299770Y155692D01*
X301127Y157048D01*
X301151Y156901D01*
D02*
G37*
G36*
X318633Y135822D02*
X318703Y135661D01*
X318820Y135446D01*
X319193Y134853D01*
X320500Y133017D01*
X320943Y132423D01*
X315276D01*
X315720Y133017D01*
X317586Y135822D01*
X317610Y135929D01*
X318610D01*
X318633Y135822D01*
D02*
G37*
G36*
X280902Y128113D02*
X280586Y127697D01*
X279838Y126564D01*
X279655Y126224D01*
X279505Y125903D01*
X279389Y125602D01*
X279306Y125319D01*
X279256Y125055D01*
X279239Y124811D01*
X276839Y124861D01*
X276823Y125105D01*
X276776Y125369D01*
X276696Y125653D01*
X276585Y125957D01*
X276442Y126281D01*
X276267Y126626D01*
X275822Y127374D01*
X275552Y127778D01*
X275250Y128203D01*
X280902Y128113D01*
D02*
G37*
G36*
X167208Y155591D02*
X167061Y155568D01*
X166791Y155506D01*
X166669Y155468D01*
X166556Y155426D01*
X166450Y155379D01*
X166353Y155328D01*
X166264Y155272D01*
X166184Y155211D01*
X166112Y155146D01*
X165405Y155853D01*
X165471Y155924D01*
X165531Y156005D01*
X165587Y156093D01*
X165639Y156190D01*
X165686Y156296D01*
X165728Y156410D01*
X165766Y156532D01*
X165828Y156801D01*
X165851Y156948D01*
X167208Y155591D01*
D02*
G37*
G36*
X158282Y142780D02*
X158340Y142511D01*
X158376Y142389D01*
X158417Y142275D01*
X158463Y142169D01*
X158514Y142072D01*
X158569Y141983D01*
X158630Y141902D01*
X158696Y141830D01*
X157974Y141137D01*
X157902Y141203D01*
X157822Y141265D01*
X157733Y141322D01*
X157637Y141374D01*
X157532Y141422D01*
X157419Y141466D01*
X157299Y141504D01*
X157033Y141568D01*
X156888Y141594D01*
X158261Y142928D01*
X158282Y142780D01*
D02*
G37*
G36*
X196069Y138220D02*
X195948Y138307D01*
X195714Y138454D01*
X195601Y138514D01*
X195490Y138565D01*
X195382Y138606D01*
X195278Y138638D01*
X195175Y138661D01*
X195076Y138675D01*
X194978Y138680D01*
Y139680D01*
X195076Y139684D01*
X195175Y139698D01*
X195278Y139721D01*
X195382Y139753D01*
X195490Y139794D01*
X195601Y139845D01*
X195714Y139905D01*
X195948Y140052D01*
X196069Y140139D01*
Y138220D01*
D02*
G37*
G36*
X201408Y137592D02*
X201261Y137568D01*
X200992Y137506D01*
X200869Y137468D01*
X200756Y137426D01*
X200650Y137379D01*
X200553Y137328D01*
X200465Y137272D01*
X200384Y137211D01*
X200312Y137145D01*
X199605Y137853D01*
X199671Y137925D01*
X199731Y138005D01*
X199787Y138093D01*
X199839Y138190D01*
X199886Y138296D01*
X199928Y138409D01*
X199966Y138532D01*
X200027Y138801D01*
X200051Y138949D01*
X201408Y137592D01*
D02*
G37*
G36*
X150544Y133493D02*
X150558Y133394D01*
X150581Y133291D01*
X150613Y133186D01*
X150654Y133079D01*
X150705Y132968D01*
X150765Y132855D01*
X150912Y132621D01*
X150999Y132500D01*
X149080D01*
X149167Y132621D01*
X149314Y132855D01*
X149374Y132968D01*
X149425Y133079D01*
X149466Y133186D01*
X149498Y133291D01*
X149521Y133394D01*
X149535Y133493D01*
X149539Y133590D01*
X150539D01*
X150544Y133493D01*
D02*
G37*
G36*
X163834Y123652D02*
X164068Y123505D01*
X164181Y123445D01*
X164291Y123394D01*
X164399Y123353D01*
X164504Y123321D01*
X164606Y123298D01*
X164706Y123284D01*
X164803Y123280D01*
Y122280D01*
X164706Y122275D01*
X164606Y122261D01*
X164504Y122238D01*
X164399Y122206D01*
X164291Y122165D01*
X164181Y122114D01*
X164068Y122054D01*
X163834Y121907D01*
X163713Y121820D01*
Y123739D01*
X163834Y123652D01*
D02*
G37*
G36*
X130035Y117525D02*
X130053Y117493D01*
X130080Y117453D01*
X130117Y117405D01*
X130221Y117284D01*
X130546Y116946D01*
X129273Y115673D01*
X129176Y115769D01*
X128726Y116166D01*
X128694Y116184D01*
X128670Y116191D01*
X130027Y117549D01*
X130035Y117525D01*
D02*
G37*
G36*
X184019Y107020D02*
X183997Y107031D01*
X183962Y107041D01*
X183914Y107050D01*
X183854Y107058D01*
X183695Y107070D01*
X183226Y107080D01*
Y108879D01*
X183362Y108880D01*
X183962Y108918D01*
X183997Y108928D01*
X184019Y108939D01*
Y107020D01*
D02*
G37*
G36*
X159419Y101520D02*
X159298Y101607D01*
X159064Y101754D01*
X158951Y101814D01*
X158840Y101865D01*
X158732Y101906D01*
X158627Y101938D01*
X158525Y101961D01*
X158425Y101975D01*
X158328Y101979D01*
Y102980D01*
X158425Y102984D01*
X158525Y102998D01*
X158627Y103021D01*
X158732Y103053D01*
X158840Y103094D01*
X158951Y103145D01*
X159064Y103205D01*
X159298Y103352D01*
X159419Y103439D01*
Y101520D01*
D02*
G37*
G36*
X152981Y103352D02*
X153215Y103205D01*
X153328Y103145D01*
X153438Y103094D01*
X153546Y103053D01*
X153651Y103021D01*
X153754Y102998D01*
X153853Y102984D01*
X153950Y102980D01*
Y101979D01*
X153853Y101975D01*
X153754Y101961D01*
X153651Y101938D01*
X153546Y101906D01*
X153438Y101865D01*
X153328Y101814D01*
X153215Y101754D01*
X152981Y101607D01*
X152860Y101520D01*
Y103439D01*
X152981Y103352D01*
D02*
G37*
D10*
X278039Y101880D02*
Y130225D01*
X277939Y101779D02*
X278039Y101880D01*
Y130225D02*
X278110Y130295D01*
X155239Y172580D02*
X163839D01*
X103439Y89579D02*
X110239D01*
X93539Y99480D02*
X103439Y89579D01*
X137539Y172679D02*
X150739D01*
D12*
X318110Y130295D02*
Y138709D01*
X299939Y156879D02*
X318110Y138709D01*
X152139Y102480D02*
X160139D01*
X157070Y142748D02*
Y142780D01*
X160639Y139180D02*
X196789D01*
X157070Y142748D02*
X160639Y139180D01*
X201239Y138779D02*
X201239D01*
X185239Y122780D02*
X201239Y138779D01*
X162992Y122780D02*
X185239D01*
X150039Y139779D02*
X167039Y156780D01*
X150039Y131780D02*
Y139779D01*
D18*
X199036Y188976D02*
X232283D01*
X175439Y165380D02*
X199036Y188976D01*
X142839Y165380D02*
X175439D01*
X128839Y117379D02*
X138239Y107980D01*
X184739D01*
D84*
X15748Y15748D02*
D03*
Y299213D02*
D03*
X358268D02*
D03*
X237953Y128326D02*
D03*
X358268Y128326D02*
D03*
X237953Y15748D02*
D03*
X358268D02*
D03*
D85*
X314173Y300836D02*
D03*
X339370D02*
D03*
D86*
X125550Y149230D02*
D03*
Y155529D02*
D03*
D87*
X81113Y217469D02*
D03*
X238189Y262382D02*
D03*
X228346D02*
D03*
X220472D02*
D03*
X210630D02*
D03*
D88*
X71113Y217469D02*
D03*
D89*
X328110Y130295D02*
D03*
X318110D02*
D03*
X308110D02*
D03*
X298110D02*
D03*
X288110D02*
D03*
X278110D02*
D03*
D90*
X268110D02*
D03*
D91*
X131102Y194843D02*
D03*
Y204842D02*
D03*
X131102Y214843D02*
D03*
X131102Y224843D02*
D03*
Y234842D02*
D03*
X131102Y244843D02*
D03*
X131102Y254842D02*
D03*
Y264843D02*
D03*
D92*
X181102Y199843D02*
D03*
Y259842D02*
D03*
D93*
X283464Y259056D02*
D03*
X283465Y283465D02*
D03*
D94*
X264960Y270866D02*
D03*
D95*
X291496Y169134D02*
D03*
X281496D02*
D03*
X291496Y179134D02*
D03*
X281496D02*
D03*
X291496Y189134D02*
D03*
X179291Y283465D02*
D03*
X169291D02*
D03*
X159291D02*
D03*
X149291D02*
D03*
X346457Y201102D02*
D03*
Y191102D02*
D03*
Y181102D02*
D03*
Y171102D02*
D03*
X61929Y48307D02*
D03*
X71929Y38307D02*
D03*
Y48307D02*
D03*
X232283Y168976D02*
D03*
Y178976D02*
D03*
Y188976D02*
D03*
D96*
X281496Y189134D02*
D03*
X346457Y161102D02*
D03*
D97*
X139291Y283465D02*
D03*
X61929Y38307D02*
D03*
D98*
X39371Y45276D02*
D03*
X39371Y35434D02*
D03*
Y25591D02*
D03*
D99*
X276378Y234252D02*
D03*
X257874D02*
D03*
X239370D02*
D03*
D100*
X196851Y273051D02*
D03*
X251968D02*
D03*
D101*
X212000Y197000D02*
D03*
X200000D02*
D03*
X212000Y211000D02*
D03*
X200000D02*
D03*
X212000Y224000D02*
D03*
X200000D02*
D03*
X190039Y98779D02*
D03*
X60039Y69779D02*
D03*
Y139779D02*
D03*
Y170780D02*
D03*
X104039Y192780D02*
D03*
X91039D02*
D03*
Y205780D02*
D03*
X77039D02*
D03*
X63039D02*
D03*
X299939Y156879D02*
D03*
X96135Y4769D02*
D03*
X97768Y13534D02*
D03*
X100899Y21882D02*
D03*
X105432Y29560D02*
D03*
X111229Y36334D02*
D03*
X118114Y41999D02*
D03*
X125879Y46381D02*
D03*
X134286Y49349D02*
D03*
X143081Y50812D02*
D03*
X151997Y50726D02*
D03*
X160761Y49092D02*
D03*
X169110Y45961D02*
D03*
X176787Y41429D02*
D03*
X183561Y35632D02*
D03*
X189226Y28746D02*
D03*
X193609Y20982D02*
D03*
X196576Y12575D02*
D03*
X198039Y3779D02*
D03*
X150539Y93779D02*
D03*
X240539Y199279D02*
D03*
X293039D02*
D03*
X280039D02*
D03*
X265039D02*
D03*
X253039D02*
D03*
X147539Y182280D02*
D03*
X140539Y187779D02*
D03*
X77539Y107280D02*
D03*
X67039D02*
D03*
X218539Y67779D02*
D03*
X218039Y94279D02*
D03*
X219039Y242779D02*
D03*
X230039D02*
D03*
X11039Y279779D02*
D03*
Y269171D02*
D03*
Y258562D02*
D03*
Y247953D02*
D03*
Y237345D02*
D03*
Y226736D02*
D03*
Y216127D02*
D03*
Y205519D02*
D03*
Y194910D02*
D03*
Y184301D02*
D03*
Y173693D02*
D03*
Y163084D02*
D03*
Y152475D02*
D03*
Y141866D02*
D03*
Y131258D02*
D03*
Y120649D02*
D03*
Y110040D02*
D03*
Y99432D02*
D03*
Y88823D02*
D03*
Y78214D02*
D03*
Y67606D02*
D03*
Y56997D02*
D03*
Y46388D02*
D03*
Y35780D02*
D03*
X60039Y89280D02*
D03*
Y123779D02*
D03*
Y157780D02*
D03*
Y191779D02*
D03*
X109539Y241280D02*
D03*
X106039D02*
D03*
X102539D02*
D03*
X99039D02*
D03*
X325139Y276379D02*
D03*
X154039Y135780D02*
D03*
Y130780D02*
D03*
Y125779D02*
D03*
X169039D02*
D03*
Y130780D02*
D03*
Y135780D02*
D03*
Y142780D02*
D03*
X163039D02*
D03*
X141339Y151779D02*
D03*
X178039Y154780D02*
D03*
X175439Y165380D02*
D03*
X184739Y107980D02*
D03*
X152139Y102480D02*
D03*
X160139D02*
D03*
X143539Y111179D02*
D03*
X128839Y117379D02*
D03*
X142839Y165380D02*
D03*
X140039Y168879D02*
D03*
X277939Y101779D02*
D03*
X178039Y150279D02*
D03*
X201239Y138779D02*
D03*
X196789Y139180D02*
D03*
X189839Y144379D02*
D03*
X163839Y172580D02*
D03*
X167039Y156780D02*
D03*
X157070Y142780D02*
D03*
X93539Y99480D02*
D03*
X110239Y89579D02*
D03*
X183139Y116680D02*
D03*
X176039D02*
D03*
X144339Y168879D02*
D03*
X162992Y122780D02*
D03*
X155239Y172580D02*
D03*
X150739Y172679D02*
D03*
X137539D02*
D03*
X150039Y131780D02*
D03*
X114039Y149779D02*
D03*
X108039D02*
D03*
X114039Y154780D02*
D03*
X102039Y149779D02*
D03*
X108139Y154780D02*
D03*
X102039D02*
D03*
X97339Y155780D02*
D03*
Y152279D02*
D03*
Y148779D02*
D03*
X89039D02*
D03*
Y152279D02*
D03*
Y155780D02*
D03*
X115039Y144780D02*
D03*
Y163279D02*
D03*
X118539Y168379D02*
D03*
X125539D02*
D03*
X130439Y164579D02*
D03*
Y158780D02*
D03*
X134039Y155079D02*
D03*
X129339Y138680D02*
D03*
X128839Y145780D02*
D03*
X114239Y138779D02*
D03*
X108539Y138279D02*
D03*
X103539Y135280D02*
D03*
X97039Y134280D02*
D03*
X94039Y129780D02*
D03*
Y124179D02*
D03*
X101539Y118379D02*
D03*
X104039Y112779D02*
D03*
X106639Y106280D02*
D03*
X112339D02*
D03*
X118139D02*
D03*
X135139Y130680D02*
D03*
X129839D02*
D03*
X121039Y110280D02*
D03*
Y114779D02*
D03*
X124239Y118079D02*
D03*
Y122280D02*
D03*
Y126680D02*
D03*
Y130680D02*
D03*
X119839Y138680D02*
D03*
X337239Y242980D02*
D03*
X320539Y276880D02*
D03*
X336139Y248379D02*
D03*
Y251180D02*
D03*
Y253979D02*
D03*
X337239Y256579D02*
D03*
X315939Y270479D02*
D03*
Y273180D02*
D03*
D102*
X88485Y42734D02*
D03*
X103039Y266079D02*
D03*
X106639D02*
D03*
X103039Y262479D02*
D03*
X106639D02*
D03*
X80539Y266079D02*
D03*
X84139D02*
D03*
X80539Y262479D02*
D03*
X84139D02*
D03*
X57939Y266079D02*
D03*
X61539D02*
D03*
X57939Y262479D02*
D03*
X61539D02*
D03*
X39039D02*
D03*
X35439D02*
D03*
X39039Y266079D02*
D03*
X35439D02*
D03*
X210639Y77179D02*
D03*
Y82179D02*
D03*
X147239Y82880D02*
D03*
X152639D02*
D03*
X339839Y240980D02*
D03*
X317339Y236980D02*
D03*
X321539Y240980D02*
D03*
X317339D02*
D03*
X305339Y236980D02*
D03*
X305239Y240980D02*
D03*
X315939Y276480D02*
D03*
X339739Y258479D02*
D03*
M02*
