M48
;Layer_Color=9474304
;FILE_FORMAT=2:5
INCH,LZ
;TYPE=PLATED
T1F00S00C0.01200
T2F00S00C0.02400
T3F00S00C0.03150
T5F00S00C0.03500
T6F00S00C0.03600
T7F00S00C0.04331
T8F00S00C0.04724
T10F00S00C0.07087
T11F00S00C0.08268
T12F00S00C0.13780
;TYPE=NON_PLATED
T13F00S00C0.10000
%
T01
X0198039Y0003779
X0196576Y0012575
X0193609Y0020982
X0189226Y0028746
X0183561Y0035632
X0176787Y0041429
X016911Y0045961
X0160761Y0049092
X0218539Y0067779
X0151997Y0050726
X0143081Y0050812
X0134286Y0049349
X0125879Y0046381
X0118114Y0041999
X0111229Y0036334
X0105432Y002956
X0100899Y0021882
X0097768Y0013534
X0096135Y0004769
X0060039Y0069779
X0011039Y0067606
Y0056997
Y0046388
Y003578
Y0078214
Y0088823
Y0099432
Y011004
Y0120649
Y0131258
Y0141866
Y0152475
Y0163084
Y0173693
Y0184301
Y019491
Y0205519
Y0216127
Y0226736
X0063039Y020578
X0077039
X0091039
Y019278
X0104039
X0118539Y0168379
X0125539
X0130439Y0164579
Y015878
X0134039Y0155079
X0141339Y0151779
X0142839Y016538
X0144339Y0168879
X0140039
X0137539Y0172679
X0150739
X0147539Y018228
X0140539Y0187779
X0115039Y0163279
X0114039Y015478
Y0149779
X0108039
X0108139Y015478
X0102039
Y0149779
X0097339Y0148779
Y0152279
Y015578
X0089039
Y0152279
Y0148779
X0097039Y013428
X0103539Y013528
X0108539Y0138279
X0114239Y0138779
X0119839Y013868
X0129339
X0128839Y014578
X0115039Y014478
X0124239Y013068
Y012668
Y012228
Y0118079
X0128839Y0117379
X0121039Y0114779
Y011028
X0118139Y010628
X0112339
X0106639
X0104039Y0112779
X0101539Y0118379
X0094039Y0124179
Y012978
X0093539Y009948
X0077539Y010728
X0067039
X0060039Y0123779
Y0139779
Y015778
Y017078
Y0191779
Y008928
X0110239Y0089579
X0150539Y0093779
X0152139Y010248
X0143539Y0111179
X0150039Y013178
X0135139Y013068
X0129839
X0154039Y013078
Y013578
Y0125779
X0162992Y012278
X0169039Y0125779
Y013078
Y013578
Y014278
X0163039
X015707Y014278
X0167039Y015678
X0178039Y015478
Y0150279
X0175439Y016538
X0163839Y017258
X0155239
X0189839Y0144379
X0196789Y013918
X0201239Y0138779
X0183139Y011668
X0176039
X0184739Y010798
X0190039Y0098779
X0218039Y0094279
X0160139Y010248
X0277939Y0101779
X0299939Y0156879
X0293039Y0199279
X0280039
X0265039
X0253039
X0240539
X0212Y0197
X02
Y0211
X0212
Y0224
X02
X0337239Y024298
X0336139Y0248379
Y025118
Y0253979
X0337239Y0256579
X0325139Y0276379
X0320539Y027688
X0315939Y027318
Y0270479
X0230039Y0242779
X0219039
X0109539Y024128
X0106039
X0102539
X0099039
X0011039Y0237345
Y0247953
Y0258562
Y0269171
Y0279779
T02
X0088485Y0042734
X0147239Y008288
X0152639
X0210639Y0082179
Y0077179
X0317339Y023698
Y024098
X0321539
X0339839
X0339739Y0258479
X0315939Y027648
X0305239Y024098
X0305339Y023698
X0106639Y0262479
Y0266079
X0103039
Y0262479
X0084139
Y0266079
X0080539
Y0262479
X0061539
Y0266079
X0057939
Y0262479
X0039039
X0035439
Y0266079
X0039039
T03
X0039371Y0025591
Y0035434
X0039371Y0045276
X012555Y014923
Y0155529
T05
X0061929Y0038307
Y0048307
X0071929
Y0038307
X0281496Y0169134
X0291496
Y0179134
X0281496
Y0189134
X0291496
X0346457Y0191102
Y0201102
Y0181102
Y0171102
Y0161102
X0179291Y0283465
X0169291
X0159291
X0149291
X0139291
T06
X0131102Y0194843
Y0204842
X0131102Y0214843
X0131102Y0224843
X0232283Y0188976
Y0178976
Y0168976
X0131102Y0234842
X0131102Y0244843
X0131102Y0254842
Y0264843
T07
X0126702Y0029448
X0081113Y0217469
X0071113
X021063Y0262382
X0220472
X0228346
X0238189
T08
X026811Y0130295
X027811
X028811
X029811
X030811
X031811
X032811
T10
X023937Y0234252
X0257874
X0276378
T11
X0196851Y0273051
X0251968
T12
X0358268Y0015748
X0237953
X0015748
X0237953Y0128326
X0358268Y0128326
Y0299213
X0015748
T13
X0181102Y0199843
Y0259842
M30
