G04*
G04 #@! TF.GenerationSoftware,Altium Limited,Altium Designer,20.2.8 (258)*
G04*
G04 Layer_Color=8421504*
%FSLAX25Y25*%
%MOIN*%
G70*
G04*
G04 #@! TF.SameCoordinates,8B033AF5-0F56-4633-A6EA-0BBE3F1FE994*
G04*
G04*
G04 #@! TF.FilePolarity,Positive*
G04*
G01*
G75*
%ADD23R,0.09354X0.06329*%
%ADD24R,0.01575X0.05315*%
%ADD25R,0.08268X0.06299*%
%ADD26R,0.03543X0.07874*%
%ADD27R,0.04800X0.05600*%
%ADD28R,0.03150X0.03543*%
%ADD29O,0.01063X0.05906*%
%ADD30O,0.05906X0.01063*%
%ADD31R,0.03740X0.04528*%
%ADD32R,0.05551X0.05315*%
%ADD33R,0.04921X0.02756*%
%ADD34R,0.03402X0.03175*%
%ADD35R,0.05421X0.04459*%
%ADD36R,0.03937X0.05906*%
%ADD37O,0.07678X0.02238*%
%ADD38R,0.03543X0.03150*%
%ADD39R,0.05315X0.05551*%
%ADD40R,0.03543X0.03937*%
%ADD41R,0.03175X0.03402*%
%ADD42R,0.07874X0.07874*%
%ADD43R,0.04134X0.09705*%
%ADD44R,0.13937X0.09705*%
G36*
X113556Y302424D02*
Y297896D01*
X113359Y297699D01*
X111745Y297679D01*
X111745Y299451D01*
X109973D01*
X109973Y297719D01*
X108320Y297699D01*
X108123Y297896D01*
X108123Y302424D01*
X108320Y302621D01*
X113359Y302621D01*
X113556Y302424D01*
D02*
G37*
G36*
X90956Y302424D02*
Y297896D01*
X90759Y297699D01*
X89145Y297679D01*
X89145Y299451D01*
X87373Y299451D01*
X87373Y297719D01*
X85720Y297699D01*
X85523Y297896D01*
X85523Y302424D01*
X85720Y302621D01*
X90759D01*
X90956Y302424D01*
D02*
G37*
G36*
X45856Y302424D02*
Y297896D01*
X45659Y297699D01*
X44045Y297679D01*
Y299451D01*
X42273D01*
Y297719D01*
X40620Y297699D01*
X40423Y297896D01*
X40423Y302424D01*
X40620Y302621D01*
X45659D01*
X45856Y302424D01*
D02*
G37*
G36*
X68456Y302424D02*
Y297896D01*
X68259Y297699D01*
X66645Y297679D01*
X66645Y299451D01*
X64873D01*
X64873Y297719D01*
X63220Y297699D01*
X63023Y297896D01*
Y302424D01*
X63220Y302621D01*
X68259Y302621D01*
X68456Y302424D01*
D02*
G37*
G36*
X340433Y304783D02*
X341062Y304420D01*
X341575Y303907D01*
X341938Y303278D01*
X342126Y302577D01*
Y302215D01*
Y299459D01*
Y299096D01*
X341938Y298395D01*
X341575Y297766D01*
X341062Y297253D01*
X340433Y296890D01*
X339733Y296703D01*
X339007D01*
X338306Y296890D01*
X337678Y297253D01*
X337164Y297766D01*
X336802Y298395D01*
X336614Y299096D01*
Y299459D01*
Y302215D01*
Y302577D01*
X336802Y303278D01*
X337164Y303907D01*
X337678Y304420D01*
X338306Y304783D01*
X339007Y304970D01*
X339733D01*
X340433Y304783D01*
D02*
G37*
G36*
X315237D02*
X315866Y304420D01*
X316379Y303907D01*
X316742Y303278D01*
X316930Y302577D01*
Y302215D01*
Y299459D01*
Y299096D01*
X316742Y298395D01*
X316379Y297766D01*
X315866Y297253D01*
X315237Y296890D01*
X314536Y296703D01*
X313811D01*
X313110Y296890D01*
X312481Y297253D01*
X311968Y297766D01*
X311606Y298395D01*
X311418Y299096D01*
Y299459D01*
Y302215D01*
Y302577D01*
X311606Y303278D01*
X311968Y303907D01*
X312481Y304420D01*
X313110Y304783D01*
X313811Y304970D01*
X314536D01*
X315237Y304783D01*
D02*
G37*
G36*
X113556Y293959D02*
X113556Y289432D01*
X113359Y289235D01*
X108320Y289235D01*
X108123Y289432D01*
X108123Y293959D01*
X108320Y294156D01*
X109973Y294156D01*
X109973Y292404D01*
X111745D01*
X111745Y294136D01*
X113359Y294156D01*
X113556Y293959D01*
D02*
G37*
G36*
X90956Y293959D02*
Y289432D01*
X90759Y289235D01*
X85720D01*
X85523Y289432D01*
X85523Y293959D01*
X85720Y294156D01*
X87373Y294156D01*
Y292404D01*
X89145D01*
X89145Y294136D01*
X90759Y294156D01*
X90956Y293959D01*
D02*
G37*
G36*
X64873Y294156D02*
Y292404D01*
X66645D01*
Y294136D01*
X68259Y294156D01*
X68456Y293959D01*
X68456Y289432D01*
X68259Y289235D01*
X63220Y289235D01*
X63023Y289432D01*
X63023Y293959D01*
X63220Y294156D01*
X64873Y294156D01*
D02*
G37*
G36*
X42273D02*
Y292404D01*
X44045Y292404D01*
Y294136D01*
X45659Y294156D01*
X45856Y293959D01*
X45856Y289432D01*
X45659Y289235D01*
X40620D01*
X40423Y289432D01*
Y293959D01*
X40620Y294156D01*
X42273Y294156D01*
D02*
G37*
G36*
X343110Y287057D02*
X334842D01*
Y293356D01*
X343110D01*
Y287057D01*
D02*
G37*
G36*
X332677D02*
X331102D01*
Y292372D01*
X332677D01*
Y287057D01*
D02*
G37*
G36*
X330118D02*
X328543D01*
Y292372D01*
X330118D01*
Y287057D01*
D02*
G37*
G36*
X327559D02*
X325984D01*
Y292372D01*
X327559D01*
Y287057D01*
D02*
G37*
G36*
X325000D02*
X323425D01*
Y292372D01*
X325000D01*
Y287057D01*
D02*
G37*
G36*
X322441D02*
X320866D01*
Y292372D01*
X322441D01*
Y287057D01*
D02*
G37*
G36*
X318701D02*
X310433D01*
Y293356D01*
X318701D01*
Y287057D01*
D02*
G37*
G36*
X67982Y286465D02*
X68179Y286268D01*
X68179Y281229D01*
X67982Y281032D01*
X63454Y281032D01*
X63258Y281229D01*
X63238Y282843D01*
X65009Y282843D01*
Y284615D01*
X63277D01*
X63258Y286268D01*
X63454Y286465D01*
X67982Y286465D01*
D02*
G37*
G36*
X59714Y286268D02*
X59714Y284615D01*
X57962D01*
X57962Y282843D01*
X59694Y282843D01*
X59714Y281229D01*
X59517Y281032D01*
X54990Y281032D01*
X54793Y281229D01*
Y286268D01*
X54990Y286465D01*
X59517Y286465D01*
X59714Y286268D01*
D02*
G37*
G36*
X113137Y286465D02*
X113334Y286268D01*
Y281229D01*
X113137Y281032D01*
X108609D01*
X108413Y281229D01*
X108393Y282843D01*
X110165D01*
Y284615D01*
X108432D01*
X108413Y286268D01*
X108609Y286465D01*
X113137Y286465D01*
D02*
G37*
G36*
X104869Y286268D02*
X104869Y284615D01*
X103117D01*
X103117Y282843D01*
X104850Y282843D01*
X104869Y281229D01*
X104673Y281032D01*
X100145D01*
X99948Y281229D01*
Y286268D01*
X100145Y286465D01*
X104673D01*
X104869Y286268D01*
D02*
G37*
G36*
X90537Y286465D02*
X90734Y286268D01*
X90734Y281229D01*
X90537Y281032D01*
X86010D01*
X85813Y281229D01*
X85793Y282843D01*
X87565D01*
X87565Y284615D01*
X85832Y284615D01*
X85813Y286268D01*
X86010Y286465D01*
X90537Y286465D01*
D02*
G37*
G36*
X82269Y286268D02*
X82269Y284615D01*
X80517D01*
X80517Y282843D01*
X82250Y282843D01*
X82269Y281229D01*
X82073Y281032D01*
X77545D01*
X77348Y281229D01*
X77348Y286268D01*
X77545Y286465D01*
X82073D01*
X82269Y286268D01*
D02*
G37*
G36*
X45437Y286365D02*
X45634Y286168D01*
X45634Y281129D01*
X45437Y280932D01*
X40909Y280932D01*
X40713Y281129D01*
X40693Y282743D01*
X42465D01*
X42465Y284515D01*
X40732Y284515D01*
X40713Y286168D01*
X40909Y286365D01*
X45437Y286365D01*
D02*
G37*
G36*
X37169Y286168D02*
X37169Y284515D01*
X35417D01*
X35417Y282743D01*
X37150Y282743D01*
X37169Y281129D01*
X36972Y280932D01*
X32445Y280932D01*
X32248Y281129D01*
Y286168D01*
X32445Y286365D01*
X36972D01*
X37169Y286168D01*
D02*
G37*
G36*
X323661Y274114D02*
X323661Y269587D01*
X323465Y269390D01*
X321850Y269370D01*
Y271142D01*
X320079D01*
Y269409D01*
X318425Y269390D01*
X318228Y269587D01*
X318228Y274114D01*
X318425Y274311D01*
X323465D01*
X323661Y274114D01*
D02*
G37*
G36*
X313622Y274311D02*
X313819Y274114D01*
X313819Y269587D01*
X313622Y269390D01*
X312008Y269370D01*
Y271142D01*
X310236D01*
X310236Y269409D01*
X308583Y269390D01*
X308386Y269587D01*
Y274114D01*
X308583Y274311D01*
X313622Y274311D01*
D02*
G37*
G36*
X345453Y269291D02*
Y266142D01*
X345256Y265945D01*
X342106D01*
X341910Y266142D01*
Y267094D01*
X343366D01*
Y268394D01*
X341910D01*
Y269291D01*
X342106Y269488D01*
X345256D01*
X345453Y269291D01*
D02*
G37*
G36*
X339154D02*
Y268394D01*
X337658D01*
Y267094D01*
X339154D01*
Y266142D01*
X338957Y265945D01*
X335847D01*
X335650Y266142D01*
Y269291D01*
X335847Y269488D01*
X338957D01*
X339154Y269291D01*
D02*
G37*
G36*
X323661Y265650D02*
X323661Y261122D01*
X323465Y260925D01*
X318425D01*
X318228Y261122D01*
Y265650D01*
X318425Y265846D01*
X320079Y265846D01*
Y264094D01*
X321850Y264094D01*
X321850Y265827D01*
X323465Y265846D01*
X323661Y265650D01*
D02*
G37*
G36*
X313819D02*
X313819Y261122D01*
X313622Y260925D01*
X308583D01*
X308386Y261122D01*
Y265650D01*
X308583Y265846D01*
X310236Y265846D01*
X310236Y264094D01*
X312008D01*
X312008Y265827D01*
X313622Y265846D01*
X313819Y265650D01*
D02*
G37*
G36*
X121011Y256219D02*
Y253069D01*
X120814Y252872D01*
X119861Y252872D01*
X119861Y254329D01*
X118562D01*
Y252872D01*
X117665Y252872D01*
X117468Y253069D01*
Y256219D01*
X117665Y256416D01*
X120814D01*
X121011Y256219D01*
D02*
G37*
G36*
Y249920D02*
Y246809D01*
X120814Y246613D01*
X117665Y246613D01*
X117468Y246809D01*
Y249920D01*
X117665Y250116D01*
X118562Y250116D01*
Y248620D01*
X119861Y248620D01*
X119861Y250116D01*
X120814D01*
X121011Y249920D01*
D02*
G37*
G36*
X227205Y244587D02*
X227205Y240059D01*
X227008Y239862D01*
X225394Y239843D01*
Y241614D01*
X223622D01*
Y239882D01*
X221969Y239862D01*
X221772Y240059D01*
X221772Y244587D01*
X221969Y244784D01*
X227008D01*
X227205Y244587D01*
D02*
G37*
G36*
X82708Y241209D02*
X82708Y236170D01*
X82511Y235973D01*
X77983D01*
X77787Y236170D01*
X77767Y237784D01*
X79539D01*
X79539Y239556D01*
X77806D01*
X77787Y241209D01*
X77983Y241406D01*
X82511Y241406D01*
X82708Y241209D01*
D02*
G37*
G36*
X74243Y241209D02*
X74243Y239556D01*
X72491D01*
X72491Y237784D01*
X74224D01*
X74243Y236170D01*
X74046Y235973D01*
X69519Y235973D01*
X69322Y236170D01*
Y241209D01*
X69519Y241406D01*
X74046Y241406D01*
X74243Y241209D01*
D02*
G37*
G36*
X108488Y238670D02*
X108685Y238473D01*
X108685Y235363D01*
X108488Y235166D01*
X107591Y235166D01*
X107591Y236662D01*
X106291Y236662D01*
X106291Y235166D01*
X105339Y235166D01*
X105142Y235363D01*
Y238473D01*
X105339Y238670D01*
X108488Y238670D01*
D02*
G37*
G36*
X227205Y236122D02*
X227205Y231595D01*
X227008Y231398D01*
X221969D01*
X221772Y231595D01*
Y236122D01*
X221969Y236319D01*
X223622Y236319D01*
Y234567D01*
X225394Y234567D01*
X225394Y236299D01*
X227008Y236319D01*
X227205Y236122D01*
D02*
G37*
G36*
X313819Y238681D02*
X313819Y234154D01*
X313622Y233957D01*
X312008Y233937D01*
Y235709D01*
X310236D01*
Y233976D01*
X308583Y233957D01*
X308386Y234154D01*
X308386Y238681D01*
X308583Y238878D01*
X313622D01*
X313819Y238681D01*
D02*
G37*
G36*
X108685Y232213D02*
Y229064D01*
X108488Y228867D01*
X105339D01*
X105142Y229064D01*
Y232213D01*
X105339Y232410D01*
X106291D01*
Y230954D01*
X107591Y230954D01*
X107591Y232410D01*
X108488D01*
X108685Y232213D01*
D02*
G37*
G36*
X313819Y230217D02*
X313819Y225689D01*
X313622Y225492D01*
X308583D01*
X308386Y225689D01*
Y230217D01*
X308583Y230414D01*
X310236Y230413D01*
Y228661D01*
X312008Y228661D01*
X312008Y230394D01*
X313622Y230414D01*
X313819Y230217D01*
D02*
G37*
G36*
X62430Y229565D02*
X62430Y225037D01*
X62233Y224840D01*
X60619Y224820D01*
X60619Y226592D01*
X58847Y226592D01*
Y224860D01*
X57194Y224840D01*
X56997Y225037D01*
X56997Y229565D01*
X57194Y229762D01*
X62233Y229762D01*
X62430Y229565D01*
D02*
G37*
G36*
X108685Y224273D02*
X108685Y221124D01*
X108488Y220927D01*
X107535D01*
Y222383D01*
X106236D01*
X106236Y220927D01*
X105339D01*
X105142Y221124D01*
Y224273D01*
X105339Y224470D01*
X108488D01*
X108685Y224273D01*
D02*
G37*
G36*
X62430Y221100D02*
X62430Y216572D01*
X62233Y216376D01*
X57194D01*
X56997Y216572D01*
X56997Y221100D01*
X57194Y221297D01*
X58847Y221297D01*
Y219545D01*
X60619D01*
Y221277D01*
X62233Y221297D01*
X62430Y221100D01*
D02*
G37*
G36*
X108685Y217974D02*
X108685Y214864D01*
X108488Y214667D01*
X105339D01*
X105142Y214864D01*
Y217974D01*
X105339Y218171D01*
X106236Y218171D01*
Y216675D01*
X107535D01*
X107535Y218171D01*
X108488D01*
X108685Y217974D01*
D02*
G37*
G36*
X76711Y191332D02*
X76711Y188183D01*
X76514Y187986D01*
X75561D01*
Y189443D01*
X74262D01*
Y187986D01*
X73365D01*
X73168Y188183D01*
Y191332D01*
X73365Y191529D01*
X76514Y191529D01*
X76711Y191332D01*
D02*
G37*
G36*
X76514Y185230D02*
X76711Y185033D01*
Y181923D01*
X76514Y181726D01*
X73365Y181726D01*
X73168Y181923D01*
Y185033D01*
X73365Y185230D01*
X74262Y185230D01*
Y183734D01*
X75561D01*
X75561Y185230D01*
X76514Y185230D01*
D02*
G37*
G36*
X273411Y180853D02*
X273411Y177743D01*
X273214Y177546D01*
X272317Y177546D01*
Y179042D01*
X271017D01*
X271017Y177546D01*
X270064D01*
X269868Y177743D01*
X269868Y180853D01*
X270064Y181050D01*
X273214D01*
X273411Y180853D01*
D02*
G37*
G36*
X302911Y180884D02*
X302911Y177735D01*
X302714Y177538D01*
X301761D01*
Y178995D01*
X300462Y178995D01*
Y177538D01*
X299565D01*
X299368Y177735D01*
Y180884D01*
X299565Y181081D01*
X302714D01*
X302911Y180884D01*
D02*
G37*
G36*
X273411Y174593D02*
Y171444D01*
X273214Y171247D01*
X270064D01*
X269868Y171444D01*
Y174593D01*
X270064Y174790D01*
X271017D01*
Y173334D01*
X272317D01*
Y174790D01*
X273214D01*
X273411Y174593D01*
D02*
G37*
G36*
X302911Y174585D02*
X302911Y171475D01*
X302714Y171278D01*
X299565Y171278D01*
X299368Y171475D01*
Y174585D01*
X299565Y174782D01*
X300462D01*
Y173286D01*
X301761Y173286D01*
Y174782D01*
X302714D01*
X302911Y174585D01*
D02*
G37*
G36*
X76711Y157495D02*
Y154346D01*
X76514Y154149D01*
X75561Y154149D01*
Y155606D01*
X74262Y155606D01*
Y154149D01*
X73365Y154149D01*
X73168Y154346D01*
Y157495D01*
X73365Y157692D01*
X76514D01*
X76711Y157495D01*
D02*
G37*
G36*
X76711Y151196D02*
Y148086D01*
X76514Y147889D01*
X73365D01*
X73168Y148086D01*
X73168Y151196D01*
X73365Y151393D01*
X74262Y151393D01*
Y149897D01*
X75561Y149897D01*
X75561Y151393D01*
X76514D01*
X76711Y151196D01*
D02*
G37*
G36*
Y123658D02*
Y120509D01*
X76514Y120312D01*
X75561Y120312D01*
Y121769D01*
X74262Y121768D01*
X74262Y120312D01*
X73365Y120312D01*
X73168Y120509D01*
Y123658D01*
X73365Y123855D01*
X76514D01*
X76711Y123658D01*
D02*
G37*
G36*
X76711Y117359D02*
X76711Y114249D01*
X76514Y114052D01*
X73365Y114052D01*
X73168Y114249D01*
Y117359D01*
X73365Y117556D01*
X74262D01*
X74262Y116060D01*
X75561Y116060D01*
X75561Y117556D01*
X76514D01*
X76711Y117359D01*
D02*
G37*
G36*
X211674Y103584D02*
X211674Y100435D01*
X211477Y100238D01*
X210524D01*
Y101695D01*
X209225Y101695D01*
Y100238D01*
X208328D01*
X208131Y100435D01*
Y103584D01*
X208328Y103781D01*
X211477D01*
X211674Y103584D01*
D02*
G37*
G36*
X205574D02*
X205574Y100435D01*
X205377Y100238D01*
X204424Y100238D01*
Y101695D01*
X203125Y101695D01*
X203125Y100238D01*
X202228Y100238D01*
X202031Y100435D01*
Y103584D01*
X202228Y103781D01*
X205377Y103781D01*
X205574Y103584D01*
D02*
G37*
G36*
X211674Y97285D02*
X211674Y94175D01*
X211477Y93978D01*
X208328Y93978D01*
X208131Y94175D01*
X208131Y97285D01*
X208328Y97482D01*
X209225Y97482D01*
Y95986D01*
X210524Y95986D01*
Y97482D01*
X211477Y97482D01*
X211674Y97285D01*
D02*
G37*
G36*
X205574Y97285D02*
Y94175D01*
X205377Y93978D01*
X202228Y93978D01*
X202031Y94175D01*
X202031Y97285D01*
X202228Y97482D01*
X203125Y97482D01*
X203125Y95986D01*
X204424Y95986D01*
X204424Y97482D01*
X205377D01*
X205574Y97285D01*
D02*
G37*
G36*
X76711Y89821D02*
Y86672D01*
X76514Y86475D01*
X75561D01*
X75561Y87932D01*
X74262Y87932D01*
Y86475D01*
X73365D01*
X73168Y86672D01*
X73168Y89821D01*
X73365Y90018D01*
X76514Y90018D01*
X76711Y89821D01*
D02*
G37*
G36*
Y83522D02*
Y80412D01*
X76514Y80215D01*
X73365D01*
X73168Y80412D01*
X73168Y83522D01*
X73365Y83719D01*
X74262Y83719D01*
Y82223D01*
X75561Y82223D01*
X75561Y83719D01*
X76514D01*
X76711Y83522D01*
D02*
G37*
D23*
X297244Y225182D02*
D03*
Y239385D02*
D03*
D24*
X331890Y289715D02*
D03*
X329331D02*
D03*
X326772D02*
D03*
X324213D02*
D03*
X321654D02*
D03*
D25*
X314567Y290207D02*
D03*
X338976D02*
D03*
D26*
X164029Y74814D02*
D03*
X159029Y74814D02*
D03*
X154029Y74814D02*
D03*
X149029Y74814D02*
D03*
X144029Y74814D02*
D03*
X139029Y74814D02*
D03*
X134029Y74814D02*
D03*
X129029Y74814D02*
D03*
D27*
X108039Y120780D02*
D03*
X115039D02*
D03*
Y129780D02*
D03*
X108039D02*
D03*
D28*
X158810Y82932D02*
D03*
X164321Y82932D02*
D03*
X142784Y160780D02*
D03*
X148295D02*
D03*
X125506Y141480D02*
D03*
X119995D02*
D03*
Y163279D02*
D03*
X125506D02*
D03*
X115095Y111779D02*
D03*
X109584D02*
D03*
X207791Y67479D02*
D03*
X213302D02*
D03*
D29*
X149213Y149511D02*
D03*
X151182Y149512D02*
D03*
X153150Y149511D02*
D03*
X155119Y149512D02*
D03*
X157087Y149511D02*
D03*
X159056Y149512D02*
D03*
X161024Y149511D02*
D03*
X162993Y149512D02*
D03*
X164961Y149511D02*
D03*
X166930Y149512D02*
D03*
X168898Y149511D02*
D03*
X170867Y149512D02*
D03*
X170866Y116048D02*
D03*
X168897Y116047D02*
D03*
X166929Y116048D02*
D03*
X164960Y116047D02*
D03*
X162992Y116048D02*
D03*
X161023Y116047D02*
D03*
X159055Y116048D02*
D03*
X157086Y116047D02*
D03*
X155118Y116048D02*
D03*
X153149Y116047D02*
D03*
X151181Y116048D02*
D03*
X149212Y116047D02*
D03*
D30*
X176771Y143607D02*
D03*
Y141637D02*
D03*
Y139670D02*
D03*
Y137700D02*
D03*
Y135733D02*
D03*
Y133763D02*
D03*
Y131796D02*
D03*
Y129826D02*
D03*
Y127859D02*
D03*
Y125889D02*
D03*
Y123922D02*
D03*
Y121952D02*
D03*
X143308D02*
D03*
Y123922D02*
D03*
Y125889D02*
D03*
Y127859D02*
D03*
Y129826D02*
D03*
Y131796D02*
D03*
Y133763D02*
D03*
Y135733D02*
D03*
Y137700D02*
D03*
Y139670D02*
D03*
Y141637D02*
D03*
Y143607D02*
D03*
D31*
X69450Y228169D02*
D03*
X82777Y228169D02*
D03*
D32*
X80168Y238769D02*
D03*
X72058Y238769D02*
D03*
X110794Y283828D02*
D03*
X102684D02*
D03*
X80084D02*
D03*
X88194Y283828D02*
D03*
X57529Y283828D02*
D03*
X65639Y283828D02*
D03*
X34984Y283728D02*
D03*
X43095Y283728D02*
D03*
D33*
X92077Y233469D02*
D03*
X99950Y237209D02*
D03*
Y229728D02*
D03*
D34*
X106913Y216603D02*
D03*
X106913Y222534D02*
D03*
Y236734D02*
D03*
Y230803D02*
D03*
X74939Y155756D02*
D03*
X74939Y149825D02*
D03*
X271639Y173183D02*
D03*
Y179114D02*
D03*
X301139Y179145D02*
D03*
Y173214D02*
D03*
X203802Y101845D02*
D03*
X203802Y95914D02*
D03*
X209902Y101845D02*
D03*
Y95914D02*
D03*
X74939Y121919D02*
D03*
Y115988D02*
D03*
X74939Y88082D02*
D03*
Y82151D02*
D03*
X74939Y189593D02*
D03*
Y183662D02*
D03*
X119239Y254480D02*
D03*
Y248549D02*
D03*
D35*
X59713Y226873D02*
D03*
Y219264D02*
D03*
X110839Y292123D02*
D03*
Y299732D02*
D03*
X88239Y292123D02*
D03*
X88239Y299732D02*
D03*
X65739Y292123D02*
D03*
X65739Y299732D02*
D03*
X43139Y292123D02*
D03*
Y299732D02*
D03*
D36*
X88178Y274170D02*
D03*
X76368D02*
D03*
X76368Y254485D02*
D03*
X88178Y254485D02*
D03*
X65611Y274170D02*
D03*
X53801Y274170D02*
D03*
X53801Y254485D02*
D03*
X65611D02*
D03*
X43044Y274170D02*
D03*
X31234D02*
D03*
Y254485D02*
D03*
X43044Y254485D02*
D03*
X110744Y274170D02*
D03*
X98934Y274170D02*
D03*
X98934Y254485D02*
D03*
X110744Y254485D02*
D03*
D37*
X196952Y89679D02*
D03*
Y84680D02*
D03*
Y79680D02*
D03*
Y74679D02*
D03*
X218252Y89679D02*
D03*
Y84680D02*
D03*
Y79680D02*
D03*
Y74679D02*
D03*
D38*
X186239Y150035D02*
D03*
Y144524D02*
D03*
X179539Y108024D02*
D03*
Y113535D02*
D03*
X128839Y122124D02*
D03*
Y127635D02*
D03*
X100039Y129735D02*
D03*
X100039Y124224D02*
D03*
X82639Y48335D02*
D03*
Y42824D02*
D03*
X67839Y155346D02*
D03*
Y149835D02*
D03*
X67839Y121509D02*
D03*
Y115998D02*
D03*
X67839Y87672D02*
D03*
Y82161D02*
D03*
X67839Y189183D02*
D03*
Y183672D02*
D03*
D39*
X311024Y263661D02*
D03*
Y271772D02*
D03*
X320866Y263661D02*
D03*
Y271772D02*
D03*
X224410Y234134D02*
D03*
Y242244D02*
D03*
X311024Y228228D02*
D03*
Y236339D02*
D03*
D40*
X359055Y267717D02*
D03*
X352362D02*
D03*
D41*
X343517D02*
D03*
X337586D02*
D03*
D42*
X58639Y149857D02*
D03*
X30286Y149857D02*
D03*
X58639Y115987D02*
D03*
X30286Y115987D02*
D03*
X58639Y82117D02*
D03*
X30286D02*
D03*
X58639Y183728D02*
D03*
X30286D02*
D03*
D43*
X339764Y250000D02*
D03*
X330709D02*
D03*
X321654D02*
D03*
D44*
X330709Y227500D02*
D03*
M02*
