G04*
G04 #@! TF.GenerationSoftware,Altium Limited,Altium Designer,20.2.8 (258)*
G04*
G04 Layer_Color=32896*
%FSLAX25Y25*%
%MOIN*%
G70*
G04*
G04 #@! TF.SameCoordinates,8B033AF5-0F56-4633-A6EA-0BBE3F1FE994*
G04*
G04*
G04 #@! TF.FilePolarity,Positive*
G04*
G01*
G75*
%ADD11C,0.01200*%
G36*
X248943Y86467D02*
X249665Y86051D01*
X250332Y85690D01*
X250970Y85412D01*
X251248Y85273D01*
X251470Y85190D01*
X251693Y85079D01*
X251887Y85023D01*
X252053Y84968D01*
X252165Y84912D01*
X252220Y84884D01*
X252248D01*
X251859Y82857D01*
X251443Y82996D01*
X251081Y83135D01*
X250721Y83301D01*
X250415Y83440D01*
X250110Y83579D01*
X249860Y83718D01*
X249415Y83968D01*
X249054Y84162D01*
X248832Y84357D01*
X248693Y84468D01*
X248638Y84496D01*
Y71749D01*
X251942D01*
Y69777D01*
X243223D01*
Y71749D01*
X246333D01*
Y86939D01*
X248193D01*
X248943Y86467D01*
D02*
G37*
G36*
X52943Y86467D02*
X53665Y86051D01*
X54331Y85690D01*
X54970Y85412D01*
X55247Y85273D01*
X55470Y85190D01*
X55692Y85079D01*
X55886Y85023D01*
X56053Y84968D01*
X56164Y84912D01*
X56219Y84884D01*
X56247D01*
X55858Y82857D01*
X55442Y82996D01*
X55081Y83135D01*
X54720Y83301D01*
X54414Y83440D01*
X54109Y83579D01*
X53859Y83718D01*
X53415Y83968D01*
X53054Y84162D01*
X52832Y84357D01*
X52693Y84468D01*
X52637Y84496D01*
Y71749D01*
X55942D01*
Y69777D01*
X47222D01*
Y71749D01*
X50332D01*
Y86939D01*
X52193D01*
X52943Y86467D01*
D02*
G37*
G36*
X287877Y87023D02*
X288432Y86939D01*
X288932Y86800D01*
X289349Y86662D01*
X289710Y86495D01*
X289960Y86384D01*
X290126Y86273D01*
X290154Y86245D01*
X290182D01*
X290682Y85856D01*
X291126Y85412D01*
X291487Y84940D01*
X291765Y84468D01*
X291987Y84023D01*
X292070Y83829D01*
X292153Y83662D01*
X292209Y83524D01*
X292237Y83412D01*
X292264Y83357D01*
Y83329D01*
X290043Y82663D01*
X289904Y83079D01*
X289737Y83440D01*
X289571Y83746D01*
X289404Y83996D01*
X289265Y84162D01*
X289154Y84301D01*
X289071Y84384D01*
X289043Y84412D01*
X288765Y84634D01*
X288460Y84773D01*
X288182Y84884D01*
X287905Y84968D01*
X287655Y85023D01*
X287460Y85051D01*
X287294D01*
X286905Y85023D01*
X286572Y84968D01*
X286294Y84884D01*
X286044Y84773D01*
X285850Y84662D01*
X285683Y84579D01*
X285600Y84523D01*
X285572Y84496D01*
X285294Y84218D01*
X285100Y83912D01*
X284961Y83607D01*
X284878Y83301D01*
X284794Y83024D01*
X284767Y82774D01*
Y82635D01*
Y82607D01*
Y82579D01*
X284794Y82135D01*
X284878Y81746D01*
X284989Y81413D01*
X285127Y81135D01*
X285266Y80913D01*
X285378Y80747D01*
X285461Y80635D01*
X285489Y80608D01*
X285850Y80330D01*
X286238Y80136D01*
X286683Y79969D01*
X287099Y79886D01*
X287488Y79830D01*
X287793Y79802D01*
X287932Y79775D01*
X289460D01*
Y77720D01*
X287960D01*
X287349Y77692D01*
X286794Y77581D01*
X286322Y77414D01*
X285933Y77220D01*
X285572Y76970D01*
X285294Y76692D01*
X285072Y76414D01*
X284878Y76109D01*
X284739Y75804D01*
X284628Y75526D01*
X284544Y75248D01*
X284489Y74998D01*
X284461Y74804D01*
X284433Y74637D01*
Y74526D01*
Y74498D01*
X284461Y74026D01*
X284544Y73610D01*
X284655Y73249D01*
X284767Y72943D01*
X284905Y72693D01*
X285016Y72499D01*
X285100Y72388D01*
X285127Y72360D01*
X285433Y72054D01*
X285766Y71860D01*
X286127Y71693D01*
X286460Y71583D01*
X286766Y71527D01*
X287016Y71499D01*
X287182Y71471D01*
X287238D01*
X287627Y71499D01*
X287960Y71555D01*
X288265Y71610D01*
X288543Y71693D01*
X288738Y71777D01*
X288877Y71860D01*
X288988Y71888D01*
X289015Y71916D01*
X289293Y72138D01*
X289571Y72443D01*
X289793Y72777D01*
X289987Y73110D01*
X290126Y73415D01*
X290265Y73665D01*
X290293Y73776D01*
X290320Y73860D01*
X290348Y73887D01*
Y73915D01*
X292570Y73110D01*
X292292Y72471D01*
X291959Y71916D01*
X291570Y71416D01*
X291181Y70999D01*
X290737Y70666D01*
X290293Y70361D01*
X289848Y70111D01*
X289404Y69916D01*
X288988Y69777D01*
X288571Y69666D01*
X288210Y69583D01*
X287877Y69528D01*
X287627Y69500D01*
X287405Y69472D01*
X287238D01*
X286849Y69500D01*
X286460Y69528D01*
X285766Y69666D01*
X285155Y69861D01*
X284628Y70083D01*
X284211Y70277D01*
X284045Y70388D01*
X283906Y70472D01*
X283795Y70555D01*
X283711Y70610D01*
X283683Y70666D01*
X283656D01*
X283350Y70944D01*
X283100Y71249D01*
X282878Y71555D01*
X282684Y71888D01*
X282517Y72193D01*
X282406Y72527D01*
X282184Y73138D01*
X282073Y73693D01*
X282045Y73915D01*
X282017Y74137D01*
X281990Y74304D01*
Y74415D01*
Y74498D01*
Y74526D01*
X282017Y75081D01*
X282101Y75581D01*
X282240Y75970D01*
X282378Y76303D01*
X282545Y76581D01*
X282656Y76775D01*
X282767Y76886D01*
X282795Y76914D01*
X282989Y77220D01*
X283211Y77470D01*
X283656Y77914D01*
X284128Y78275D01*
X284544Y78525D01*
X284933Y78719D01*
X285236Y78829D01*
X285044Y78886D01*
X284628Y79108D01*
X284239Y79358D01*
X283933Y79636D01*
X283656Y79886D01*
X283461Y80108D01*
X283350Y80274D01*
X283295Y80302D01*
Y80330D01*
X282989Y80635D01*
X282739Y81024D01*
X282573Y81413D01*
X282462Y81802D01*
X282406Y82163D01*
X282350Y82468D01*
Y82579D01*
Y82663D01*
Y82718D01*
Y82746D01*
Y83079D01*
X282406Y83385D01*
X282545Y83940D01*
X282739Y84440D01*
X282962Y84884D01*
X283184Y85217D01*
X283378Y85467D01*
X283517Y85634D01*
X283545Y85690D01*
X283572D01*
X283850Y85940D01*
X284128Y86134D01*
X284433Y86328D01*
X284739Y86467D01*
X285350Y86717D01*
X285933Y86884D01*
X286460Y86967D01*
X286683Y87023D01*
X286877D01*
X287044Y87050D01*
X287266D01*
X287877Y87023D01*
D02*
G37*
G36*
X223089Y87023D02*
X223645Y86939D01*
X224145Y86800D01*
X224561Y86662D01*
X224922Y86495D01*
X225172Y86384D01*
X225339Y86273D01*
X225366Y86245D01*
X225394D01*
X225894Y85856D01*
X226339Y85412D01*
X226699Y84940D01*
X226977Y84468D01*
X227199Y84023D01*
X227283Y83829D01*
X227366Y83662D01*
X227421Y83524D01*
X227449Y83412D01*
X227477Y83357D01*
Y83329D01*
X225255Y82663D01*
X225117Y83079D01*
X224950Y83440D01*
X224783Y83746D01*
X224617Y83996D01*
X224478Y84162D01*
X224367Y84301D01*
X224284Y84384D01*
X224256Y84412D01*
X223978Y84634D01*
X223673Y84773D01*
X223395Y84884D01*
X223117Y84968D01*
X222867Y85023D01*
X222673Y85051D01*
X222506D01*
X222117Y85023D01*
X221784Y84968D01*
X221507Y84884D01*
X221256Y84773D01*
X221062Y84662D01*
X220896Y84579D01*
X220812Y84523D01*
X220784Y84496D01*
X220507Y84218D01*
X220312Y83912D01*
X220174Y83607D01*
X220090Y83301D01*
X220007Y83024D01*
X219979Y82774D01*
Y82635D01*
Y82607D01*
Y82579D01*
X220007Y82135D01*
X220090Y81746D01*
X220201Y81413D01*
X220340Y81135D01*
X220479Y80913D01*
X220590Y80747D01*
X220673Y80635D01*
X220701Y80608D01*
X221062Y80330D01*
X221451Y80136D01*
X221895Y79969D01*
X222312Y79886D01*
X222701Y79830D01*
X223006Y79802D01*
X223145Y79775D01*
X224672D01*
Y77720D01*
X223173D01*
X222562Y77692D01*
X222006Y77581D01*
X221534Y77414D01*
X221146Y77220D01*
X220784Y76970D01*
X220507Y76692D01*
X220285Y76414D01*
X220090Y76109D01*
X219951Y75804D01*
X219840Y75526D01*
X219757Y75248D01*
X219701Y74998D01*
X219674Y74804D01*
X219646Y74637D01*
Y74526D01*
Y74498D01*
X219674Y74026D01*
X219757Y73610D01*
X219868Y73249D01*
X219979Y72943D01*
X220118Y72693D01*
X220229Y72499D01*
X220312Y72388D01*
X220340Y72360D01*
X220646Y72054D01*
X220979Y71860D01*
X221340Y71693D01*
X221673Y71582D01*
X221979Y71527D01*
X222229Y71499D01*
X222395Y71471D01*
X222451D01*
X222839Y71499D01*
X223173Y71555D01*
X223478Y71610D01*
X223756Y71693D01*
X223950Y71777D01*
X224089Y71860D01*
X224200Y71888D01*
X224228Y71916D01*
X224506Y72138D01*
X224783Y72443D01*
X225006Y72777D01*
X225200Y73110D01*
X225339Y73415D01*
X225478Y73665D01*
X225505Y73776D01*
X225533Y73860D01*
X225561Y73887D01*
Y73915D01*
X227783Y73110D01*
X227505Y72471D01*
X227171Y71916D01*
X226783Y71416D01*
X226394Y70999D01*
X225950Y70666D01*
X225505Y70361D01*
X225061Y70111D01*
X224617Y69916D01*
X224200Y69777D01*
X223784Y69666D01*
X223423Y69583D01*
X223089Y69528D01*
X222839Y69500D01*
X222617Y69472D01*
X222451D01*
X222062Y69500D01*
X221673Y69528D01*
X220979Y69666D01*
X220368Y69861D01*
X219840Y70083D01*
X219424Y70277D01*
X219257Y70388D01*
X219118Y70472D01*
X219007Y70555D01*
X218924Y70610D01*
X218896Y70666D01*
X218868D01*
X218563Y70944D01*
X218313Y71249D01*
X218091Y71555D01*
X217896Y71888D01*
X217730Y72193D01*
X217619Y72527D01*
X217396Y73138D01*
X217285Y73693D01*
X217258Y73915D01*
X217230Y74137D01*
X217202Y74304D01*
Y74415D01*
Y74498D01*
Y74526D01*
X217230Y75081D01*
X217313Y75581D01*
X217452Y75970D01*
X217591Y76303D01*
X217758Y76581D01*
X217869Y76775D01*
X217980Y76886D01*
X218007Y76914D01*
X218202Y77220D01*
X218424Y77470D01*
X218868Y77914D01*
X219340Y78275D01*
X219757Y78525D01*
X220146Y78719D01*
X220449Y78829D01*
X220257Y78886D01*
X219840Y79108D01*
X219451Y79358D01*
X219146Y79636D01*
X218868Y79886D01*
X218674Y80108D01*
X218563Y80274D01*
X218507Y80302D01*
Y80330D01*
X218202Y80635D01*
X217952Y81024D01*
X217785Y81413D01*
X217674Y81802D01*
X217619Y82163D01*
X217563Y82468D01*
Y82579D01*
Y82663D01*
Y82718D01*
Y82746D01*
Y83079D01*
X217619Y83385D01*
X217758Y83940D01*
X217952Y84440D01*
X218174Y84884D01*
X218396Y85217D01*
X218591Y85467D01*
X218729Y85634D01*
X218757Y85690D01*
X218785D01*
X219063Y85940D01*
X219340Y86134D01*
X219646Y86328D01*
X219951Y86467D01*
X220562Y86717D01*
X221146Y86884D01*
X221673Y86967D01*
X221895Y87023D01*
X222090D01*
X222256Y87050D01*
X222478D01*
X223089Y87023D01*
D02*
G37*
G36*
X275019Y86995D02*
X275658Y86884D01*
X276213Y86717D01*
X276658Y86523D01*
X277046Y86328D01*
X277324Y86162D01*
X277435Y86106D01*
X277519Y86051D01*
X277546Y85995D01*
X277574D01*
X277852Y85745D01*
X278102Y85495D01*
X278546Y84884D01*
X278879Y84273D01*
X279129Y83662D01*
X279324Y83079D01*
X279379Y82857D01*
X279435Y82635D01*
X279463Y82468D01*
X279490Y82329D01*
X279518Y82246D01*
Y82218D01*
X277213Y81746D01*
X277102Y82329D01*
X276963Y82829D01*
X276797Y83274D01*
X276574Y83635D01*
X276352Y83968D01*
X276102Y84218D01*
X275852Y84440D01*
X275602Y84607D01*
X275380Y84745D01*
X275130Y84856D01*
X274936Y84912D01*
X274742Y84968D01*
X274575Y84995D01*
X274464Y85023D01*
X274353D01*
X273964Y84995D01*
X273603Y84912D01*
X273270Y84801D01*
X272964Y84690D01*
X272687Y84579D01*
X272492Y84468D01*
X272381Y84384D01*
X272326Y84357D01*
X272187Y84107D01*
X272076Y83801D01*
X271992Y83496D01*
X271937Y83190D01*
X271909Y82913D01*
X271881Y82691D01*
Y82552D01*
Y82524D01*
Y82496D01*
X271909Y82135D01*
X271937Y81802D01*
X272020Y81496D01*
X272103Y81219D01*
X272187Y80997D01*
X272242Y80830D01*
X272298Y80719D01*
X272326Y80691D01*
X272437Y80497D01*
X272575Y80302D01*
X272937Y79858D01*
X273325Y79414D01*
X273714Y78997D01*
X274075Y78608D01*
X274380Y78303D01*
X274519Y78192D01*
X274603Y78108D01*
X274658Y78053D01*
X274686Y78025D01*
X275325Y77414D01*
X275908Y76803D01*
X276463Y76192D01*
X276963Y75609D01*
X277408Y75054D01*
X277824Y74498D01*
X278185Y73998D01*
X278490Y73499D01*
X278796Y73054D01*
X279018Y72666D01*
X279212Y72304D01*
X279379Y71999D01*
X279490Y71777D01*
X279601Y71583D01*
X279629Y71471D01*
X279657Y71444D01*
Y69777D01*
X269438D01*
Y71805D01*
X277296D01*
X277074Y72193D01*
X276797Y72610D01*
X276491Y73027D01*
X276158Y73443D01*
X275464Y74276D01*
X274742Y75026D01*
X274380Y75387D01*
X274075Y75720D01*
X273770Y75998D01*
X273520Y76248D01*
X273298Y76442D01*
X273131Y76581D01*
X273020Y76692D01*
X272992Y76720D01*
X272326Y77331D01*
X271770Y77886D01*
X271298Y78358D01*
X270909Y78803D01*
X270632Y79136D01*
X270437Y79386D01*
X270298Y79552D01*
X270271Y79608D01*
X269993Y80108D01*
X269798Y80608D01*
X269632Y81108D01*
X269549Y81552D01*
X269493Y81941D01*
X269438Y82218D01*
Y82329D01*
Y82413D01*
Y82468D01*
Y82496D01*
Y82857D01*
X269493Y83190D01*
X269632Y83801D01*
X269826Y84357D01*
X270048Y84801D01*
X270271Y85162D01*
X270465Y85440D01*
X270604Y85606D01*
X270632Y85662D01*
X270659D01*
X270909Y85912D01*
X271187Y86134D01*
X271493Y86301D01*
X271798Y86467D01*
X272409Y86717D01*
X272992Y86884D01*
X273547Y86967D01*
X273770Y87023D01*
X273964D01*
X274131Y87050D01*
X274353D01*
X275019Y86995D01*
D02*
G37*
G36*
X166716Y87023D02*
X167161Y86967D01*
X167577Y86856D01*
X167966Y86745D01*
X168327Y86578D01*
X168660Y86412D01*
X168966Y86217D01*
X169243Y86051D01*
X169493Y85856D01*
X169688Y85662D01*
X169882Y85495D01*
X170021Y85329D01*
X170132Y85217D01*
X170243Y85106D01*
X170271Y85051D01*
X170299Y85023D01*
X170604Y84551D01*
X170854Y84023D01*
X171104Y83440D01*
X171298Y82829D01*
X171465Y82218D01*
X171604Y81580D01*
X171715Y80969D01*
X171798Y80358D01*
X171881Y79775D01*
X171937Y79247D01*
X171965Y78775D01*
X171993Y78331D01*
X172020Y77997D01*
Y77720D01*
Y77553D01*
Y77525D01*
Y77498D01*
X171993Y76831D01*
X171965Y76192D01*
X171909Y75581D01*
X171826Y75026D01*
X171715Y74526D01*
X171604Y74054D01*
X171493Y73610D01*
X171382Y73221D01*
X171271Y72888D01*
X171160Y72582D01*
X171048Y72304D01*
X170937Y72110D01*
X170854Y71943D01*
X170799Y71832D01*
X170743Y71749D01*
Y71721D01*
X170465Y71333D01*
X170160Y70972D01*
X169854Y70666D01*
X169521Y70416D01*
X169188Y70194D01*
X168854Y70027D01*
X168521Y69861D01*
X168216Y69750D01*
X167633Y69583D01*
X167383Y69555D01*
X167161Y69500D01*
X166966D01*
X166827Y69472D01*
X166716D01*
X166328Y69500D01*
X165966Y69555D01*
X165605Y69639D01*
X165300Y69722D01*
X164689Y69999D01*
X164189Y70305D01*
X163773Y70610D01*
X163606Y70749D01*
X163467Y70888D01*
X163356Y70972D01*
X163273Y71055D01*
X163245Y71110D01*
X163217Y71138D01*
X162940Y71416D01*
X162717Y71721D01*
X162495Y72054D01*
X162329Y72388D01*
X162051Y73082D01*
X161884Y73776D01*
X161829Y74110D01*
X161773Y74415D01*
X161745Y74693D01*
X161718Y74915D01*
X161690Y75109D01*
Y75276D01*
Y75359D01*
Y75387D01*
X161718Y75804D01*
X161745Y76220D01*
X161912Y76970D01*
X162134Y77636D01*
X162384Y78192D01*
X162523Y78442D01*
X162662Y78664D01*
X162773Y78830D01*
X162884Y78997D01*
X162967Y79108D01*
X163051Y79191D01*
X163078Y79247D01*
X163106Y79275D01*
X163301Y79552D01*
X163523Y79802D01*
X163745Y80024D01*
X163995Y80219D01*
X164245Y80358D01*
X164495Y80497D01*
X165022Y80691D01*
X165467Y80802D01*
X165689Y80830D01*
X165855Y80858D01*
X166022Y80885D01*
X166216D01*
X166661Y80858D01*
X167077Y80774D01*
X167466Y80663D01*
X167799Y80524D01*
X168132Y80358D01*
X168410Y80136D01*
X168660Y79941D01*
X168882Y79719D01*
X169077Y79497D01*
X169271Y79303D01*
X169521Y78914D01*
X169604Y78775D01*
X169660Y78664D01*
X169714Y78583D01*
X169688Y79136D01*
X169660Y79691D01*
X169604Y80219D01*
X169549Y80719D01*
X169465Y81163D01*
X169354Y81580D01*
X169243Y81968D01*
X169132Y82329D01*
X169021Y82663D01*
X168882Y82968D01*
X168577Y83496D01*
X168271Y83912D01*
X167966Y84273D01*
X167660Y84523D01*
X167355Y84745D01*
X167077Y84884D01*
X166827Y84968D01*
X166605Y85023D01*
X166439Y85079D01*
X166300D01*
X166050Y85051D01*
X165800Y84995D01*
X165578Y84940D01*
X165356Y84829D01*
X165022Y84551D01*
X164717Y84273D01*
X164522Y83968D01*
X164356Y83690D01*
X164300Y83579D01*
X164272Y83523D01*
X164245Y83468D01*
Y83440D01*
X162051Y84357D01*
X162301Y84829D01*
X162578Y85245D01*
X162884Y85606D01*
X163217Y85912D01*
X163550Y86190D01*
X163911Y86384D01*
X164272Y86578D01*
X164606Y86717D01*
X164939Y86828D01*
X165244Y86911D01*
X165522Y86967D01*
X165772Y87023D01*
X165966D01*
X166105Y87050D01*
X166244D01*
X166716Y87023D01*
D02*
G37*
G36*
X312342Y69777D02*
X310093D01*
Y79636D01*
X310148Y84190D01*
Y84440D01*
Y84634D01*
Y84801D01*
Y84884D01*
Y84940D01*
Y84968D01*
Y84995D01*
X310121Y84912D01*
X310093Y84773D01*
X310010Y84468D01*
X309898Y84079D01*
X309787Y83690D01*
X309676Y83301D01*
X309593Y82996D01*
X309565Y82857D01*
X309537Y82774D01*
X309510Y82718D01*
Y82691D01*
X309343Y82107D01*
X309176Y81607D01*
X309037Y81191D01*
X308926Y80830D01*
X308815Y80552D01*
X308732Y80358D01*
X308704Y80219D01*
X308677Y80191D01*
X305539Y69777D01*
X302623D01*
X299401Y79941D01*
X299151Y80719D01*
X298929Y81552D01*
X298679Y82413D01*
X298457Y83218D01*
X298346Y83579D01*
X298263Y83912D01*
X298179Y84218D01*
X298096Y84496D01*
X298041Y84690D01*
X297987Y84852D01*
X298041Y79886D01*
Y69777D01*
X295680D01*
Y87050D01*
X299374D01*
X302484Y76914D01*
X302734Y76109D01*
X302956Y75415D01*
X303150Y74776D01*
X303317Y74248D01*
X303456Y73776D01*
X303567Y73360D01*
X303678Y73027D01*
X303761Y72749D01*
X303844Y72527D01*
X303900Y72360D01*
X303928Y72221D01*
X303956Y72138D01*
X303983Y72054D01*
X304011Y72027D01*
Y71999D01*
X304039D01*
X304122Y72304D01*
X304233Y72666D01*
X304344Y73027D01*
X304455Y73387D01*
X304567Y73721D01*
X304650Y73998D01*
X304678Y74110D01*
X304705Y74193D01*
X304733Y74221D01*
Y74248D01*
X304844Y74609D01*
X304928Y74943D01*
X305094Y75498D01*
X305233Y75970D01*
X305344Y76359D01*
X305427Y76637D01*
X305483Y76831D01*
X305539Y76942D01*
Y76970D01*
X308593Y87050D01*
X312342D01*
Y69777D01*
D02*
G37*
G36*
X133892Y69777D02*
X131032D01*
X125533Y87050D01*
X127922D01*
X130921Y77220D01*
X131032Y76831D01*
X131171Y76414D01*
X131282Y75998D01*
X131393Y75581D01*
X131504Y75220D01*
X131559Y74915D01*
X131615Y74831D01*
Y74748D01*
X131643Y74693D01*
Y74665D01*
X131754Y74276D01*
X131837Y73915D01*
X131921Y73582D01*
X132004Y73304D01*
X132059Y73054D01*
X132115Y72860D01*
X132170Y72666D01*
X132226Y72499D01*
X132281Y72249D01*
X132337Y72110D01*
X132365Y72027D01*
Y71999D01*
X132448Y72304D01*
X132559Y72666D01*
X132670Y73054D01*
X132781Y73443D01*
X132865Y73804D01*
X132948Y74082D01*
X132976Y74193D01*
X133003Y74276D01*
X133031Y74332D01*
Y74359D01*
X133226Y75054D01*
X133392Y75637D01*
X133503Y76137D01*
X133642Y76553D01*
X133726Y76859D01*
X133781Y77081D01*
X133837Y77220D01*
Y77275D01*
X136780Y87050D01*
X139335D01*
X133892Y69777D01*
D02*
G37*
G36*
X122812D02*
X120563D01*
Y79636D01*
X120618Y84190D01*
Y84440D01*
Y84634D01*
Y84801D01*
Y84884D01*
Y84940D01*
Y84968D01*
Y84995D01*
X120590Y84912D01*
X120563Y84773D01*
X120479Y84468D01*
X120368Y84079D01*
X120257Y83690D01*
X120146Y83301D01*
X120063Y82996D01*
X120035Y82857D01*
X120007Y82774D01*
X119979Y82718D01*
Y82690D01*
X119813Y82107D01*
X119646Y81607D01*
X119507Y81191D01*
X119396Y80830D01*
X119285Y80552D01*
X119202Y80358D01*
X119174Y80219D01*
X119146Y80191D01*
X116008Y69777D01*
X113092D01*
X109871Y79941D01*
X109621Y80719D01*
X109399Y81552D01*
X109149Y82413D01*
X108927Y83218D01*
X108816Y83579D01*
X108732Y83912D01*
X108649Y84218D01*
X108566Y84496D01*
X108510Y84690D01*
X108456Y84852D01*
X108510Y79886D01*
Y69777D01*
X106150D01*
Y87050D01*
X109843D01*
X112953Y76914D01*
X113204Y76109D01*
X113426Y75415D01*
X113620Y74776D01*
X113787Y74248D01*
X113926Y73776D01*
X114037Y73360D01*
X114148Y73027D01*
X114231Y72749D01*
X114314Y72527D01*
X114370Y72360D01*
X114398Y72221D01*
X114425Y72138D01*
X114453Y72054D01*
X114481Y72027D01*
Y71999D01*
X114509D01*
X114592Y72304D01*
X114703Y72666D01*
X114814Y73027D01*
X114925Y73387D01*
X115036Y73721D01*
X115120Y73998D01*
X115147Y74110D01*
X115175Y74193D01*
X115203Y74221D01*
Y74248D01*
X115314Y74609D01*
X115397Y74943D01*
X115564Y75498D01*
X115703Y75970D01*
X115814Y76359D01*
X115897Y76637D01*
X115953Y76831D01*
X116008Y76942D01*
Y76970D01*
X119063Y87050D01*
X122812D01*
Y69777D01*
D02*
G37*
G36*
X65078Y69777D02*
X62412D01*
X58608Y81885D01*
X60885D01*
X62690Y75470D01*
X62773Y75165D01*
X62857Y74859D01*
X62940Y74554D01*
X63023Y74248D01*
X63106Y73971D01*
X63162Y73776D01*
X63190Y73637D01*
X63218Y73582D01*
X63328Y73137D01*
X63412Y72749D01*
X63495Y72443D01*
X63578Y72166D01*
X63634Y71971D01*
X63690Y71832D01*
X63705Y71785D01*
X63828Y72277D01*
X63967Y72777D01*
X64078Y73221D01*
X64189Y73610D01*
X64273Y73943D01*
X64328Y74248D01*
X64412Y74471D01*
X64467Y74693D01*
X64523Y74859D01*
X64550Y74998D01*
X64578Y75109D01*
X64606Y75192D01*
X64634Y75276D01*
Y75304D01*
X66467Y81885D01*
X68883D01*
X65078Y69777D01*
D02*
G37*
G36*
X208094Y87328D02*
X208593Y87273D01*
X209093Y87161D01*
X209565Y87023D01*
X210010Y86884D01*
X210399Y86689D01*
X210787Y86523D01*
X211121Y86328D01*
X211426Y86134D01*
X211704Y85940D01*
X211926Y85745D01*
X212120Y85606D01*
X212287Y85467D01*
X212398Y85356D01*
X212454Y85301D01*
X212481Y85273D01*
X212898Y84801D01*
X213231Y84273D01*
X213537Y83718D01*
X213814Y83162D01*
X214036Y82579D01*
X214231Y81996D01*
X214370Y81441D01*
X214508Y80885D01*
X214592Y80386D01*
X214675Y79886D01*
X214703Y79469D01*
X214758Y79080D01*
Y78775D01*
X214786Y78553D01*
Y78414D01*
Y78358D01*
X214758Y77664D01*
X214703Y76970D01*
X214619Y76359D01*
X214508Y75748D01*
X214370Y75193D01*
X214203Y74693D01*
X214064Y74221D01*
X213870Y73776D01*
X213703Y73415D01*
X213564Y73082D01*
X213398Y72777D01*
X213259Y72554D01*
X213148Y72360D01*
X213064Y72221D01*
X213009Y72138D01*
X212981Y72110D01*
X212592Y71638D01*
X212176Y71221D01*
X211731Y70888D01*
X211287Y70583D01*
X210843Y70305D01*
X210371Y70083D01*
X209926Y69916D01*
X209510Y69777D01*
X209093Y69666D01*
X208732Y69583D01*
X208399Y69528D01*
X208094Y69500D01*
X207871Y69472D01*
X207677Y69444D01*
X207538D01*
X207066Y69472D01*
X206649Y69500D01*
X205816Y69666D01*
X205067Y69916D01*
X204400Y70249D01*
X203817Y70638D01*
X203289Y71055D01*
X202817Y71527D01*
X202429Y71999D01*
X202095Y72471D01*
X201817Y72943D01*
X201568Y73360D01*
X201401Y73748D01*
X201262Y74082D01*
X201179Y74332D01*
X201123Y74498D01*
X201096Y74554D01*
X203400Y75304D01*
X203595Y74637D01*
X203817Y74054D01*
X204095Y73554D01*
X204400Y73110D01*
X204733Y72749D01*
X205067Y72443D01*
X205428Y72193D01*
X205789Y71999D01*
X206122Y71832D01*
X206427Y71721D01*
X206733Y71638D01*
X206983Y71582D01*
X207205Y71555D01*
X207371Y71527D01*
X207510D01*
X207871Y71555D01*
X208205Y71582D01*
X208816Y71749D01*
X209371Y71999D01*
X209815Y72277D01*
X210204Y72554D01*
X210482Y72804D01*
X210565Y72888D01*
X210648Y72971D01*
X210676Y72999D01*
X210704Y73027D01*
X210982Y73387D01*
X211204Y73776D01*
X211398Y74193D01*
X211593Y74637D01*
X211870Y75526D01*
X212037Y76387D01*
X212092Y76803D01*
X212148Y77164D01*
X212176Y77525D01*
X212204Y77803D01*
X212231Y78053D01*
Y78219D01*
Y78358D01*
Y78386D01*
X212204Y78942D01*
X212176Y79497D01*
X212120Y79997D01*
X212037Y80469D01*
X211954Y80913D01*
X211842Y81302D01*
X211731Y81691D01*
X211620Y82024D01*
X211509Y82302D01*
X211426Y82579D01*
X211315Y82802D01*
X211232Y82968D01*
X211148Y83107D01*
X211093Y83218D01*
X211037Y83274D01*
Y83301D01*
X210787Y83662D01*
X210509Y83940D01*
X210232Y84218D01*
X209954Y84440D01*
X209649Y84634D01*
X209371Y84801D01*
X209066Y84912D01*
X208788Y85023D01*
X208288Y85162D01*
X208066Y85217D01*
X207871Y85245D01*
X207733Y85273D01*
X207510D01*
X206955Y85245D01*
X206455Y85106D01*
X206011Y84940D01*
X205622Y84690D01*
X205261Y84412D01*
X204928Y84107D01*
X204650Y83773D01*
X204400Y83412D01*
X204206Y83079D01*
X204039Y82718D01*
X203900Y82413D01*
X203789Y82135D01*
X203706Y81885D01*
X203650Y81718D01*
X203595Y81607D01*
Y81552D01*
X201207Y82135D01*
X201456Y82968D01*
X201762Y83718D01*
X202095Y84357D01*
X202262Y84634D01*
X202401Y84884D01*
X202567Y85106D01*
X202706Y85301D01*
X202845Y85467D01*
X202984Y85579D01*
X203067Y85690D01*
X203151Y85773D01*
X203178Y85801D01*
X203206Y85829D01*
X203539Y86106D01*
X203872Y86328D01*
X204234Y86550D01*
X204594Y86717D01*
X205344Y86995D01*
X206011Y87161D01*
X206344Y87217D01*
X206622Y87273D01*
X206872Y87300D01*
X207094Y87328D01*
X207288Y87356D01*
X207538D01*
X208094Y87328D01*
D02*
G37*
G36*
X76019Y82135D02*
X76408Y82107D01*
X77103Y81913D01*
X77713Y81663D01*
X78241Y81385D01*
X78658Y81107D01*
X78824Y80969D01*
X78963Y80858D01*
X79102Y80747D01*
X79185Y80663D01*
X79213Y80635D01*
X79241Y80608D01*
X79546Y80247D01*
X79796Y79886D01*
X80018Y79497D01*
X80213Y79080D01*
X80352Y78692D01*
X80490Y78275D01*
X80685Y77525D01*
X80768Y77164D01*
X80824Y76831D01*
X80851Y76525D01*
X80879Y76275D01*
X80907Y76081D01*
Y75915D01*
Y75804D01*
Y75776D01*
X80879Y75276D01*
X80851Y74804D01*
X80713Y73943D01*
X80602Y73554D01*
X80490Y73193D01*
X80379Y72860D01*
X80240Y72582D01*
X80129Y72304D01*
X80018Y72054D01*
X79907Y71860D01*
X79796Y71693D01*
X79713Y71555D01*
X79657Y71471D01*
X79602Y71416D01*
Y71388D01*
X79324Y71055D01*
X78991Y70777D01*
X78685Y70527D01*
X78324Y70305D01*
X77991Y70111D01*
X77658Y69972D01*
X76991Y69750D01*
X76658Y69666D01*
X76380Y69611D01*
X76130Y69555D01*
X75908Y69527D01*
X75714Y69500D01*
X75464D01*
X74798Y69527D01*
X74187Y69666D01*
X73631Y69833D01*
X73131Y70055D01*
X72659Y70333D01*
X72271Y70638D01*
X71909Y70944D01*
X71604Y71277D01*
X71326Y71610D01*
X71104Y71943D01*
X70910Y72221D01*
X70771Y72499D01*
X70660Y72721D01*
X70577Y72915D01*
X70521Y73027D01*
Y73054D01*
X72632Y73721D01*
X72770Y73304D01*
X72965Y72943D01*
X73159Y72610D01*
X73353Y72332D01*
X73603Y72110D01*
X73826Y71916D01*
X74076Y71749D01*
X74298Y71638D01*
X74548Y71527D01*
X74742Y71471D01*
X74936Y71416D01*
X75131Y71360D01*
X75270D01*
X75381Y71333D01*
X75464D01*
X75936Y71360D01*
X76353Y71471D01*
X76741Y71610D01*
X77047Y71805D01*
X77297Y71971D01*
X77491Y72110D01*
X77602Y72221D01*
X77630Y72249D01*
X77963Y72693D01*
X78213Y73193D01*
X78380Y73721D01*
X78491Y74221D01*
X78574Y74637D01*
X78602Y74831D01*
Y74998D01*
X78630Y75137D01*
Y75248D01*
Y75304D01*
Y75331D01*
X70438D01*
Y75942D01*
Y76414D01*
X70493Y76886D01*
X70632Y77720D01*
X70743Y78108D01*
X70854Y78469D01*
X70965Y78803D01*
X71076Y79108D01*
X71215Y79358D01*
X71326Y79608D01*
X71437Y79802D01*
X71548Y79969D01*
X71632Y80108D01*
X71687Y80191D01*
X71715Y80247D01*
X71743Y80274D01*
X72021Y80608D01*
X72326Y80885D01*
X72632Y81163D01*
X72937Y81358D01*
X73270Y81552D01*
X73603Y81691D01*
X74214Y81941D01*
X74770Y82052D01*
X75020Y82107D01*
X75214Y82135D01*
X75381Y82163D01*
X75631D01*
X76019Y82135D01*
D02*
G37*
G36*
X328171Y84912D02*
X322950D01*
Y69777D01*
X320479D01*
Y84912D01*
X315175D01*
Y87050D01*
X328171D01*
Y84912D01*
D02*
G37*
G36*
X265883Y69777D02*
X263439D01*
Y77803D01*
X256941D01*
Y79914D01*
X263439D01*
Y84940D01*
X254831Y84940D01*
Y87050D01*
X265883Y87050D01*
Y69777D01*
D02*
G37*
G36*
X186961Y84912D02*
X181740D01*
Y69777D01*
X179268D01*
Y84912D01*
X173964D01*
Y87050D01*
X186961D01*
Y84912D01*
D02*
G37*
G36*
X151859Y69777D02*
X140640Y69777D01*
Y71888D01*
X149416Y71888D01*
Y77886D01*
X142890D01*
Y79997D01*
X149416D01*
Y84940D01*
X140779Y84940D01*
Y87050D01*
X151859Y87050D01*
Y69777D01*
D02*
G37*
G36*
X95236Y69777D02*
X92820D01*
Y77636D01*
X89155D01*
X85461Y69777D01*
X82851Y69777D01*
X86878Y78025D01*
X86350Y78164D01*
X85850Y78358D01*
X85434Y78608D01*
X85072Y78830D01*
X84795Y79053D01*
X84573Y79247D01*
X84461Y79358D01*
X84406Y79414D01*
X84045Y79886D01*
X83767Y80386D01*
X83573Y80913D01*
X83462Y81385D01*
X83378Y81774D01*
X83351Y81968D01*
Y82107D01*
X83323Y82246D01*
Y82329D01*
Y82385D01*
Y82413D01*
X83351Y82829D01*
X83378Y83218D01*
X83462Y83607D01*
X83573Y83940D01*
X83878Y84551D01*
X84267Y85106D01*
X84711Y85551D01*
X85239Y85912D01*
X85767Y86217D01*
X86322Y86467D01*
X86905Y86661D01*
X87433Y86800D01*
X87960Y86911D01*
X88405Y86967D01*
X88794Y87023D01*
X89099Y87050D01*
X95236D01*
Y69777D01*
D02*
G37*
G36*
X43945Y69750D02*
X40974D01*
Y72693D01*
X43945D01*
Y69750D01*
D02*
G37*
G36*
X235530Y87023D02*
X235975Y86939D01*
X236419Y86828D01*
X236808Y86662D01*
X237169Y86467D01*
X237502Y86245D01*
X237807Y85967D01*
X238113Y85690D01*
X238613Y85023D01*
X239057Y84273D01*
X239390Y83496D01*
X239668Y82690D01*
X239890Y81857D01*
X240057Y81080D01*
X240168Y80330D01*
X240251Y79663D01*
X240279Y79386D01*
X240307Y79108D01*
Y78886D01*
X240335Y78692D01*
Y78525D01*
Y78414D01*
Y78331D01*
Y78303D01*
X240307Y77525D01*
X240279Y76803D01*
X240224Y76137D01*
X240140Y75526D01*
X240057Y74943D01*
X239973Y74415D01*
X239862Y73943D01*
X239751Y73526D01*
X239640Y73138D01*
X239529Y72804D01*
X239446Y72527D01*
X239363Y72304D01*
X239279Y72110D01*
X239224Y71999D01*
X239168Y71916D01*
Y71888D01*
X238918Y71471D01*
X238613Y71083D01*
X238307Y70777D01*
X238002Y70499D01*
X237641Y70249D01*
X237308Y70055D01*
X236974Y69916D01*
X236641Y69777D01*
X236336Y69666D01*
X236030Y69611D01*
X235780Y69555D01*
X235530Y69500D01*
X235364D01*
X235197Y69472D01*
X235086D01*
X234614Y69500D01*
X234170Y69583D01*
X233725Y69694D01*
X233336Y69861D01*
X232976Y70055D01*
X232642Y70277D01*
X232337Y70555D01*
X232031Y70860D01*
X231531Y71527D01*
X231087Y72277D01*
X230754Y73082D01*
X230476Y73915D01*
X230254Y74721D01*
X230087Y75526D01*
X229976Y76276D01*
X229893Y76942D01*
X229865Y77248D01*
X229837Y77525D01*
Y77747D01*
X229810Y77942D01*
Y78108D01*
Y78219D01*
Y78303D01*
Y78331D01*
Y79080D01*
X229865Y79802D01*
X229921Y80469D01*
X230004Y81080D01*
X230087Y81663D01*
X230171Y82191D01*
X230282Y82635D01*
X230393Y83079D01*
X230504Y83440D01*
X230615Y83773D01*
X230698Y84051D01*
X230782Y84273D01*
X230865Y84440D01*
X230921Y84551D01*
X230948Y84634D01*
X230976Y84662D01*
X231226Y85079D01*
X231504Y85440D01*
X231837Y85773D01*
X232142Y86051D01*
X232476Y86273D01*
X232837Y86467D01*
X233170Y86634D01*
X233503Y86745D01*
X233809Y86856D01*
X234114Y86911D01*
X234364Y86967D01*
X234586Y87023D01*
X234781D01*
X234947Y87050D01*
X235058D01*
X235530Y87023D01*
D02*
G37*
G36*
X194764Y86995D02*
X195403Y86884D01*
X195986Y86689D01*
X196458Y86495D01*
X196874Y86300D01*
X197152Y86106D01*
X197263Y86051D01*
X197347Y85995D01*
X197374Y85940D01*
X197402D01*
X197680Y85690D01*
X197902Y85440D01*
X198096Y85190D01*
X198291Y84912D01*
X198568Y84357D01*
X198735Y83857D01*
X198846Y83385D01*
X198874Y83190D01*
X198902Y83024D01*
X198930Y82885D01*
Y82774D01*
Y82718D01*
Y82690D01*
X198902Y82191D01*
X198818Y81746D01*
X198679Y81330D01*
X198541Y80969D01*
X198430Y80663D01*
X198291Y80441D01*
X198207Y80302D01*
X198180Y80247D01*
X197902Y79858D01*
X197541Y79525D01*
X197180Y79219D01*
X196791Y78969D01*
X196430Y78775D01*
X196152Y78636D01*
X196041Y78580D01*
X195958Y78525D01*
X195903Y78497D01*
X195875D01*
X196458Y78247D01*
X196930Y77969D01*
X197291Y77720D01*
X197597Y77498D01*
X197819Y77303D01*
X197958Y77136D01*
X198041Y77025D01*
X198069Y76998D01*
X198291Y76775D01*
X198513Y76525D01*
X198846Y76053D01*
X199068Y75554D01*
X199235Y75137D01*
X199318Y74748D01*
X199374Y74443D01*
X199401Y74332D01*
Y74248D01*
Y74193D01*
Y74165D01*
X199374Y73804D01*
X199346Y73443D01*
X199207Y72777D01*
X198985Y72221D01*
X198735Y71749D01*
X198513Y71360D01*
X198291Y71083D01*
X198207Y70999D01*
X198152Y70916D01*
X198096Y70888D01*
Y70860D01*
X197819Y70610D01*
X197485Y70416D01*
X197180Y70222D01*
X196847Y70055D01*
X196152Y69805D01*
X195514Y69639D01*
X195208Y69583D01*
X194931Y69555D01*
X194681Y69528D01*
X194458Y69500D01*
X194292Y69472D01*
X194042D01*
X193237Y69528D01*
X192487Y69639D01*
X191876Y69805D01*
X191321Y70027D01*
X191098Y70111D01*
X190904Y70222D01*
X190737Y70305D01*
X190571Y70388D01*
X190460Y70444D01*
X190376Y70499D01*
X190348Y70555D01*
X190321D01*
X190015Y70805D01*
X189765Y71083D01*
X189543Y71388D01*
X189349Y71693D01*
X189182Y71999D01*
X189043Y72304D01*
X188849Y72888D01*
X188710Y73415D01*
X188682Y73637D01*
X188655Y73832D01*
X188627Y73998D01*
Y74110D01*
Y74193D01*
Y74221D01*
X188655Y74776D01*
X188738Y75276D01*
X188849Y75720D01*
X188960Y76109D01*
X189099Y76414D01*
X189210Y76637D01*
X189293Y76775D01*
X189321Y76831D01*
X189682Y77275D01*
X190126Y77664D01*
X190598Y77997D01*
X191071Y78275D01*
X191487Y78497D01*
X191682Y78580D01*
X191820Y78664D01*
X191959Y78719D01*
X192070Y78775D01*
X192126Y78803D01*
X192154D01*
X191626Y79025D01*
X191182Y79247D01*
X190793Y79497D01*
X190487Y79719D01*
X190237Y79913D01*
X190043Y80080D01*
X189932Y80191D01*
X189904Y80219D01*
X189599Y80635D01*
X189377Y81052D01*
X189238Y81469D01*
X189127Y81885D01*
X189071Y82246D01*
X189016Y82524D01*
Y82635D01*
Y82718D01*
Y82746D01*
Y82774D01*
Y83079D01*
X189071Y83385D01*
X189210Y83968D01*
X189404Y84468D01*
X189627Y84884D01*
X189876Y85217D01*
X190071Y85467D01*
X190210Y85634D01*
X190237Y85690D01*
X190265D01*
X190543Y85940D01*
X190821Y86134D01*
X191126Y86328D01*
X191459Y86467D01*
X192070Y86717D01*
X192681Y86884D01*
X193209Y86967D01*
X193459Y87023D01*
X193653D01*
X193820Y87050D01*
X194042D01*
X194764Y86995D01*
D02*
G37*
G36*
X33587Y87023D02*
X34031Y86939D01*
X34475Y86828D01*
X34864Y86661D01*
X35225Y86467D01*
X35559Y86245D01*
X35864Y85967D01*
X36169Y85690D01*
X36669Y85023D01*
X37114Y84273D01*
X37447Y83496D01*
X37725Y82690D01*
X37947Y81857D01*
X38113Y81080D01*
X38225Y80330D01*
X38308Y79663D01*
X38336Y79386D01*
X38363Y79108D01*
Y78886D01*
X38391Y78692D01*
Y78525D01*
Y78414D01*
Y78330D01*
Y78303D01*
X38363Y77525D01*
X38336Y76803D01*
X38280Y76137D01*
X38197Y75526D01*
X38113Y74943D01*
X38030Y74415D01*
X37919Y73943D01*
X37808Y73526D01*
X37697Y73137D01*
X37586Y72804D01*
X37502Y72527D01*
X37419Y72304D01*
X37336Y72110D01*
X37280Y71999D01*
X37225Y71916D01*
Y71888D01*
X36975Y71471D01*
X36669Y71083D01*
X36364Y70777D01*
X36058Y70499D01*
X35697Y70249D01*
X35364Y70055D01*
X35031Y69916D01*
X34698Y69777D01*
X34392Y69666D01*
X34087Y69611D01*
X33837Y69555D01*
X33587Y69500D01*
X33420D01*
X33254Y69472D01*
X33143D01*
X32671Y69500D01*
X32226Y69583D01*
X31782Y69694D01*
X31393Y69861D01*
X31032Y70055D01*
X30699Y70277D01*
X30393Y70555D01*
X30088Y70860D01*
X29588Y71527D01*
X29144Y72277D01*
X28810Y73082D01*
X28533Y73915D01*
X28311Y74720D01*
X28144Y75526D01*
X28033Y76275D01*
X27950Y76942D01*
X27922Y77248D01*
X27894Y77525D01*
Y77747D01*
X27866Y77942D01*
Y78108D01*
Y78219D01*
Y78303D01*
Y78330D01*
Y79080D01*
X27922Y79802D01*
X27977Y80469D01*
X28061Y81080D01*
X28144Y81663D01*
X28227Y82191D01*
X28338Y82635D01*
X28449Y83079D01*
X28561Y83440D01*
X28672Y83773D01*
X28755Y84051D01*
X28838Y84273D01*
X28921Y84440D01*
X28977Y84551D01*
X29005Y84634D01*
X29033Y84662D01*
X29283Y85079D01*
X29560Y85440D01*
X29893Y85773D01*
X30199Y86051D01*
X30532Y86273D01*
X30893Y86467D01*
X31226Y86634D01*
X31560Y86745D01*
X31865Y86856D01*
X32171Y86911D01*
X32421Y86967D01*
X32643Y87023D01*
X32837D01*
X33004Y87050D01*
X33115D01*
X33587Y87023D01*
D02*
G37*
G36*
X337030Y87300D02*
X337807Y87161D01*
X338474Y86967D01*
X338751Y86856D01*
X339029Y86745D01*
X339279Y86606D01*
X339473Y86495D01*
X339668Y86384D01*
X339807Y86301D01*
X339918Y86217D01*
X340001Y86162D01*
X340057Y86134D01*
X340084Y86106D01*
X340362Y85856D01*
X340612Y85579D01*
X340834Y85301D01*
X341001Y85023D01*
X341167Y84746D01*
X341306Y84440D01*
X341501Y83912D01*
X341612Y83440D01*
X341639Y83218D01*
X341667Y83052D01*
X341695Y82885D01*
Y82774D01*
Y82718D01*
Y82691D01*
X341667Y82024D01*
X341556Y81496D01*
X341417Y81024D01*
X341251Y80691D01*
X341112Y80413D01*
X340973Y80219D01*
X340862Y80108D01*
X340834Y80080D01*
X340584Y79775D01*
X340334Y79497D01*
X339723Y78997D01*
X339057Y78580D01*
X338390Y78247D01*
X337779Y77970D01*
X337529Y77859D01*
X337307Y77775D01*
X337113Y77720D01*
X336946Y77664D01*
X336863Y77636D01*
X336835D01*
X336141Y77442D01*
X335752Y77331D01*
X335419Y77220D01*
X335086Y77109D01*
X334808Y77025D01*
X334530Y76914D01*
X334308Y76803D01*
X333892Y76609D01*
X333614Y76442D01*
X333420Y76303D01*
X333281Y76220D01*
X333253Y76192D01*
X333003Y75915D01*
X332809Y75609D01*
X332670Y75276D01*
X332559Y74970D01*
X332503Y74665D01*
X332475Y74443D01*
Y74276D01*
Y74248D01*
Y74221D01*
X332503Y73804D01*
X332587Y73443D01*
X332725Y73110D01*
X332836Y72860D01*
X332975Y72638D01*
X333114Y72499D01*
X333197Y72388D01*
X333225Y72360D01*
X333614Y72082D01*
X334058Y71860D01*
X334530Y71721D01*
X335002Y71610D01*
X335419Y71555D01*
X335613Y71527D01*
X335780D01*
X335891Y71499D01*
X336086D01*
X336558Y71527D01*
X336974Y71583D01*
X337335Y71666D01*
X337668Y71777D01*
X337918Y71860D01*
X338085Y71943D01*
X338224Y71999D01*
X338251Y72027D01*
X338696Y72416D01*
X339057Y72860D01*
X339335Y73332D01*
X339584Y73776D01*
X339751Y74165D01*
X339890Y74498D01*
X339918Y74637D01*
X339946Y74721D01*
X339973Y74776D01*
Y74804D01*
X342334Y74026D01*
X342084Y73249D01*
X341778Y72582D01*
X341417Y71999D01*
X341084Y71527D01*
X340779Y71166D01*
X340529Y70916D01*
X340334Y70749D01*
X340306Y70722D01*
X340279Y70694D01*
X339946Y70472D01*
X339612Y70277D01*
X338918Y69972D01*
X338196Y69750D01*
X337529Y69611D01*
X337224Y69555D01*
X336946Y69500D01*
X336669Y69472D01*
X336446D01*
X336280Y69444D01*
X335558D01*
X335114Y69500D01*
X334697Y69555D01*
X334308Y69611D01*
X333947Y69722D01*
X333642Y69805D01*
X333364Y69916D01*
X333086Y70027D01*
X332864Y70111D01*
X332670Y70222D01*
X332503Y70333D01*
X332364Y70416D01*
X332281Y70472D01*
X332198Y70527D01*
X332142Y70583D01*
X331753Y70860D01*
X331420Y71166D01*
X331142Y71471D01*
X330892Y71777D01*
X330670Y72110D01*
X330504Y72416D01*
X330365Y72749D01*
X330254Y73054D01*
X330087Y73582D01*
X330032Y73832D01*
X330004Y74026D01*
X329976Y74221D01*
Y74332D01*
Y74415D01*
Y74443D01*
X330004Y75081D01*
X330115Y75637D01*
X330254Y76081D01*
X330393Y76442D01*
X330559Y76720D01*
X330698Y76914D01*
X330809Y77025D01*
X330837Y77053D01*
X331087Y77359D01*
X331365Y77636D01*
X331670Y77914D01*
X332031Y78164D01*
X332753Y78580D01*
X333475Y78942D01*
X333808Y79080D01*
X334142Y79219D01*
X334419Y79303D01*
X334669Y79414D01*
X334891Y79469D01*
X335058Y79525D01*
X335169Y79553D01*
X335197D01*
X335947Y79775D01*
X336558Y79941D01*
X337085Y80136D01*
X337529Y80302D01*
X337863Y80469D01*
X338141Y80608D01*
X338335Y80719D01*
X338446Y80802D01*
X338474Y80830D01*
X338724Y81108D01*
X338918Y81413D01*
X339057Y81718D01*
X339140Y82052D01*
X339196Y82329D01*
X339251Y82552D01*
Y82718D01*
Y82746D01*
Y82774D01*
X339224Y83163D01*
X339140Y83496D01*
X339029Y83801D01*
X338890Y84051D01*
X338751Y84246D01*
X338640Y84384D01*
X338557Y84468D01*
X338529Y84496D01*
X338196Y84773D01*
X337807Y84968D01*
X337391Y85106D01*
X337002Y85190D01*
X336669Y85273D01*
X336363Y85301D01*
X336113D01*
X335669Y85273D01*
X335252Y85162D01*
X334864Y85023D01*
X334503Y84829D01*
X334197Y84607D01*
X333919Y84357D01*
X333669Y84079D01*
X333447Y83801D01*
X333281Y83524D01*
X333114Y83246D01*
X332975Y82996D01*
X332864Y82774D01*
X332809Y82579D01*
X332753Y82441D01*
X332698Y82329D01*
Y82302D01*
X330309Y82968D01*
X330587Y83746D01*
X330948Y84412D01*
X331365Y84995D01*
X331809Y85495D01*
X332281Y85940D01*
X332753Y86273D01*
X333253Y86578D01*
X333753Y86800D01*
X334225Y86995D01*
X334669Y87134D01*
X335086Y87217D01*
X335447Y87300D01*
X335752Y87328D01*
X335974Y87356D01*
X336613D01*
X337030Y87300D01*
D02*
G37*
%LPC*%
G36*
X166689Y78886D02*
X166605D01*
X166216Y78858D01*
X165855Y78775D01*
X165578Y78636D01*
X165328Y78497D01*
X165133Y78331D01*
X164995Y78219D01*
X164911Y78108D01*
X164883Y78081D01*
X164634Y77692D01*
X164439Y77275D01*
X164300Y76831D01*
X164189Y76387D01*
X164134Y75970D01*
X164106Y75665D01*
Y75526D01*
Y75442D01*
Y75387D01*
Y75359D01*
X164134Y74721D01*
X164217Y74165D01*
X164300Y73665D01*
X164411Y73276D01*
X164550Y72943D01*
X164634Y72721D01*
X164717Y72582D01*
X164745Y72527D01*
X165022Y72166D01*
X165328Y71888D01*
X165661Y71721D01*
X165966Y71582D01*
X166272Y71499D01*
X166494Y71471D01*
X166661Y71444D01*
X166716D01*
X167161Y71499D01*
X167549Y71610D01*
X167910Y71777D01*
X168188Y71971D01*
X168410Y72138D01*
X168577Y72304D01*
X168688Y72416D01*
X168716Y72471D01*
X168882Y72721D01*
X169049Y73027D01*
X169271Y73665D01*
X169438Y74332D01*
X169577Y74998D01*
X169632Y75609D01*
X169660Y75859D01*
Y76109D01*
X169688Y76276D01*
Y76442D01*
Y76525D01*
Y76553D01*
X169438Y76970D01*
X169188Y77331D01*
X168938Y77636D01*
X168660Y77914D01*
X168410Y78136D01*
X168160Y78331D01*
X167910Y78469D01*
X167660Y78608D01*
X167244Y78775D01*
X167050Y78803D01*
X166911Y78858D01*
X166772D01*
X166689Y78886D01*
D02*
G37*
G36*
X75658Y80302D02*
X75603D01*
X75186Y80274D01*
X74825Y80191D01*
X74492Y80052D01*
X74242Y79941D01*
X74020Y79802D01*
X73853Y79663D01*
X73742Y79580D01*
X73715Y79552D01*
X73437Y79191D01*
X73187Y78775D01*
X73020Y78386D01*
X72909Y77997D01*
X72826Y77636D01*
X72770Y77359D01*
Y77248D01*
X72743Y77164D01*
Y77136D01*
Y77109D01*
X78574D01*
X78519Y77553D01*
X78408Y77969D01*
X78269Y78330D01*
X78130Y78636D01*
X77991Y78886D01*
X77880Y79080D01*
X77797Y79219D01*
X77769Y79247D01*
X77436Y79608D01*
X77075Y79858D01*
X76714Y80052D01*
X76380Y80163D01*
X76075Y80247D01*
X75825Y80274D01*
X75658Y80302D01*
D02*
G37*
G36*
X92820Y85023D02*
X89460D01*
X88821Y84995D01*
X88238Y84940D01*
X87794Y84829D01*
X87405Y84718D01*
X87100Y84607D01*
X86905Y84496D01*
X86766Y84440D01*
X86739Y84412D01*
X86433Y84162D01*
X86211Y83829D01*
X86044Y83496D01*
X85933Y83162D01*
X85878Y82857D01*
X85822Y82607D01*
Y82441D01*
Y82413D01*
Y82385D01*
X85850Y81913D01*
X85989Y81469D01*
X86183Y81107D01*
X86405Y80802D01*
X86711Y80524D01*
X87016Y80302D01*
X87350Y80136D01*
X87711Y79969D01*
X88072Y79858D01*
X88405Y79775D01*
X88710Y79719D01*
X89016Y79691D01*
X89238Y79663D01*
X89432Y79636D01*
X92820D01*
Y85023D01*
D02*
G37*
G36*
X235197Y85023D02*
X235058D01*
X234808Y84995D01*
X234586Y84968D01*
X234170Y84829D01*
X233809Y84607D01*
X233503Y84357D01*
X233281Y84107D01*
X233114Y83912D01*
X233003Y83746D01*
X232976Y83718D01*
Y83690D01*
X232837Y83385D01*
X232726Y83052D01*
X232614Y82663D01*
X232531Y82246D01*
X232420Y81358D01*
X232309Y80469D01*
X232281Y80024D01*
X232254Y79636D01*
Y79275D01*
X232226Y78942D01*
Y78664D01*
Y78469D01*
Y78358D01*
Y78303D01*
Y77664D01*
X232254Y77081D01*
X232281Y76553D01*
X232337Y76053D01*
X232392Y75581D01*
X232448Y75165D01*
X232503Y74776D01*
X232559Y74443D01*
X232614Y74137D01*
X232670Y73887D01*
X232726Y73693D01*
X232781Y73499D01*
X232837Y73360D01*
X232864Y73276D01*
X232892Y73221D01*
Y73193D01*
X233031Y72888D01*
X233170Y72638D01*
X233336Y72416D01*
X233503Y72221D01*
X233698Y72054D01*
X233892Y71916D01*
X234225Y71721D01*
X234558Y71582D01*
X234836Y71527D01*
X234947Y71499D01*
X235086D01*
X235336Y71527D01*
X235558Y71555D01*
X235947Y71693D01*
X236308Y71888D01*
X236586Y72138D01*
X236808Y72360D01*
X236947Y72554D01*
X237058Y72693D01*
X237085Y72749D01*
X237224Y73082D01*
X237363Y73443D01*
X237474Y73860D01*
X237558Y74304D01*
X237724Y75220D01*
X237807Y76137D01*
X237835Y76553D01*
X237863Y76970D01*
X237891Y77331D01*
Y77664D01*
X237918Y77942D01*
Y78136D01*
Y78247D01*
Y78303D01*
Y78942D01*
X237891Y79525D01*
X237863Y80052D01*
X237807Y80552D01*
X237752Y81024D01*
X237696Y81441D01*
X237641Y81802D01*
X237585Y82135D01*
X237530Y82441D01*
X237474Y82690D01*
X237419Y82913D01*
X237363Y83079D01*
X237308Y83218D01*
X237280Y83301D01*
X237252Y83357D01*
Y83385D01*
X237113Y83662D01*
X236947Y83940D01*
X236780Y84135D01*
X236613Y84329D01*
X236447Y84496D01*
X236252Y84634D01*
X235891Y84829D01*
X235558Y84940D01*
X235308Y84995D01*
X235197Y85023D01*
D02*
G37*
G36*
X194236Y85134D02*
X194042D01*
X193625Y85106D01*
X193264Y85051D01*
X192931Y84940D01*
X192681Y84829D01*
X192459Y84718D01*
X192292Y84607D01*
X192181Y84551D01*
X192154Y84523D01*
X191876Y84246D01*
X191682Y83968D01*
X191515Y83662D01*
X191432Y83385D01*
X191376Y83135D01*
X191321Y82940D01*
Y82802D01*
Y82746D01*
X191348Y82385D01*
X191376Y82079D01*
X191459Y81802D01*
X191515Y81580D01*
X191598Y81385D01*
X191682Y81246D01*
X191709Y81163D01*
X191737Y81135D01*
X191987Y80830D01*
X192292Y80552D01*
X192626Y80302D01*
X192931Y80108D01*
X193237Y79941D01*
X193514Y79802D01*
X193681Y79719D01*
X193709Y79691D01*
X193737D01*
X194097Y79858D01*
X194570Y80108D01*
X194986Y80330D01*
X195319Y80524D01*
X195597Y80719D01*
X195819Y80885D01*
X195958Y80997D01*
X196041Y81080D01*
X196069Y81108D01*
X196264Y81358D01*
X196402Y81607D01*
X196513Y81885D01*
X196569Y82135D01*
X196625Y82357D01*
X196652Y82524D01*
Y82635D01*
Y82690D01*
X196625Y83079D01*
X196569Y83412D01*
X196458Y83690D01*
X196347Y83940D01*
X196236Y84135D01*
X196125Y84273D01*
X196069Y84357D01*
X196041Y84384D01*
X195736Y84634D01*
X195403Y84829D01*
X195069Y84940D01*
X194764Y85051D01*
X194486Y85106D01*
X194236Y85134D01*
D02*
G37*
G36*
X194320Y77609D02*
X194292D01*
X193903Y77414D01*
X193320Y77164D01*
X192820Y76886D01*
X192403Y76637D01*
X192043Y76414D01*
X191765Y76220D01*
X191570Y76081D01*
X191432Y75970D01*
X191404Y75942D01*
X191237Y75665D01*
X191126Y75387D01*
X191015Y75081D01*
X190960Y74804D01*
X190932Y74554D01*
X190904Y74359D01*
Y74221D01*
Y74165D01*
X190932Y73748D01*
X191015Y73360D01*
X191126Y73027D01*
X191265Y72749D01*
X191404Y72527D01*
X191515Y72360D01*
X191598Y72249D01*
X191626Y72221D01*
X191959Y71943D01*
X192348Y71749D01*
X192764Y71582D01*
X193153Y71499D01*
X193486Y71444D01*
X193792Y71416D01*
X193903Y71388D01*
X194042D01*
X194514Y71416D01*
X194931Y71499D01*
X195292Y71610D01*
X195597Y71721D01*
X195847Y71832D01*
X196041Y71943D01*
X196152Y72027D01*
X196180Y72054D01*
X196486Y72360D01*
X196708Y72721D01*
X196874Y73082D01*
X196986Y73443D01*
X197041Y73748D01*
X197069Y74026D01*
X197097Y74193D01*
Y74221D01*
Y74248D01*
X197069Y74609D01*
X197013Y74943D01*
X196930Y75220D01*
X196819Y75498D01*
X196708Y75692D01*
X196625Y75831D01*
X196569Y75942D01*
X196541Y75970D01*
X196236Y76276D01*
X195903Y76581D01*
X195514Y76859D01*
X195153Y77109D01*
X194819Y77331D01*
X194542Y77470D01*
X194431Y77525D01*
X194347Y77581D01*
X194320Y77609D01*
D02*
G37*
G36*
X33254Y85023D02*
X33115D01*
X32865Y84995D01*
X32643Y84968D01*
X32226Y84829D01*
X31865Y84607D01*
X31560Y84357D01*
X31337Y84107D01*
X31171Y83912D01*
X31060Y83746D01*
X31032Y83718D01*
Y83690D01*
X30893Y83385D01*
X30782Y83051D01*
X30671Y82663D01*
X30588Y82246D01*
X30477Y81358D01*
X30366Y80469D01*
X30338Y80024D01*
X30310Y79636D01*
Y79275D01*
X30282Y78942D01*
Y78664D01*
Y78469D01*
Y78358D01*
Y78303D01*
Y77664D01*
X30310Y77081D01*
X30338Y76553D01*
X30393Y76053D01*
X30449Y75581D01*
X30504Y75165D01*
X30560Y74776D01*
X30615Y74443D01*
X30671Y74137D01*
X30727Y73887D01*
X30782Y73693D01*
X30838Y73499D01*
X30893Y73360D01*
X30921Y73276D01*
X30949Y73221D01*
Y73193D01*
X31088Y72888D01*
X31226Y72638D01*
X31393Y72416D01*
X31560Y72221D01*
X31754Y72054D01*
X31949Y71916D01*
X32282Y71721D01*
X32615Y71582D01*
X32893Y71527D01*
X33004Y71499D01*
X33143D01*
X33393Y71527D01*
X33615Y71555D01*
X34003Y71693D01*
X34364Y71888D01*
X34642Y72138D01*
X34864Y72360D01*
X35003Y72554D01*
X35114Y72693D01*
X35142Y72749D01*
X35281Y73082D01*
X35420Y73443D01*
X35531Y73860D01*
X35614Y74304D01*
X35781Y75220D01*
X35864Y76137D01*
X35892Y76553D01*
X35920Y76970D01*
X35947Y77331D01*
Y77664D01*
X35975Y77942D01*
Y78136D01*
Y78247D01*
Y78303D01*
Y78942D01*
X35947Y79525D01*
X35920Y80052D01*
X35864Y80552D01*
X35809Y81024D01*
X35753Y81441D01*
X35697Y81802D01*
X35642Y82135D01*
X35586Y82441D01*
X35531Y82690D01*
X35475Y82913D01*
X35420Y83079D01*
X35364Y83218D01*
X35336Y83301D01*
X35309Y83357D01*
Y83385D01*
X35170Y83662D01*
X35003Y83940D01*
X34837Y84135D01*
X34670Y84329D01*
X34503Y84496D01*
X34309Y84634D01*
X33948Y84829D01*
X33615Y84940D01*
X33365Y84995D01*
X33254Y85023D01*
D02*
G37*
%LPD*%
D11*
X124550Y152380D02*
X126550D01*
M02*
